<?xml version="1.0" encoding="utf-8" standalone="no"?>
<!DOCTYPE svg PUBLIC "-//W3C//DTD SVG 1.1//EN"
  "http://www.w3.org/Graphics/SVG/1.1/DTD/svg11.dtd">
<svg xmlns:xlink="http://www.w3.org/1999/xlink" width="1200pt" height="1100pt" viewBox="0 0 1200 1100" xmlns="http://www.w3.org/2000/svg" version="1.1">
 <metadata>
  <rdf:RDF xmlns:dc="http://purl.org/dc/elements/1.1/" xmlns:cc="http://creativecommons.org/ns#" xmlns:rdf="http://www.w3.org/1999/02/22-rdf-syntax-ns#">
   <cc:Work>
    <dc:type rdf:resource="http://purl.org/dc/dcmitype/StillImage"/>
    <dc:date>2026-10-09T11:56:22.826648</dc:date>
    <dc:format>image/svg+xml</dc:format>
    <dc:creator>
     <cc:Agent>
      <dc:title>n³ Hearingpedia; AI-assisted original teaching figure</dc:title>
     </cc:Agent>
    </dc:creator>
   </cc:Work>
  </rdf:RDF>
 </metadata>
 <defs>
  <style type="text/css">*{stroke-linejoin: round; stroke-linecap: butt}</style>
 </defs>
 <g id="figure_1">
  <g id="patch_1">
   <path d="M 0 1100
L 1200 1100
L 1200 0
L 0 0
z
" style="fill: #ffffff"/>
  </g>
  <g id="axes_1">
   <g id="patch_2">
    <path d="M 313 235
L 657 235
Q 670 235 670 248
L 670 347
Q 670 360 657 360
L 313 360
Q 300 360 300 347
L 300 248
Q 300 235 313 235
z
" clip-path="url(#p0ccc48d6b8)" style="fill: #f2f6f9; stroke: #176b92; stroke-width: 2.2; stroke-linejoin: miter"/>
   </g>
   <g id="patch_3">
    <path d="M 728 235
L 1117 235
Q 1130 235 1130 248
L 1130 347
Q 1130 360 1117 360
L 728 360
Q 715 360 715 347
L 715 248
Q 715 235 728 235
z
" clip-path="url(#p0ccc48d6b8)" style="fill: #f2f6f9; stroke: #744e9e; stroke-width: 2.2; stroke-linejoin: miter"/>
   </g>
   <g id="patch_4">
    <path d="M 313 525
L 657 525
Q 670 525 670 538
L 670 637
Q 670 650 657 650
L 313 650
Q 300 650 300 637
L 300 538
Q 300 525 313 525
z
" clip-path="url(#p0ccc48d6b8)" style="fill: #f2f6f9; stroke: #176b92; stroke-width: 2.2; stroke-linejoin: miter"/>
   </g>
   <g id="patch_5">
    <path d="M 728 525
L 1117 525
Q 1130 525 1130 538
L 1130 637
Q 1130 650 1117 650
L 728 650
Q 715 650 715 637
L 715 538
Q 715 525 728 525
z
" clip-path="url(#p0ccc48d6b8)" style="fill: #f2f6f9; stroke: #744e9e; stroke-width: 2.2; stroke-linejoin: miter"/>
   </g>
   <g id="patch_6">
    <path d="M 313 815
L 552 815
Q 565 815 565 828
L 565 927
Q 565 940 552 940
L 313 940
Q 300 940 300 927
L 300 828
Q 300 815 313 815
z
" clip-path="url(#p0ccc48d6b8)" style="fill: #f2f6f9; stroke: #176b92; stroke-width: 2.2; stroke-linejoin: miter"/>
   </g>
   <g id="patch_7">
    <path d="M 603 815
L 827 815
Q 840 815 840 828
L 840 927
Q 840 940 827 940
L 603 940
Q 590 940 590 927
L 590 828
Q 590 815 603 815
z
" clip-path="url(#p0ccc48d6b8)" style="fill: #f2f6f9; stroke: #744e9e; stroke-width: 2.2; stroke-linejoin: miter"/>
   </g>
   <g id="patch_8">
    <path d="M 883 815
L 1117 815
Q 1130 815 1130 828
L 1130 927
Q 1130 940 1117 940
L 883 940
Q 870 940 870 927
L 870 828
Q 870 815 883 815
z
" clip-path="url(#p0ccc48d6b8)" style="fill: #f2f6f9; stroke: #744e9e; stroke-width: 2.2; stroke-linejoin: miter"/>
   </g>
   <g id="line2d_1">
    <path d="M 310 206
L 1120 206
" clip-path="url(#p0ccc48d6b8)" style="fill: none; stroke: #7c8792; stroke-width: 2; stroke-linecap: square"/>
   </g>
   <g id="line2d_2">
    <path d="M 310 496
L 1120 496
" clip-path="url(#p0ccc48d6b8)" style="fill: none; stroke: #7c8792; stroke-width: 2; stroke-linecap: square"/>
   </g>
   <g id="line2d_3">
    <path d="M 310 786
L 1120 786
" clip-path="url(#p0ccc48d6b8)" style="fill: none; stroke: #7c8792; stroke-width: 2; stroke-linecap: square"/>
   </g>
   <g id="text_1">
    <text style="font-weight: 700; font-size: 42px; font-family: 'Microsoft YaHei', 'DejaVu Sans'; text-anchor: start; fill: #203040" x="55" y="73.566406" transform="rotate(-0 55 73.566406)">音节位置与拼音记写</text>
   </g>
   <g id="text_2">
    <text style="font-size: 27px; font-family: 'Microsoft YaHei', 'DejaVu Sans'; text-anchor: start; fill: #7c8792" x="55" y="125.435547" transform="rotate(-0 55 125.435547)">声母是位置概念；字母、辅音和音节成分不能直接等同</text>
   </g>
   <g id="text_3">
    <text style="font-weight: 700; font-size: 35px; font-family: 'Microsoft YaHei', 'DejaVu Sans'; text-anchor: start; fill: #203040" x="65" y="291.638672" transform="rotate(-0 65 291.638672)">（a）妈 mā</text>
   </g>
   <g id="text_4">
    <text style="font-size: 32px; font-family: 'Microsoft YaHei', 'DejaVu Sans'; text-anchor: middle; fill: #203040" x="715" y="180" transform="rotate(-0 715 180)">声调：第一声（依附音节）</text>
   </g>
   <g id="text_5">
    <text style="font-weight: 700; font-size: 36px; font-family: 'Microsoft YaHei', 'DejaVu Sans'; text-anchor: middle; fill: #176b92" x="485" y="289.914062" transform="rotate(-0 485 289.914062)">声母 m</text>
   </g>
   <g id="text_6">
    <text style="font-size: 30px; font-family: 'Microsoft YaHei', 'DejaVu Sans'; text-anchor: middle; fill: #203040" x="485" y="333.261719" transform="rotate(-0 485 333.261719)">双唇鼻音</text>
   </g>
   <g id="text_7">
    <text style="font-weight: 700; font-size: 36px; font-family: 'Microsoft YaHei', 'DejaVu Sans'; text-anchor: middle; fill: #744e9e" x="922.5" y="289.914062" transform="rotate(-0 922.5 289.914062)">韵母 a</text>
   </g>
   <g id="text_8">
    <text style="font-size: 30px; font-family: 'Microsoft YaHei', 'DejaVu Sans'; text-anchor: middle; fill: #203040" x="922.5" y="333.261719" transform="rotate(-0 922.5 333.261719)">主要元音</text>
   </g>
   <g id="text_9">
    <text style="font-weight: 700; font-size: 35px; font-family: 'Microsoft YaHei', 'DejaVu Sans'; text-anchor: start; fill: #203040" x="65" y="582.322266" transform="rotate(-0 65 582.322266)">（b）衣 yī</text>
   </g>
   <g id="text_10">
    <text style="font-size: 32px; font-family: 'Microsoft YaHei', 'DejaVu Sans'; text-anchor: middle; fill: #203040" x="715" y="470" transform="rotate(-0 715 470)">声调：第一声（依附音节）</text>
   </g>
   <g id="text_11">
    <text style="font-weight: 700; font-size: 36px; font-family: 'Microsoft YaHei', 'DejaVu Sans'; text-anchor: middle; fill: #176b92" x="485" y="579.914062" transform="rotate(-0 485 579.914062)">零声母</text>
   </g>
   <g id="text_12">
    <text style="font-size: 30px; font-family: 'Microsoft YaHei', 'DejaVu Sans'; text-anchor: middle; fill: #203040" x="485" y="623.261719" transform="rotate(-0 485 623.261719)">无常规辅音声母</text>
   </g>
   <g id="text_13">
    <text style="font-weight: 700; font-size: 36px; font-family: 'Microsoft YaHei', 'DejaVu Sans'; text-anchor: middle; fill: #744e9e" x="922.5" y="579.914062" transform="rotate(-0 922.5 579.914062)">韵母 i</text>
   </g>
   <g id="text_14">
    <text style="font-size: 30px; font-family: 'Microsoft YaHei', 'DejaVu Sans'; text-anchor: middle; fill: #203040" x="922.5" y="623.775" transform="rotate(-0 922.5 623.775)">y 参与拼写</text>
   </g>
   <g id="text_15">
    <text style="font-weight: 700; font-size: 35px; font-family: 'Microsoft YaHei', 'DejaVu Sans'; text-anchor: start; fill: #203040" x="65" y="874.49375" transform="rotate(-0 65 874.49375)">（c）昂 áng</text>
   </g>
   <g id="text_16">
    <text style="font-size: 32px; font-family: 'Microsoft YaHei', 'DejaVu Sans'; text-anchor: middle; fill: #203040" x="715" y="760" transform="rotate(-0 715 760)">声调：第二声（依附音节）</text>
   </g>
   <g id="text_17">
    <text style="font-size: 35px; font-family: 'Microsoft YaHei', 'DejaVu Sans'; text-anchor: middle; fill: #203040" x="432.5" y="887.138672" transform="rotate(-0 432.5 887.138672)">零声母</text>
   </g>
   <g id="text_18">
    <text style="font-weight: 700; font-size: 36px; font-family: 'Microsoft YaHei', 'DejaVu Sans'; text-anchor: middle; fill: #744e9e" x="715" y="869.914062" transform="rotate(-0 715 869.914062)">a</text>
   </g>
   <g id="text_19">
    <text style="font-size: 30px; font-family: 'Microsoft YaHei', 'DejaVu Sans'; text-anchor: middle; fill: #203040" x="715" y="913.261719" transform="rotate(-0 715 913.261719)">主要元音</text>
   </g>
   <g id="text_20">
    <text style="font-weight: 700; font-size: 36px; font-family: 'Microsoft YaHei', 'DejaVu Sans'; text-anchor: middle; fill: #744e9e" x="1000" y="869.739687" transform="rotate(-0 1000 869.739687)">ng</text>
   </g>
   <g id="text_21">
    <text style="font-size: 30px; font-family: 'Microsoft YaHei', 'DejaVu Sans'; text-anchor: middle; fill: #203040" x="1000" y="913.261719" transform="rotate(-0 1000 913.261719)">鼻音韵尾</text>
   </g>
   <g id="text_22">
    <text style="font-size: 28px; font-family: 'Microsoft YaHei', 'DejaVu Sans'; text-anchor: start; fill: #203040" x="65" y="1020" transform="rotate(-0 65 1020)">韵尾 ng 不列入 21 个常规声母；图中框宽不表示真实发音时长。</text>
   </g>
  </g>
 </g>
 <defs>
  <clipPath id="p0ccc48d6b8">
   <rect x="0" y="0" width="1200" height="1100"/>
  </clipPath>
 </defs>
</svg>
