<?xml version="1.0" encoding="utf-8" standalone="no"?>
<!DOCTYPE svg PUBLIC "-//W3C//DTD SVG 1.1//EN"
  "http://www.w3.org/Graphics/SVG/1.1/DTD/svg11.dtd">
<svg xmlns:xlink="http://www.w3.org/1999/xlink" width="1440pt" height="720pt" viewBox="0 0 1440 720" xmlns="http://www.w3.org/2000/svg" version="1.1">
 <metadata>
  <rdf:RDF xmlns:dc="http://purl.org/dc/elements/1.1/" xmlns:cc="http://creativecommons.org/ns#" xmlns:rdf="http://www.w3.org/1999/02/22-rdf-syntax-ns#">
   <cc:Work>
    <dc:type rdf:resource="http://purl.org/dc/dcmitype/StillImage"/>
    <dc:format>image/svg+xml</dc:format>
    <dc:creator>
     <cc:Agent>
      <dc:title>Hearingpedia original teaching figure</dc:title>
     </cc:Agent>
    </dc:creator>
   </cc:Work>
  </rdf:RDF>
 </metadata>
 <defs>
  <style type="text/css">*{stroke-linejoin: round; stroke-linecap: butt}</style>
 </defs>
 <g id="figure_1">
  <g id="patch_1">
   <path d="M 0 720 
L 1440 720 
L 1440 0 
L 0 0 
z
" style="fill: #ffffff"/>
  </g>
  <g id="axes_1">
   <g id="patch_2">
    <path d="M 108 590.4 
L 668.347826 590.4 
L 668.347826 79.2 
L 108 79.2 
z
" style="fill: #ffffff"/>
   </g>
   <g id="matplotlib.axis_1">
    <g id="xtick_1">
     <g id="line2d_1">
      <defs>
       <path id="m227df6105f" d="M 0 0 
L 0 3.5 
" style="stroke: #000000; stroke-width: 0.8"/>
      </defs>
      <g>
       <use xlink:href="#m227df6105f" x="223.365729" y="590.4" style="stroke: #000000; stroke-width: 0.8"/>
      </g>
     </g>
     <g id="text_1">
      <!-- -2 -->
      <g transform="translate(213.175104 613.3875) scale(0.2 -0.2)">
       <defs>
        <path id="MicrosoftYaHei-2d" d="M 2328 1681 
L 488 1681 
L 488 2153 
L 2328 2153 
L 2328 1681 
z
" transform="scale(0.015625)"/>
        <path id="MicrosoftYaHei-32" d="M 2666 3572 
Q 2666 3963 2419 4186 
Q 2172 4409 1747 4409 
Q 1447 4409 1140 4256 
Q 834 4103 569 3819 
L 569 4413 
Q 806 4659 1107 4790 
Q 1409 4922 1816 4922 
Q 2472 4922 2872 4570 
Q 3272 4219 3272 3619 
Q 3272 3084 3026 2693 
Q 2781 2303 2188 1894 
Q 1581 1475 1376 1294 
Q 1172 1113 1090 947 
Q 1009 781 1009 544 
L 3416 544 
L 3416 0 
L 372 0 
L 372 241 
Q 372 659 486 951 
Q 600 1244 862 1520 
Q 1125 1797 1681 2184 
Q 2250 2584 2458 2886 
Q 2666 3188 2666 3572 
z
" transform="scale(0.015625)"/>
       </defs>
       <use xlink:href="#MicrosoftYaHei-2d"/>
       <use xlink:href="#MicrosoftYaHei-32" x="43.261719"/>
      </g>
     </g>
    </g>
    <g id="xtick_2">
     <g id="line2d_2">
      <g>
       <use xlink:href="#m227df6105f" x="343.226226" y="590.4" style="stroke: #000000; stroke-width: 0.8"/>
      </g>
     </g>
     <g id="text_2">
      <!-- 0 -->
      <g transform="translate(337.362164 613.3875) scale(0.2 -0.2)">
       <defs>
        <path id="MicrosoftYaHei-30" d="M 284 2325 
Q 284 3606 709 4264 
Q 1134 4922 1941 4922 
Q 3478 4922 3478 2441 
Q 3478 1216 3045 567 
Q 2613 -81 1831 -81 
Q 1094 -81 689 534 
Q 284 1150 284 2325 
z
M 909 2353 
Q 909 425 1888 425 
Q 2850 425 2850 2384 
Q 2850 4413 1906 4413 
Q 909 4413 909 2353 
z
" transform="scale(0.015625)"/>
       </defs>
       <use xlink:href="#MicrosoftYaHei-30"/>
      </g>
     </g>
    </g>
    <g id="xtick_3">
     <g id="line2d_3">
      <g>
       <use xlink:href="#m227df6105f" x="463.086724" y="590.4" style="stroke: #000000; stroke-width: 0.8"/>
      </g>
     </g>
     <g id="text_3">
      <!-- 2 -->
      <g transform="translate(457.222662 613.3875) scale(0.2 -0.2)">
       <use xlink:href="#MicrosoftYaHei-32"/>
      </g>
     </g>
    </g>
    <g id="xtick_4">
     <g id="line2d_4">
      <g>
       <use xlink:href="#m227df6105f" x="582.947222" y="590.4" style="stroke: #000000; stroke-width: 0.8"/>
      </g>
     </g>
     <g id="text_4">
      <!-- 4 -->
      <g transform="translate(577.083159 613.3875) scale(0.2 -0.2)">
       <defs>
        <path id="MicrosoftYaHei-34" d="M 2906 4841 
L 2906 1644 
L 3631 1644 
L 3631 1138 
L 2906 1138 
L 2906 0 
L 2313 0 
L 2313 1138 
L 53 1138 
L 53 1616 
Q 656 2294 1265 3178 
Q 1875 4063 2272 4841 
L 2906 4841 
z
M 741 1644 
L 2313 1644 
L 2313 3950 
Q 1988 3366 1616 2817 
Q 1244 2269 741 1644 
z
" transform="scale(0.015625)"/>
       </defs>
       <use xlink:href="#MicrosoftYaHei-34"/>
      </g>
     </g>
    </g>
    <g id="text_5">
     <!-- 内部证据（标准差单位） -->
     <g transform="translate(267.173913 639.945625) scale(0.22 -0.22)">
      <defs>
       <path id="MicrosoftYaHei-5185" d="M 638 4184 
L 2944 4184 
L 2944 5259 
L 3456 5259 
L 3456 4184 
L 5750 4184 
L 5750 59 
Q 5750 -734 4969 -728 
Q 4556 -728 3956 -716 
Q 3938 -503 3863 -172 
Q 4456 -222 4850 -228 
Q 5244 -241 5244 166 
L 5244 3709 
L 3444 3709 
Q 3419 3141 3306 2697 
Q 4413 1809 5094 1134 
L 4713 728 
Q 4044 1459 3156 2247 
Q 2731 1328 1538 647 
Q 1275 1009 1188 1097 
Q 2206 1634 2581 2291 
Q 2881 2772 2931 3709 
L 1144 3709 
L 1144 -784 
L 638 -784 
L 638 4184 
z
" transform="scale(0.015625)"/>
       <path id="MicrosoftYaHei-90e8" d="M 6288 1247 
Q 6288 172 5444 84 
Q 5125 47 4594 109 
Q 4563 334 4513 659 
Q 4969 584 5294 584 
Q 5844 584 5794 1341 
Q 5769 2009 4838 2709 
Q 5244 3516 5663 4503 
L 4388 4503 
L 4388 -828 
L 3913 -828 
L 3913 4966 
L 6163 4966 
L 6163 4453 
Q 5919 3822 5406 2816 
Q 6288 2128 6288 1247 
z
M 575 1753 
L 3275 1753 
L 3275 -791 
L 2813 -791 
L 2813 -328 
L 1038 -328 
L 1038 -797 
L 575 -797 
L 575 1753 
z
M 2813 1334 
L 1038 1334 
L 1038 103 
L 2813 103 
L 2813 1334 
z
M 125 2822 
L 2125 2822 
Q 2497 3466 2731 3997 
L 3194 3759 
Q 2922 3284 2616 2822 
L 3706 2822 
L 3706 2403 
L 125 2403 
L 125 2822 
z
M 263 4472 
L 1825 4472 
Q 1703 4753 1456 5159 
L 1888 5359 
Q 2169 4891 2288 4616 
L 1981 4472 
L 3594 4472 
L 3594 4053 
L 263 4053 
L 263 4472 
z
M 681 3728 
L 1063 3959 
Q 1375 3516 1631 3072 
L 1206 2828 
Q 1013 3222 681 3728 
z
" transform="scale(0.015625)"/>
       <path id="MicrosoftYaHei-8bc1" d="M 1681 -34 
L 2550 -34 
L 2550 3422 
L 3031 3422 
L 3031 -34 
L 4025 -34 
L 4025 4534 
L 2025 4534 
L 2025 4997 
L 6200 4997 
L 6200 4534 
L 4525 4534 
L 4525 2653 
L 5975 2653 
L 5975 2191 
L 4525 2191 
L 4525 -34 
L 6300 -34 
L 6300 -497 
L 1681 -497 
L 1681 -34 
z
M 2050 1534 
Q 2075 1316 2169 991 
Q 1413 241 1025 -203 
L 669 203 
Q 856 466 856 828 
L 856 2784 
L 100 2784 
L 100 3234 
L 1338 3234 
L 1338 797 
Q 1625 1072 2050 1534 
z
M 706 5222 
Q 1438 4478 1731 4147 
L 1294 3778 
Q 900 4291 325 4891 
L 706 5222 
z
" transform="scale(0.015625)"/>
       <path id="MicrosoftYaHei-636e" d="M 2900 1334 
L 4188 1334 
L 4188 2128 
L 2731 2128 
Q 2663 206 1844 -841 
Q 1694 -647 1506 -447 
Q 2288 516 2288 2509 
L 2288 4947 
L 5975 4947 
L 5975 3134 
L 5525 3134 
L 5525 3328 
L 2738 3328 
L 2738 2553 
L 4188 2553 
L 4188 3209 
L 4638 3209 
L 4638 2553 
L 6288 2553 
L 6288 2128 
L 4638 2128 
L 4638 1334 
L 5938 1334 
L 5938 -778 
L 5488 -778 
L 5488 -416 
L 3350 -416 
L 3350 -778 
L 2900 -778 
L 2900 1334 
z
M 100 1966 
Q 544 2088 963 2213 
L 963 3641 
L 175 3641 
L 175 4091 
L 963 4091 
L 963 5284 
L 1425 5284 
L 1425 4091 
L 2106 4091 
L 2106 3641 
L 1425 3641 
L 1425 2356 
Q 1722 2450 2006 2547 
Q 2013 2266 2044 2059 
Q 1722 1956 1425 1856 
L 1425 -34 
Q 1425 -741 806 -753 
Q 613 -759 231 -747 
Q 206 -497 156 -228 
Q 500 -266 681 -266 
Q 963 -266 963 53 
L 963 1703 
Q 534 1559 163 1428 
L 100 1966 
z
M 5525 4534 
L 2738 4534 
L 2738 3741 
L 5525 3741 
L 5525 4534 
z
M 5488 922 
L 3350 922 
L 3350 -9 
L 5488 -9 
L 5488 922 
z
" transform="scale(0.015625)"/>
       <path id="MicrosoftYaHei-ff08" d="M 5288 -1100 
Q 4172 119 4172 1850 
Q 4172 3603 5288 4838 
L 5825 4838 
Q 4716 3572 4716 1856 
Q 4716 166 5819 -1100 
L 5288 -1100 
z
" transform="scale(0.015625)"/>
       <path id="MicrosoftYaHei-6807" d="M 75 1409 
Q 769 2478 1025 3647 
L 119 3647 
L 119 4072 
L 1069 4072 
L 1069 5297 
L 1506 5297 
L 1506 4072 
L 2356 4072 
L 2356 3647 
L 1506 3647 
L 1506 2541 
L 1775 2822 
Q 2175 2478 2481 2159 
L 2150 1816 
Q 1850 2156 1506 2503 
L 1506 -797 
L 1069 -797 
L 1069 2588 
Q 738 1513 281 859 
Q 194 1128 75 1409 
z
M 2350 3097 
L 6250 3097 
L 6250 2659 
L 4525 2659 
L 4525 47 
Q 4525 -734 3806 -734 
Q 3469 -741 2975 -728 
Q 2944 -503 2888 -209 
Q 3319 -259 3675 -259 
Q 4050 -259 4050 203 
L 4050 2659 
L 2350 2659 
L 2350 3097 
z
M 2638 4928 
L 5963 4928 
L 5963 4491 
L 2638 4491 
L 2638 4928 
z
M 4938 1853 
L 5381 2066 
Q 5975 928 6369 72 
L 5869 -147 
Q 5463 822 4938 1853 
z
M 2931 2066 
L 3400 1878 
Q 2888 734 2381 -153 
Q 2188 -41 1925 66 
Q 2425 872 2931 2066 
z
" transform="scale(0.015625)"/>
       <path id="MicrosoftYaHei-51c6" d="M 1413 2766 
Q 2313 3866 2869 5334 
L 3331 5172 
Q 3128 4694 2906 4253 
L 6194 4253 
L 6194 3822 
L 4675 3822 
L 4675 2891 
L 6025 2891 
L 6025 2459 
L 4675 2459 
L 4675 1528 
L 6038 1528 
L 6038 1097 
L 4675 1097 
L 4675 78 
L 6275 78 
L 6275 -341 
L 2769 -341 
L 2769 -841 
L 2281 -841 
L 2281 3131 
Q 2034 2738 1769 2384 
Q 1631 2578 1413 2766 
z
M 2769 78 
L 4188 78 
L 4188 1097 
L 2769 1097 
L 2769 78 
z
M 1081 2422 
Q 1325 2291 1556 2209 
Q 1113 916 681 -372 
L 169 -141 
Q 650 1003 1081 2422 
z
M 2769 1528 
L 4188 1528 
L 4188 2459 
L 2769 2459 
L 2769 1528 
z
M 2769 2891 
L 4188 2891 
L 4188 3822 
L 2769 3822 
L 2769 2891 
z
M 531 4991 
Q 1050 4384 1581 3709 
Q 1538 3678 1150 3341 
Q 681 3997 138 4672 
L 531 4991 
z
M 3919 5116 
L 4325 5372 
Q 4569 5072 4881 4622 
L 4450 4334 
Q 4156 4784 3919 5116 
z
" transform="scale(0.015625)"/>
       <path id="MicrosoftYaHei-5dee" d="M 1094 -172 
L 3419 -172 
L 3419 891 
L 1813 891 
L 1813 1088 
Q 1200 394 331 -197 
Q 206 3 31 247 
Q 1213 1028 1859 1984 
L 200 1984 
L 200 2409 
L 2119 2409 
Q 2275 2694 2409 3028 
L 638 3028 
L 638 3447 
L 2569 3447 
Q 2666 3728 2750 4041 
L 488 4041 
L 488 4466 
L 2075 4466 
Q 1813 4797 1513 5122 
L 1869 5397 
Q 2231 5047 2563 4672 
L 2278 4466 
L 4219 4466 
L 3975 4684 
Q 4344 5047 4631 5403 
L 5056 5122 
Q 4738 4772 4413 4466 
L 6050 4466 
L 6050 4041 
L 3291 4041 
Q 3206 3731 3109 3447 
L 5813 3447 
L 5813 3028 
L 2963 3028 
Q 2838 2700 2697 2409 
L 6294 2409 
L 6294 1984 
L 2469 1984 
Q 2259 1634 1997 1309 
L 5613 1309 
L 5613 891 
L 3925 891 
L 3925 -172 
L 6213 -172 
L 6213 -597 
L 1094 -597 
L 1094 -172 
z
" transform="scale(0.015625)"/>
       <path id="MicrosoftYaHei-5355" d="M 125 909 
L 2956 909 
L 2956 1616 
L 1225 1616 
L 1225 1322 
L 750 1322 
L 750 4353 
L 2047 4353 
Q 1747 4703 1400 5072 
L 1756 5366 
Q 2219 4922 2569 4547 
L 2338 4353 
L 3803 4353 
Q 4147 4809 4500 5347 
L 5000 5078 
Q 4678 4688 4378 4353 
L 5656 4353 
L 5656 1322 
L 5181 1322 
L 5181 1616 
L 3444 1616 
L 3444 909 
L 6275 909 
L 6275 459 
L 3444 459 
L 3444 -859 
L 2956 -859 
L 2956 459 
L 125 459 
L 125 909 
z
M 3444 2053 
L 5181 2053 
L 5181 2778 
L 3444 2778 
L 3444 2053 
z
M 1225 2053 
L 2956 2053 
L 2956 2778 
L 1225 2778 
L 1225 2053 
z
M 5181 3916 
L 3444 3916 
L 3444 3203 
L 5181 3203 
L 5181 3916 
z
M 1225 3203 
L 2956 3203 
L 2956 3916 
L 1225 3916 
L 1225 3203 
z
" transform="scale(0.015625)"/>
       <path id="MicrosoftYaHei-4f4d" d="M 1788 -59 
L 4228 -59 
Q 4678 1144 5269 3372 
L 5831 3203 
Q 5453 2044 4756 -59 
L 6319 -59 
L 6319 -522 
L 1788 -522 
L 1788 -59 
z
M 81 2291 
Q 975 3641 1431 5322 
L 1963 5191 
Q 1703 4397 1406 3709 
L 1406 -853 
L 938 -853 
L 938 2731 
Q 644 2181 319 1716 
Q 231 1953 81 2291 
z
M 1919 4191 
L 4122 4191 
Q 3844 4659 3506 5059 
L 3931 5353 
Q 4206 5034 4613 4497 
L 4150 4191 
L 6206 4191 
L 6206 3728 
L 1919 3728 
L 1919 4191 
z
M 2769 3309 
Q 3181 2184 3669 584 
L 3150 434 
Q 2725 1966 2294 3147 
L 2769 3309 
z
" transform="scale(0.015625)"/>
       <path id="MicrosoftYaHei-ff09" d="M 1113 -1100 
L 575 -1100 
Q 1684 163 1684 1888 
Q 1684 3581 581 4838 
L 1113 4838 
Q 2222 3628 2222 1888 
Q 2222 128 1113 -1100 
z
" transform="scale(0.015625)"/>
      </defs>
      <use xlink:href="#MicrosoftYaHei-5185"/>
      <use xlink:href="#MicrosoftYaHei-90e8" x="100"/>
      <use xlink:href="#MicrosoftYaHei-8bc1" x="200"/>
      <use xlink:href="#MicrosoftYaHei-636e" x="300"/>
      <use xlink:href="#MicrosoftYaHei-ff08" x="400"/>
      <use xlink:href="#MicrosoftYaHei-6807" x="500"/>
      <use xlink:href="#MicrosoftYaHei-51c6" x="600"/>
      <use xlink:href="#MicrosoftYaHei-5dee" x="700"/>
      <use xlink:href="#MicrosoftYaHei-5355" x="800"/>
      <use xlink:href="#MicrosoftYaHei-4f4d" x="900"/>
      <use xlink:href="#MicrosoftYaHei-ff09" x="1000"/>
     </g>
    </g>
   </g>
   <g id="matplotlib.axis_2">
    <g id="ytick_1">
     <g id="line2d_5">
      <defs>
       <path id="m95f61aae21" d="M 0 0 
L -3.5 0 
" style="stroke: #000000; stroke-width: 0.8"/>
      </defs>
      <g>
       <use xlink:href="#m95f61aae21" x="108" y="590.4" style="stroke: #000000; stroke-width: 0.8"/>
      </g>
     </g>
     <g id="text_6">
      <!-- 0.0 -->
      <g transform="translate(72.728125 598.39375) scale(0.2 -0.2)">
       <defs>
        <path id="MicrosoftYaHei-2e" d="M 372 322 
Q 372 491 487 606 
Q 603 722 775 722 
Q 950 722 1065 605 
Q 1181 488 1181 322 
Q 1181 159 1065 42 
Q 950 -75 772 -75 
Q 600 -75 486 42 
Q 372 159 372 322 
z
" transform="scale(0.015625)"/>
       </defs>
       <use xlink:href="#MicrosoftYaHei-30"/>
       <use xlink:href="#MicrosoftYaHei-2e" x="58.642578"/>
       <use xlink:href="#MicrosoftYaHei-30" x="82.714844"/>
      </g>
     </g>
    </g>
    <g id="ytick_2">
     <g id="line2d_6">
      <g>
       <use xlink:href="#m95f61aae21" x="108" y="499.114286" style="stroke: #000000; stroke-width: 0.8"/>
      </g>
     </g>
     <g id="text_7">
      <!-- 0.1 -->
      <g transform="translate(72.728125 507.108036) scale(0.2 -0.2)">
       <defs>
        <path id="MicrosoftYaHei-31" d="M 1781 0 
L 1781 4141 
Q 1638 3997 1295 3819 
Q 953 3641 663 3569 
L 663 4169 
Q 1047 4275 1484 4508 
Q 1922 4741 2156 4947 
L 2388 4947 
L 2388 0 
L 1781 0 
z
" transform="scale(0.015625)"/>
       </defs>
       <use xlink:href="#MicrosoftYaHei-30"/>
       <use xlink:href="#MicrosoftYaHei-2e" x="58.642578"/>
       <use xlink:href="#MicrosoftYaHei-31" x="82.714844"/>
      </g>
     </g>
    </g>
    <g id="ytick_3">
     <g id="line2d_7">
      <g>
       <use xlink:href="#m95f61aae21" x="108" y="407.828571" style="stroke: #000000; stroke-width: 0.8"/>
      </g>
     </g>
     <g id="text_8">
      <!-- 0.2 -->
      <g transform="translate(72.728125 415.822321) scale(0.2 -0.2)">
       <use xlink:href="#MicrosoftYaHei-30"/>
       <use xlink:href="#MicrosoftYaHei-2e" x="58.642578"/>
       <use xlink:href="#MicrosoftYaHei-32" x="82.714844"/>
      </g>
     </g>
    </g>
    <g id="ytick_4">
     <g id="line2d_8">
      <g>
       <use xlink:href="#m95f61aae21" x="108" y="316.542857" style="stroke: #000000; stroke-width: 0.8"/>
      </g>
     </g>
     <g id="text_9">
      <!-- 0.3 -->
      <g transform="translate(72.728125 324.536607) scale(0.2 -0.2)">
       <defs>
        <path id="MicrosoftYaHei-33" d="M 447 809 
Q 944 425 1569 425 
Q 2069 425 2361 670 
Q 2653 916 2653 1328 
Q 2653 2247 1338 2247 
L 934 2247 
L 934 2753 
L 1319 2753 
Q 2484 2753 2484 3616 
Q 2484 4413 1594 4413 
Q 1084 4413 634 4069 
L 634 4647 
Q 1109 4922 1744 4922 
Q 2363 4922 2738 4598 
Q 3113 4275 3113 3759 
Q 3113 2809 2144 2538 
L 2144 2525 
Q 2669 2469 2973 2155 
Q 3278 1841 3278 1372 
Q 3278 719 2808 319 
Q 2338 -81 1556 -81 
Q 869 -81 447 175 
L 447 809 
z
" transform="scale(0.015625)"/>
       </defs>
       <use xlink:href="#MicrosoftYaHei-30"/>
       <use xlink:href="#MicrosoftYaHei-2e" x="58.642578"/>
       <use xlink:href="#MicrosoftYaHei-33" x="82.714844"/>
      </g>
     </g>
    </g>
    <g id="ytick_5">
     <g id="line2d_9">
      <g>
       <use xlink:href="#m95f61aae21" x="108" y="225.257143" style="stroke: #000000; stroke-width: 0.8"/>
      </g>
     </g>
     <g id="text_10">
      <!-- 0.4 -->
      <g transform="translate(72.728125 233.250893) scale(0.2 -0.2)">
       <use xlink:href="#MicrosoftYaHei-30"/>
       <use xlink:href="#MicrosoftYaHei-2e" x="58.642578"/>
       <use xlink:href="#MicrosoftYaHei-34" x="82.714844"/>
      </g>
     </g>
    </g>
    <g id="ytick_6">
     <g id="line2d_10">
      <g>
       <use xlink:href="#m95f61aae21" x="108" y="133.971429" style="stroke: #000000; stroke-width: 0.8"/>
      </g>
     </g>
     <g id="text_11">
      <!-- 0.5 -->
      <g transform="translate(72.728125 141.965179) scale(0.2 -0.2)">
       <defs>
        <path id="MicrosoftYaHei-35" d="M 3294 1494 
Q 3294 784 2823 350 
Q 2353 -84 1559 -84 
Q 878 -84 544 119 
L 544 744 
Q 1034 425 1544 425 
Q 2050 425 2361 704 
Q 2672 984 2672 1447 
Q 2672 1909 2348 2167 
Q 2025 2425 1434 2425 
Q 978 2425 613 2384 
L 791 4841 
L 3053 4841 
L 3053 4303 
L 1306 4303 
L 1206 2931 
L 1647 2950 
Q 2416 2950 2855 2567 
Q 3294 2184 3294 1494 
z
" transform="scale(0.015625)"/>
       </defs>
       <use xlink:href="#MicrosoftYaHei-30"/>
       <use xlink:href="#MicrosoftYaHei-2e" x="58.642578"/>
       <use xlink:href="#MicrosoftYaHei-35" x="82.714844"/>
      </g>
     </g>
    </g>
    <g id="text_12">
     <!-- 概率密度 -->
     <g transform="translate(63.259062 378.8) rotate(-90) scale(0.22 -0.22)">
      <defs>
       <path id="MicrosoftYaHei-6982" d="M 2900 1359 
L 3263 1559 
Q 3519 1141 3869 466 
L 3494 222 
Q 3416 384 3344 528 
Q 3041 325 2544 -22 
Q 2419 -103 2219 -322 
L 1869 91 
Q 2063 303 2063 659 
L 2063 4966 
L 3606 4966 
L 3606 1803 
L 3206 1803 
L 3206 2009 
L 2469 2009 
L 2469 484 
Q 2781 669 3147 916 
Q 3009 1178 2900 1359 
z
M 4313 2584 
L 4850 2584 
Q 4950 3300 4950 4566 
L 3900 4566 
L 3900 4966 
L 6100 4966 
L 6100 4566 
L 5363 4566 
Q 5369 3344 5272 2584 
L 6138 2584 
L 6138 2184 
L 5209 2184 
Q 5156 1897 5075 1628 
L 5281 1628 
L 5281 59 
Q 5281 -228 5500 -228 
L 5619 -228 
Q 5781 -228 5844 22 
Q 5913 284 5900 853 
Q 6131 747 6319 691 
Q 6306 141 6213 -216 
Q 6081 -653 5744 -653 
L 5369 -653 
Q 4869 -653 4869 -3 
L 4869 1072 
Q 4366 -41 3281 -841 
Q 3150 -647 2963 -484 
Q 4425 534 4778 2184 
L 3894 2184 
L 4063 4253 
L 4450 4253 
L 4313 2584 
z
M 75 1384 
Q 569 2369 856 3616 
L 169 3616 
L 169 4003 
L 913 4003 
L 913 5322 
L 1325 5322 
L 1325 4003 
L 1913 4003 
L 1913 3616 
L 1325 3616 
L 1325 2775 
L 1494 2922 
Q 1819 2578 2019 2309 
L 1725 2059 
Q 1534 2341 1325 2588 
L 1325 -822 
L 913 -822 
L 913 2691 
Q 622 1531 256 841 
Q 175 1103 75 1384 
z
M 2469 2397 
L 3206 2397 
L 3206 3297 
L 2469 3297 
L 2469 2397 
z
M 3206 4578 
L 2469 4578 
L 2469 3684 
L 3206 3684 
L 3206 4578 
z
" transform="scale(0.015625)"/>
       <path id="MicrosoftYaHei-7387" d="M 2525 2009 
Q 2622 2016 3928 2081 
Q 3772 2300 3625 2491 
L 3963 2703 
Q 4413 2203 4794 1653 
L 4394 1403 
Q 4284 1569 4178 1725 
Q 2991 1659 2213 1597 
Q 2075 1584 1881 1541 
L 1725 1966 
Q 1913 2028 2006 2084 
Q 2534 2441 3050 2913 
Q 2597 2894 2275 2866 
Q 2144 2847 1988 2809 
L 1800 3191 
Q 1956 3247 2088 3366 
Q 2509 3722 2875 4228 
L 231 4228 
L 231 4666 
L 3031 4666 
Q 2878 4944 2744 5153 
L 3194 5372 
Q 3438 5000 3616 4666 
L 6175 4666 
L 6175 4228 
L 3053 4228 
L 3350 4072 
Q 2844 3553 2494 3247 
Q 2850 3256 3425 3269 
Q 3675 3519 3925 3797 
L 4356 3547 
Q 3363 2603 2525 2009 
z
M 144 991 
L 2994 991 
L 2994 1541 
L 3488 1541 
L 3488 991 
L 6275 991 
L 6275 553 
L 3488 553 
L 3488 -853 
L 2994 -853 
L 2994 553 
L 144 553 
L 144 991 
z
M 1719 2672 
L 1944 2303 
Q 1200 1866 425 1409 
L 163 1828 
Q 813 2134 1719 2672 
z
M 4856 2678 
Q 5750 2172 6250 1816 
L 5975 1409 
Q 5331 1909 4600 2341 
L 4856 2678 
z
M 5994 3591 
Q 5519 3178 4963 2809 
L 4644 3141 
Q 5244 3534 5638 3928 
L 5994 3591 
z
M 363 3634 
L 681 3941 
Q 1200 3528 1588 3159 
L 1238 2816 
Q 875 3197 363 3634 
z
" transform="scale(0.015625)"/>
       <path id="MicrosoftYaHei-5bc6" d="M 63 1622 
Q 947 1872 1800 2228 
L 1800 3659 
L 2244 3659 
L 2244 2419 
Q 3594 3034 4850 3909 
L 5144 3534 
Q 3834 2656 2391 1997 
Q 2522 1872 2775 1872 
L 3975 1872 
Q 4350 1872 4425 2084 
Q 4506 2291 4550 2753 
Q 4756 2666 5025 2572 
Q 4931 2091 4888 1953 
Q 4756 1441 4094 1441 
L 2669 1441 
Q 2128 1441 1925 1794 
Q 1131 1459 300 1191 
Q 197 1419 63 1622 
z
M 5063 -809 
L 5063 -566 
L 850 -566 
L 850 1078 
L 1325 1078 
L 1325 -116 
L 2944 -116 
L 2944 1322 
L 3444 1322 
L 3444 -116 
L 5063 -116 
L 5063 1078 
L 5538 1078 
L 5538 -809 
L 5063 -809 
z
M 331 4672 
L 3009 4672 
Q 2894 4897 2750 5141 
L 3213 5359 
Q 3406 5041 3569 4672 
L 6075 4672 
L 6075 3559 
L 5569 3559 
L 5569 4222 
L 838 4222 
L 838 3559 
L 331 3559 
L 331 4672 
z
M 1063 3534 
L 1500 3366 
Q 1206 2684 863 2116 
Q 663 2216 406 2316 
Q 750 2809 1063 3534 
z
M 5075 3053 
L 5438 3322 
Q 5925 2791 6275 2322 
L 5863 2016 
Q 5531 2503 5075 3053 
z
M 2588 3847 
L 2913 4128 
Q 3331 3797 3656 3478 
L 3294 3141 
Q 2938 3528 2588 3847 
z
" transform="scale(0.015625)"/>
       <path id="MicrosoftYaHei-5ea6" d="M 1550 1216 
L 1550 1628 
L 5469 1628 
L 5469 1222 
Q 4903 613 4147 163 
Q 5050 -200 6263 -309 
L 6019 -797 
Q 4625 -603 3644 -109 
Q 2600 -619 1250 -866 
Q 1150 -666 994 -416 
Q 2231 -222 3166 166 
Q 2497 600 2066 1216 
L 1550 1216 
z
M 1363 3541 
L 2294 3541 
L 2294 4066 
L 2769 4066 
L 2769 3541 
L 4538 3541 
L 4538 4072 
L 5013 4072 
L 5013 3541 
L 6150 3541 
L 6150 3128 
L 5013 3128 
L 5013 1928 
L 4538 1928 
L 4538 2147 
L 2769 2147 
L 2769 1922 
L 2294 1922 
L 2294 3128 
L 1363 3128 
L 1363 3541 
z
M 3025 5172 
L 3481 5391 
Q 3694 5056 3909 4634 
L 6213 4634 
L 6213 4197 
L 1225 4197 
L 1225 2316 
Q 1225 178 394 -872 
Q 238 -666 38 -447 
Q 725 397 738 2347 
L 738 4634 
L 3331 4634 
Q 3188 4909 3025 5172 
z
M 2769 2547 
L 4538 2547 
L 4538 3128 
L 2769 3128 
L 2769 2547 
z
M 4819 1216 
L 2588 1216 
Q 3031 728 3656 391 
Q 4334 741 4819 1216 
z
" transform="scale(0.015625)"/>
      </defs>
      <use xlink:href="#MicrosoftYaHei-6982"/>
      <use xlink:href="#MicrosoftYaHei-7387" x="100"/>
      <use xlink:href="#MicrosoftYaHei-5bc6" x="200"/>
      <use xlink:href="#MicrosoftYaHei-5ea6" x="300"/>
     </g>
    </g>
   </g>
   <g id="line2d_11">
    <path d="M 133.470356 589.603365 
L 142.658059 589.053562 
L 149.804051 588.407464 
L 155.929186 587.643269 
L 161.033466 586.815578 
L 166.137746 585.773064 
L 171.242026 584.470508 
L 175.325449 583.206696 
L 179.408873 581.713934 
L 183.492297 579.959974 
L 187.575721 577.90996 
L 190.638288 576.155823 
L 193.700856 574.197697 
L 196.763424 572.018456 
L 199.825992 569.600489 
L 202.88856 566.925837 
L 205.951128 563.97634 
L 209.013695 560.733814 
L 212.076263 557.180254 
L 215.138831 553.298047 
L 218.201399 549.070219 
L 221.263967 544.480695 
L 224.326534 539.514578 
L 227.389102 534.158445 
L 230.45167 528.400651 
L 233.514238 522.231647 
L 236.576806 515.644294 
L 239.639374 508.634188 
L 243.722797 498.62788 
L 247.806221 487.874112 
L 251.889645 476.390752 
L 255.973069 464.208418 
L 260.056492 451.371302 
L 265.160772 434.4944 
L 270.265052 416.83242 
L 276.390187 394.858746 
L 297.828162 317.05729 
L 302.932442 299.89605 
L 307.015866 286.983345 
L 310.078434 277.877138 
L 313.141001 269.337165 
L 316.203569 261.42405 
L 319.266137 254.195029 
L 322.328705 247.703256 
L 324.370417 243.809115 
L 326.412129 240.277325 
L 328.45384 237.119814 
L 330.495552 234.347317 
L 332.537264 231.969311 
L 334.578976 229.993966 
L 336.620688 228.428097 
L 338.6624 227.277124 
L 340.704112 226.54504 
L 342.745824 226.23439 
L 344.787536 226.346255 
L 346.829247 226.880245 
L 348.870959 227.834503 
L 350.912671 229.205715 
L 352.954383 230.98913 
L 354.996095 233.178584 
L 357.037807 235.766541 
L 359.079519 238.744131 
L 361.121231 242.101203 
L 363.162942 245.826385 
L 365.204654 249.907143 
L 368.267222 256.664908 
L 371.32979 264.141667 
L 374.392358 272.282751 
L 377.454926 281.029648 
L 381.538349 293.527626 
L 385.621773 306.840212 
L 390.726053 324.386984 
L 396.851189 346.363777 
L 417.268307 420.62965 
L 422.372587 438.139303 
L 427.476867 454.830055 
L 431.560291 467.498937 
L 435.643714 479.49998 
L 439.727138 490.792653 
L 443.810562 501.349802 
L 447.893986 511.156769 
L 450.956553 518.01735 
L 454.019121 524.4564 
L 457.081689 530.479325 
L 460.144257 536.094151 
L 463.206825 541.311203 
L 466.269393 546.14279 
L 469.33196 550.602888 
L 472.394528 554.706845 
L 475.457096 558.471083 
L 478.519664 561.91283 
L 481.582232 565.049864 
L 484.644799 567.900278 
L 487.707367 570.482268 
L 490.769935 572.813943 
L 493.832503 574.913156 
L 496.895071 576.797358 
L 500.978495 579.00434 
L 505.061918 580.897465 
L 509.145342 582.512793 
L 513.228766 583.883854 
L 517.31219 585.041514 
L 522.416469 586.231106 
L 527.520749 587.180049 
L 533.645885 588.060705 
L 539.77102 588.718163 
L 546.917012 589.270553 
L 556.104715 589.737067 
L 567.334131 590.065196 
L 582.64697 590.275361 
L 609.189224 590.38074 
L 642.87747 590.398643 
L 642.87747 590.398643 
" clip-path="url(#p2da146c426)" style="fill: none; stroke: #1865a2; stroke-width: 3; stroke-linecap: square"/>
   </g>
   <g id="line2d_12">
    <path d="M 133.470356 590.398643 
L 192.68 590.283577 
L 210.034551 590.043228 
L 221.263967 589.695819 
L 230.45167 589.203407 
L 237.597662 588.621792 
L 243.722797 587.930965 
L 249.847933 587.007377 
L 254.952213 586.013914 
L 260.056492 584.77052 
L 264.139916 583.562255 
L 268.22334 582.133126 
L 272.306764 580.451594 
L 276.390187 578.48348 
L 279.452755 576.797358 
L 282.515323 574.913156 
L 285.577891 572.813943 
L 288.640459 570.482268 
L 291.703027 567.900278 
L 294.765594 565.049864 
L 297.828162 561.91283 
L 300.89073 558.471083 
L 303.953298 554.706845 
L 307.015866 550.602888 
L 310.078434 546.14279 
L 313.141001 541.311203 
L 316.203569 536.094151 
L 319.266137 530.479325 
L 322.328705 524.4564 
L 325.391273 518.01735 
L 328.45384 511.156769 
L 331.516408 503.872186 
L 335.599832 493.501674 
L 339.683256 482.390841 
L 343.76668 470.563627 
L 347.850103 458.057146 
L 351.933527 444.922409 
L 357.037807 427.721456 
L 363.162942 406.147749 
L 371.32979 376.374255 
L 383.580061 331.623949 
L 388.684341 313.752987 
L 392.767765 300.09184 
L 396.851189 287.167136 
L 399.913756 278.050452 
L 402.976324 269.498783 
L 406.038892 261.572815 
L 409.10146 254.329855 
L 412.164028 247.823144 
L 414.20574 243.918537 
L 416.247451 240.375914 
L 418.289163 237.207237 
L 420.330875 234.423273 
L 422.372587 232.033541 
L 424.414299 230.04625 
L 426.456011 228.468253 
L 428.497723 227.305013 
L 430.539435 226.560566 
L 432.581146 226.237498 
L 434.622858 226.336934 
L 436.66457 226.858528 
L 438.706282 227.800465 
L 440.747994 229.159475 
L 442.789706 230.930847 
L 444.831418 233.10846 
L 446.87313 235.684816 
L 448.914842 238.651085 
L 450.956553 241.997153 
L 452.998265 245.711682 
L 455.039977 249.782171 
L 458.102545 256.52532 
L 461.165113 263.988494 
L 464.227681 272.117102 
L 467.290248 280.852704 
L 471.373672 293.33755 
L 475.457096 306.639286 
L 480.561376 324.175773 
L 486.686511 346.145003 
L 508.124486 423.980622 
L 513.228766 441.348327 
L 518.333046 457.868397 
L 522.416469 470.384521 
L 526.499893 482.222027 
L 530.583317 493.343599 
L 534.666741 503.725112 
L 538.750164 513.354698 
L 541.812732 520.082623 
L 544.8753 526.390412 
L 547.937868 532.284327 
L 551.000436 537.77315 
L 554.063003 542.867862 
L 557.125571 547.581328 
L 560.188139 551.927988 
L 563.250707 555.923555 
L 566.313275 559.584734 
L 569.375843 562.928951 
L 572.43841 565.974109 
L 575.500978 568.738353 
L 578.563546 571.239873 
L 581.626114 573.496713 
L 584.688682 575.526615 
L 587.75125 577.346879 
L 591.834673 579.476642 
L 595.918097 581.301249 
L 600.001521 582.856183 
L 604.084945 584.174357 
L 608.168368 585.285995 
L 613.272648 586.426741 
L 618.376928 587.33534 
L 624.502063 588.17717 
L 631.648055 588.891829 
L 639.814903 589.448587 
L 642.87747 589.603365 
L 642.87747 589.603365 
" clip-path="url(#p2da146c426)" style="fill: none; stroke-dasharray: 11.1,4.8; stroke-dashoffset: 0; stroke: #b85a16; stroke-width: 3"/>
   </g>
   <g id="line2d_13">
    <path d="M 355.212276 590.4 
L 355.212276 79.2 
" clip-path="url(#p2da146c426)" style="fill: none; stroke-dasharray: 2,3.3; stroke-dashoffset: 0; stroke: #576779; stroke-width: 2"/>
   </g>
   <g id="line2d_14">
    <path d="M 415.142525 590.4 
L 415.142525 79.2 
" clip-path="url(#p2da146c426)" style="fill: none; stroke-dasharray: 12.8,3.2,2,3.2; stroke-dashoffset: 0; stroke: #576779; stroke-width: 2"/>
   </g>
   <g id="patch_3">
    <path d="M 108 590.4 
L 108 79.2 
" style="fill: none; stroke: #000000; stroke-width: 0.8; stroke-linejoin: miter; stroke-linecap: square"/>
   </g>
   <g id="patch_4">
    <path d="M 108 590.4 
L 668.347826 590.4 
" style="fill: none; stroke: #000000; stroke-width: 0.8; stroke-linejoin: miter; stroke-linecap: square"/>
   </g>
   <g id="text_13">
    <!-- （a）敏感性相同，判据不同 -->
    <g transform="translate(237.540163 73.2) scale(0.24 -0.24)">
     <defs>
      <path id="MicrosoftYaHei-61" d="M 628 3216 
Q 1144 3538 1819 3538 
Q 3069 3538 3069 2225 
L 3069 0 
L 2463 0 
L 2463 534 
L 2447 534 
Q 2088 -81 1388 -81 
Q 884 -81 587 191 
Q 291 463 291 925 
Q 291 1894 1438 2053 
L 2463 2197 
Q 2463 3044 1763 3044 
Q 1141 3044 628 2625 
L 628 3216 
z
M 1653 1625 
Q 1228 1569 1067 1412 
Q 906 1256 906 975 
Q 906 728 1081 572 
Q 1256 416 1544 416 
Q 1944 416 2203 697 
Q 2463 978 2463 1403 
L 2463 1734 
L 1653 1625 
z
" transform="scale(0.015625)"/>
      <path id="MicrosoftYaHei-654f" d="M 131 2272 
L 613 2272 
L 731 3684 
Q 572 3459 388 3259 
Q 238 3478 75 3634 
Q 763 4334 1056 5353 
L 1513 5272 
Q 1422 4984 1309 4722 
L 3550 4722 
L 3550 4322 
L 1125 4322 
Q 984 4053 819 3809 
L 3225 3809 
Q 3197 2963 3172 2272 
L 3663 2272 
L 3663 1872 
L 3159 1872 
Q 3131 1166 3106 659 
L 3588 659 
L 3588 259 
L 3088 259 
Q 3056 -684 2231 -684 
Q 1750 -684 1388 -672 
Q 1363 -416 1300 -178 
Q 1744 -222 2156 -222 
Q 2588 -222 2622 259 
L 444 259 
L 578 1872 
L 131 1872 
L 131 2272 
z
M 4306 5328 
L 4763 5253 
Q 4641 4706 4491 4209 
L 6263 4209 
L 6263 3784 
L 5922 3784 
Q 5806 2050 5159 853 
Q 5628 116 6331 -334 
Q 6169 -591 6038 -816 
Q 5347 -316 4878 397 
Q 4341 -375 3531 -878 
Q 3413 -728 3144 -478 
Q 4053 6 4606 863 
Q 4159 1738 3984 2884 
Q 3850 2594 3700 2328 
Q 3600 2497 3375 2728 
Q 4025 3841 4306 5328 
z
M 2697 1872 
L 1041 1872 
L 938 659 
L 2647 659 
Q 2675 1228 2697 1872 
z
M 1175 3409 
L 1075 2272 
L 2709 2272 
Q 2725 2816 2738 3409 
L 1175 3409 
z
M 5453 3784 
L 4350 3784 
Q 4322 3706 4297 3634 
Q 4434 2309 4884 1359 
Q 5363 2366 5453 3784 
z
M 1419 1559 
L 1781 1759 
Q 2056 1353 2269 972 
L 1881 766 
Q 1681 1172 1419 1559 
z
M 1506 3141 
L 1869 3347 
Q 2125 2959 2325 2597 
L 1944 2384 
Q 1725 2822 1506 3141 
z
" transform="scale(0.015625)"/>
      <path id="MicrosoftYaHei-611f" d="M 3531 1422 
Q 4013 1741 4388 2131 
Q 4022 2909 3944 4147 
L 1213 4147 
L 1213 3322 
Q 1213 1803 463 872 
Q 331 1134 138 1347 
Q 763 2034 763 3328 
L 763 4547 
L 3922 4547 
Q 3903 4928 3900 5284 
L 4363 5284 
Q 4363 4928 4378 4547 
L 6200 4547 
L 6200 4147 
L 4400 4147 
Q 4466 3184 4728 2531 
Q 5150 3088 5394 3772 
L 5819 3559 
Q 5456 2741 4947 2103 
Q 5059 1922 5194 1778 
Q 5344 1622 5475 1622 
Q 5594 1622 5669 1822 
Q 5763 2084 5856 2522 
Q 6019 2434 6319 2322 
Q 6175 1766 6069 1503 
Q 5888 1066 5538 1066 
Q 5250 1066 4925 1366 
Q 4756 1522 4616 1725 
Q 4278 1375 3888 1091 
Q 3738 1259 3531 1422 
z
M 1638 2891 
L 3563 2891 
L 3563 1541 
L 2063 1541 
L 2063 1366 
L 1638 1366 
L 1638 2891 
z
M 1713 997 
L 2188 997 
L 2188 134 
Q 2188 -253 2588 -253 
L 3713 -253 
Q 4194 -253 4263 109 
Q 4313 316 4375 778 
Q 4588 691 4869 591 
Q 4788 166 4706 -103 
Q 4556 -691 3813 -691 
L 2488 -691 
Q 1713 -691 1713 78 
L 1713 997 
z
M 1444 3697 
L 3719 3697 
L 3719 3322 
L 1444 3322 
L 1444 3697 
z
M 844 1028 
L 1288 853 
Q 969 47 594 -534 
Q 438 -441 175 -297 
Q 581 291 844 1028 
z
M 3138 1916 
L 3138 2516 
L 2063 2516 
L 2063 1916 
L 3138 1916 
z
M 5113 634 
L 5463 884 
Q 5863 422 6275 -166 
L 5863 -459 
Q 5563 34 5113 634 
z
M 2706 1072 
L 3044 1328 
Q 3456 891 3781 491 
L 3388 191 
Q 3050 678 2706 1072 
z
M 5656 4866 
L 5350 4559 
Q 5081 4809 4763 5066 
L 5038 5353 
Q 5363 5116 5656 4866 
z
" transform="scale(0.015625)"/>
      <path id="MicrosoftYaHei-6027" d="M 1963 -153 
L 3988 -153 
L 3988 1522 
L 2375 1522 
L 2375 1959 
L 3988 1959 
L 3988 3472 
L 2975 3472 
Q 2744 2878 2438 2291 
Q 2169 2509 2019 2578 
Q 2644 3709 2894 4891 
L 3388 4759 
Q 3281 4328 3138 3909 
L 3988 3909 
L 3988 5284 
L 4481 5284 
L 4481 3909 
L 6125 3909 
L 6125 3472 
L 4481 3472 
L 4481 1959 
L 6000 1959 
L 6000 1522 
L 4481 1522 
L 4481 -153 
L 6319 -153 
L 6319 -591 
L 1963 -591 
L 1963 -153 
z
M 988 5291 
L 1469 5291 
L 1469 4091 
L 1738 4241 
Q 2063 3734 2294 3291 
L 1906 3041 
Q 1688 3503 1469 3859 
L 1469 -872 
L 988 -872 
L 988 5291 
z
M 406 3878 
L 819 3784 
Q 706 3028 506 2178 
Q 338 2241 75 2297 
Q 263 2978 406 3878 
z
" transform="scale(0.015625)"/>
      <path id="MicrosoftYaHei-76f8" d="M 2738 4891 
L 6025 4891 
L 6025 -822 
L 5550 -822 
L 5550 -397 
L 3213 -397 
L 3213 -822 
L 2738 -822 
L 2738 4891 
z
M 94 1409 
Q 784 2372 1128 3622 
L 169 3622 
L 169 4041 
L 1138 4041 
L 1138 5284 
L 1594 5284 
L 1594 4041 
L 2506 4041 
L 2506 3622 
L 1594 3622 
L 1594 2534 
L 1844 2791 
Q 2275 2372 2638 1984 
L 2300 1653 
Q 1956 2059 1594 2444 
L 1594 -809 
L 1138 -809 
L 1138 2444 
Q 800 1516 319 866 
Q 225 1134 94 1409 
z
M 3213 28 
L 5550 28 
L 5550 1241 
L 3213 1241 
L 3213 28 
z
M 5550 4466 
L 3213 4466 
L 3213 3266 
L 5550 3266 
L 5550 4466 
z
M 3213 1653 
L 5550 1653 
L 5550 2853 
L 3213 2853 
L 3213 1653 
z
" transform="scale(0.015625)"/>
      <path id="MicrosoftYaHei-540c" d="M 1013 -772 
L 531 -772 
L 531 4959 
L 5856 4959 
L 5856 -47 
Q 5856 -741 5125 -741 
Q 4669 -741 4088 -716 
Q 4056 -497 4000 -216 
Q 4619 -272 5025 -272 
Q 5375 -272 5375 78 
L 5375 4497 
L 1013 4497 
L 1013 -772 
z
M 1875 2566 
L 4506 2566 
L 4506 597 
L 2338 597 
L 2338 272 
L 1875 272 
L 1875 2566 
z
M 4044 2116 
L 2338 2116 
L 2338 1047 
L 4044 1047 
L 4044 2116 
z
M 1363 3734 
L 5025 3734 
L 5025 3284 
L 1363 3284 
L 1363 3734 
z
" transform="scale(0.015625)"/>
      <path id="MicrosoftYaHei-ff0c" d="M 1931 775 
L 1403 -891 
L 966 -891 
L 1350 775 
L 1931 775 
z
" transform="scale(0.015625)"/>
      <path id="MicrosoftYaHei-5224" d="M 200 1803 
L 1622 1803 
Q 1700 2222 1709 2697 
L 331 2697 
L 331 3134 
L 1725 3134 
Q 1756 3959 1756 5259 
L 2244 5259 
Q 2238 4016 2219 3134 
L 3594 3134 
L 3594 2697 
L 2209 2697 
Q 2203 2225 2138 1803 
L 3700 1803 
L 3700 1366 
L 2050 1366 
Q 1716 -28 694 -872 
Q 513 -653 313 -472 
Q 1194 234 1519 1366 
L 200 1366 
L 200 1803 
z
M 5475 5284 
L 5963 5284 
L 5963 53 
Q 5963 -753 5169 -753 
Q 4856 -753 4275 -741 
Q 4244 -466 4188 -209 
Q 4669 -259 5019 -259 
Q 5475 -259 5475 228 
L 5475 5284 
z
M 4144 4584 
L 4625 4584 
L 4625 759 
L 4144 759 
L 4144 4584 
z
M 2525 3728 
Q 3000 4309 3313 4866 
L 3756 4591 
Q 3306 3928 2906 3434 
L 2525 3728 
z
M 269 4603 
L 656 4853 
Q 1075 4316 1444 3759 
L 1013 3466 
Q 606 4153 269 4603 
z
" transform="scale(0.015625)"/>
      <path id="MicrosoftYaHei-4e0d" d="M 225 4772 
L 6181 4772 
L 6181 4284 
L 3881 4284 
Q 3581 3766 3081 3053 
L 3444 3053 
L 3444 -866 
L 2906 -866 
L 2906 2859 
Q 1838 1541 388 609 
Q 231 834 38 1059 
Q 2006 2291 3213 4284 
L 225 4284 
L 225 4772 
z
M 4069 2859 
Q 5238 2147 6325 1409 
L 5969 916 
Q 4681 1872 3763 2434 
L 4069 2859 
z
" transform="scale(0.015625)"/>
     </defs>
     <use xlink:href="#MicrosoftYaHei-ff08"/>
     <use xlink:href="#MicrosoftYaHei-61" x="100"/>
     <use xlink:href="#MicrosoftYaHei-ff09" x="155.273438"/>
     <use xlink:href="#MicrosoftYaHei-654f" x="255.273438"/>
     <use xlink:href="#MicrosoftYaHei-611f" x="355.273438"/>
     <use xlink:href="#MicrosoftYaHei-6027" x="455.273438"/>
     <use xlink:href="#MicrosoftYaHei-76f8" x="555.273438"/>
     <use xlink:href="#MicrosoftYaHei-540c" x="655.273438"/>
     <use xlink:href="#MicrosoftYaHei-ff0c" x="755.273438"/>
     <use xlink:href="#MicrosoftYaHei-5224" x="855.273438"/>
     <use xlink:href="#MicrosoftYaHei-636e" x="955.273438"/>
     <use xlink:href="#MicrosoftYaHei-4e0d" x="1055.273438"/>
     <use xlink:href="#MicrosoftYaHei-540c" x="1155.273438"/>
    </g>
   </g>
   <g id="legend_1">
    <g id="patch_5">
     <path d="M 477.714076 198.061875 
L 656.447826 198.061875 
Q 659.847826 198.061875 659.847826 194.661875 
L 659.847826 91.1 
Q 659.847826 87.7 656.447826 87.7 
L 477.714076 87.7 
Q 474.314076 87.7 474.314076 91.1 
L 474.314076 194.661875 
Q 474.314076 198.061875 477.714076 198.061875 
z
" style="fill: #ffffff; opacity: 0.8; stroke: #cccccc; stroke-linejoin: miter"/>
    </g>
    <g id="line2d_15">
     <path d="M 481.114076 102.139375 
L 498.114076 102.139375 
L 515.114076 102.139375 
" style="fill: none; stroke: #1865a2; stroke-width: 3; stroke-linecap: square"/>
    </g>
    <g id="text_14">
     <!-- 无目标 N(0, 1) -->
     <g transform="translate(528.714076 108.089375) scale(0.17 -0.17)">
      <defs>
       <path id="MicrosoftYaHei-65e0" d="M 200 2878 
L 2650 2878 
Q 2781 3528 2806 4328 
L 675 4328 
L 675 4816 
L 5750 4816 
L 5750 4328 
L 3331 4328 
Q 3288 3528 3169 2878 
L 6225 2878 
L 6225 2391 
L 3063 2391 
Q 2588 278 450 -884 
Q 313 -672 113 -441 
Q 1975 491 2538 2391 
L 200 2391 
L 200 2878 
z
M 3400 1941 
L 3906 1941 
L 3906 297 
Q 3906 -197 4363 -197 
L 5219 -197 
Q 5644 -197 5700 172 
Q 5750 528 5775 1097 
Q 6013 1009 6300 916 
Q 6238 297 6188 -16 
Q 6106 -641 5300 -641 
L 4219 -641 
Q 3400 -641 3400 222 
L 3400 1941 
z
" transform="scale(0.015625)"/>
       <path id="MicrosoftYaHei-76ee" d="M 944 5016 
L 5469 5016 
L 5469 -772 
L 4938 -772 
L 4938 -303 
L 1475 -303 
L 1475 -772 
L 944 -772 
L 944 5016 
z
M 1475 1341 
L 1475 159 
L 4938 159 
L 4938 1341 
L 1475 1341 
z
M 1475 2947 
L 1475 1778 
L 4938 1778 
L 4938 2947 
L 1475 2947 
z
M 1475 4553 
L 1475 3384 
L 4938 3384 
L 4938 4553 
L 1475 4553 
z
" transform="scale(0.015625)"/>
       <path id="MicrosoftYaHei-20" transform="scale(0.015625)"/>
       <path id="MicrosoftYaHei-4e" d="M 4578 0 
L 3838 0 
L 1403 3766 
Q 1300 3925 1238 4081 
L 1219 4081 
Q 1244 3919 1244 3403 
L 1244 0 
L 625 0 
L 625 4841 
L 1409 4841 
L 3778 1141 
Q 3947 878 3978 806 
L 3991 806 
Q 3959 1013 3959 1513 
L 3959 4841 
L 4578 4841 
L 4578 0 
z
" transform="scale(0.015625)"/>
       <path id="MicrosoftYaHei-28" d="M 1531 -1100 
Q 478 100 478 1847 
Q 478 3594 1531 4841 
L 2072 4841 
Q 1016 3544 1016 1853 
Q 1016 166 2066 -1100 
L 1531 -1100 
z
" transform="scale(0.015625)"/>
       <path id="MicrosoftYaHei-2c" d="M 1109 778 
L 575 -888 
L 131 -888 
L 519 778 
L 1109 778 
z
" transform="scale(0.015625)"/>
       <path id="MicrosoftYaHei-29" d="M 78 -1100 
Q 1131 163 1131 1853 
Q 1131 3547 72 4841 
L 616 4841 
Q 1672 3603 1672 1847 
Q 1672 91 616 -1100 
L 78 -1100 
z
" transform="scale(0.015625)"/>
      </defs>
      <use xlink:href="#MicrosoftYaHei-65e0"/>
      <use xlink:href="#MicrosoftYaHei-76ee" x="100"/>
      <use xlink:href="#MicrosoftYaHei-6807" x="200"/>
      <use xlink:href="#MicrosoftYaHei-20" x="300"/>
      <use xlink:href="#MicrosoftYaHei-4e" x="329.589844"/>
      <use xlink:href="#MicrosoftYaHei-28" x="410.888672"/>
      <use xlink:href="#MicrosoftYaHei-30" x="444.287109"/>
      <use xlink:href="#MicrosoftYaHei-2c" x="502.929688"/>
      <use xlink:href="#MicrosoftYaHei-20" x="527.001953"/>
      <use xlink:href="#MicrosoftYaHei-31" x="556.591797"/>
      <use xlink:href="#MicrosoftYaHei-29" x="615.234375"/>
     </g>
    </g>
    <g id="line2d_16">
     <path d="M 481.114076 128.454844 
L 498.114076 128.454844 
L 515.114076 128.454844 
" style="fill: none; stroke-dasharray: 11.1,4.8; stroke-dashoffset: 0; stroke: #b85a16; stroke-width: 3"/>
    </g>
    <g id="text_15">
     <!-- 有目标 N(1.5, 1) -->
     <g transform="translate(528.714076 134.404844) scale(0.17 -0.17)">
      <defs>
       <path id="MicrosoftYaHei-6709" d="M 1856 -816 
L 1363 -816 
L 1363 2419 
Q 909 1891 363 1403 
Q 231 1622 63 1859 
Q 1269 2869 1947 4097 
L 238 4097 
L 238 4559 
L 2181 4559 
Q 2359 4950 2488 5359 
L 3006 5241 
Q 2881 4894 2731 4559 
L 6263 4559 
L 6263 4097 
L 2506 4097 
Q 2313 3728 2081 3378 
L 5506 3378 
L 5506 41 
Q 5506 -734 4750 -734 
Q 4419 -741 3744 -741 
Q 3713 -528 3650 -228 
Q 4225 -272 4575 -272 
Q 5006 -272 5006 153 
L 5006 597 
L 1856 597 
L 1856 -816 
z
M 1856 1022 
L 5006 1022 
L 5006 1772 
L 1856 1772 
L 1856 1022 
z
M 5006 2941 
L 1856 2941 
L 1856 2197 
L 5006 2197 
L 5006 2941 
z
" transform="scale(0.015625)"/>
      </defs>
      <use xlink:href="#MicrosoftYaHei-6709"/>
      <use xlink:href="#MicrosoftYaHei-76ee" x="100"/>
      <use xlink:href="#MicrosoftYaHei-6807" x="200"/>
      <use xlink:href="#MicrosoftYaHei-20" x="300"/>
      <use xlink:href="#MicrosoftYaHei-4e" x="329.589844"/>
      <use xlink:href="#MicrosoftYaHei-28" x="410.888672"/>
      <use xlink:href="#MicrosoftYaHei-31" x="444.287109"/>
      <use xlink:href="#MicrosoftYaHei-2e" x="502.929688"/>
      <use xlink:href="#MicrosoftYaHei-35" x="527.001953"/>
      <use xlink:href="#MicrosoftYaHei-2c" x="585.644531"/>
      <use xlink:href="#MicrosoftYaHei-20" x="609.716797"/>
      <use xlink:href="#MicrosoftYaHei-31" x="639.306641"/>
      <use xlink:href="#MicrosoftYaHei-29" x="697.949219"/>
     </g>
    </g>
    <g id="line2d_17">
     <path d="M 481.114076 154.770313 
L 498.114076 154.770313 
L 515.114076 154.770313 
" style="fill: none; stroke-dasharray: 2,3.3; stroke-dashoffset: 0; stroke: #576779; stroke-width: 2"/>
    </g>
    <g id="text_16">
     <!-- 判据 k = 0.2 -->
     <g transform="translate(528.714076 160.720313) scale(0.17 -0.17)">
      <defs>
       <path id="MicrosoftYaHei-6b" d="M 3484 0 
L 2650 0 
L 1172 1666 
L 1159 1666 
L 1159 0 
L 547 0 
L 547 5116 
L 1159 5116 
L 1159 1872 
L 1172 1872 
L 2575 3456 
L 3363 3456 
L 1800 1794 
L 3484 0 
z
" transform="scale(0.015625)"/>
       <path id="MicrosoftYaHei-3d" d="M 3972 2497 
L 788 2497 
L 788 2969 
L 3972 2969 
L 3972 2497 
z
M 3972 1053 
L 788 1053 
L 788 1525 
L 3972 1525 
L 3972 1053 
z
" transform="scale(0.015625)"/>
      </defs>
      <use xlink:href="#MicrosoftYaHei-5224"/>
      <use xlink:href="#MicrosoftYaHei-636e" x="100"/>
      <use xlink:href="#MicrosoftYaHei-20" x="200"/>
      <use xlink:href="#MicrosoftYaHei-6b" x="229.589844"/>
      <use xlink:href="#MicrosoftYaHei-20" x="284.033203"/>
      <use xlink:href="#MicrosoftYaHei-3d" x="313.623047"/>
      <use xlink:href="#MicrosoftYaHei-20" x="387.792969"/>
      <use xlink:href="#MicrosoftYaHei-30" x="417.382812"/>
      <use xlink:href="#MicrosoftYaHei-2e" x="476.025391"/>
      <use xlink:href="#MicrosoftYaHei-32" x="500.097656"/>
     </g>
    </g>
    <g id="line2d_18">
     <path d="M 481.114076 181.085781 
L 498.114076 181.085781 
L 515.114076 181.085781 
" style="fill: none; stroke-dasharray: 12.8,3.2,2,3.2; stroke-dashoffset: 0; stroke: #576779; stroke-width: 2"/>
    </g>
    <g id="text_17">
     <!-- 判据 k = 1.2 -->
     <g transform="translate(528.714076 187.035781) scale(0.17 -0.17)">
      <use xlink:href="#MicrosoftYaHei-5224"/>
      <use xlink:href="#MicrosoftYaHei-636e" x="100"/>
      <use xlink:href="#MicrosoftYaHei-20" x="200"/>
      <use xlink:href="#MicrosoftYaHei-6b" x="229.589844"/>
      <use xlink:href="#MicrosoftYaHei-20" x="284.033203"/>
      <use xlink:href="#MicrosoftYaHei-3d" x="313.623047"/>
      <use xlink:href="#MicrosoftYaHei-20" x="387.792969"/>
      <use xlink:href="#MicrosoftYaHei-31" x="417.382812"/>
      <use xlink:href="#MicrosoftYaHei-2e" x="476.025391"/>
      <use xlink:href="#MicrosoftYaHei-32" x="500.097656"/>
     </g>
    </g>
   </g>
  </g>
  <g id="axes_2">
   <g id="patch_6">
    <path d="M 836.452174 590.4 
L 1396.8 590.4 
L 1396.8 79.2 
L 836.452174 79.2 
z
" style="fill: #ffffff"/>
   </g>
   <g id="matplotlib.axis_3">
    <g id="xtick_5">
     <g id="line2d_19">
      <g>
       <use xlink:href="#m227df6105f" x="836.452174" y="590.4" style="stroke: #000000; stroke-width: 0.8"/>
      </g>
     </g>
     <g id="text_18">
      <!-- 0.0 -->
      <g transform="translate(822.316236 613.3875) scale(0.2 -0.2)">
       <use xlink:href="#MicrosoftYaHei-30"/>
       <use xlink:href="#MicrosoftYaHei-2e" x="58.642578"/>
       <use xlink:href="#MicrosoftYaHei-30" x="82.714844"/>
      </g>
     </g>
    </g>
    <g id="xtick_6">
     <g id="line2d_20">
      <g>
       <use xlink:href="#m227df6105f" x="948.521739" y="590.4" style="stroke: #000000; stroke-width: 0.8"/>
      </g>
     </g>
     <g id="text_19">
      <!-- 0.2 -->
      <g transform="translate(934.385802 613.3875) scale(0.2 -0.2)">
       <use xlink:href="#MicrosoftYaHei-30"/>
       <use xlink:href="#MicrosoftYaHei-2e" x="58.642578"/>
       <use xlink:href="#MicrosoftYaHei-32" x="82.714844"/>
      </g>
     </g>
    </g>
    <g id="xtick_7">
     <g id="line2d_21">
      <g>
       <use xlink:href="#m227df6105f" x="1060.591304" y="590.4" style="stroke: #000000; stroke-width: 0.8"/>
      </g>
     </g>
     <g id="text_20">
      <!-- 0.4 -->
      <g transform="translate(1046.455367 613.3875) scale(0.2 -0.2)">
       <use xlink:href="#MicrosoftYaHei-30"/>
       <use xlink:href="#MicrosoftYaHei-2e" x="58.642578"/>
       <use xlink:href="#MicrosoftYaHei-34" x="82.714844"/>
      </g>
     </g>
    </g>
    <g id="xtick_8">
     <g id="line2d_22">
      <g>
       <use xlink:href="#m227df6105f" x="1172.66087" y="590.4" style="stroke: #000000; stroke-width: 0.8"/>
      </g>
     </g>
     <g id="text_21">
      <!-- 0.6 -->
      <g transform="translate(1158.524932 613.3875) scale(0.2 -0.2)">
       <defs>
        <path id="MicrosoftYaHei-36" d="M 3181 4219 
Q 2803 4413 2391 4413 
Q 1763 4413 1381 3866 
Q 1000 3319 994 2372 
L 1009 2372 
Q 1353 3038 2106 3038 
Q 2734 3038 3109 2628 
Q 3484 2219 3484 1541 
Q 3484 831 3051 375 
Q 2619 -81 1947 -81 
Q 1209 -81 789 495 
Q 369 1072 369 2131 
Q 369 3413 920 4167 
Q 1472 4922 2372 4922 
Q 2888 4922 3181 4781 
L 3181 4219 
z
M 1031 1584 
Q 1031 1106 1286 765 
Q 1541 425 1963 425 
Q 2363 425 2613 719 
Q 2863 1013 2863 1475 
Q 2863 1975 2627 2253 
Q 2391 2531 1956 2531 
Q 1544 2531 1287 2250 
Q 1031 1969 1031 1584 
z
" transform="scale(0.015625)"/>
       </defs>
       <use xlink:href="#MicrosoftYaHei-30"/>
       <use xlink:href="#MicrosoftYaHei-2e" x="58.642578"/>
       <use xlink:href="#MicrosoftYaHei-36" x="82.714844"/>
      </g>
     </g>
    </g>
    <g id="xtick_9">
     <g id="line2d_23">
      <g>
       <use xlink:href="#m227df6105f" x="1284.730435" y="590.4" style="stroke: #000000; stroke-width: 0.8"/>
      </g>
     </g>
     <g id="text_22">
      <!-- 0.8 -->
      <g transform="translate(1270.594497 613.3875) scale(0.2 -0.2)">
       <defs>
        <path id="MicrosoftYaHei-38" d="M 306 1350 
Q 306 1769 556 2122 
Q 806 2475 1200 2625 
Q 884 2803 700 3081 
Q 516 3359 516 3684 
Q 516 4028 692 4312 
Q 869 4597 1183 4759 
Q 1497 4922 1875 4922 
Q 2256 4922 2572 4761 
Q 2888 4600 3063 4315 
Q 3238 4031 3238 3684 
Q 3238 3366 3058 3086 
Q 2878 2806 2559 2625 
Q 2953 2472 3200 2119 
Q 3447 1766 3447 1350 
Q 3447 938 3250 611 
Q 3053 284 2690 103 
Q 2328 -78 1875 -78 
Q 1425 -78 1065 103 
Q 706 284 506 612 
Q 306 941 306 1350 
z
M 906 1378 
Q 906 947 1172 687 
Q 1438 428 1878 428 
Q 2309 428 2582 692 
Q 2856 956 2856 1378 
Q 2856 1778 2579 2051 
Q 2303 2325 1878 2325 
Q 1456 2325 1181 2058 
Q 906 1791 906 1378 
z
M 1081 3634 
Q 1081 3309 1312 3076 
Q 1544 2844 1878 2844 
Q 2206 2844 2445 3078 
Q 2684 3313 2684 3634 
Q 2684 3963 2454 4191 
Q 2225 4419 1878 4419 
Q 1534 4419 1307 4195 
Q 1081 3972 1081 3634 
z
" transform="scale(0.015625)"/>
       </defs>
       <use xlink:href="#MicrosoftYaHei-30"/>
       <use xlink:href="#MicrosoftYaHei-2e" x="58.642578"/>
       <use xlink:href="#MicrosoftYaHei-38" x="82.714844"/>
      </g>
     </g>
    </g>
    <g id="xtick_10">
     <g id="line2d_24">
      <g>
       <use xlink:href="#m227df6105f" x="1396.8" y="590.4" style="stroke: #000000; stroke-width: 0.8"/>
      </g>
     </g>
     <g id="text_23">
      <!-- 1.0 -->
      <g transform="translate(1382.664062 613.3875) scale(0.2 -0.2)">
       <use xlink:href="#MicrosoftYaHei-31"/>
       <use xlink:href="#MicrosoftYaHei-2e" x="58.642578"/>
       <use xlink:href="#MicrosoftYaHei-30" x="82.714844"/>
      </g>
     </g>
    </g>
    <g id="text_24">
     <!-- 虚报率 F -->
     <g transform="translate(1074.527024 639.945625) scale(0.22 -0.22)">
      <defs>
       <path id="MicrosoftYaHei-865a" d="M 1194 3622 
L 1194 2128 
Q 1194 128 381 -822 
Q 219 -628 25 -422 
Q 706 409 706 2047 
L 706 4047 
L 2806 4047 
L 2806 5341 
L 3306 5341 
L 3306 4853 
L 5831 4853 
L 5831 4441 
L 3306 4441 
L 3306 4047 
L 6156 4047 
L 6113 3034 
Q 5869 3053 5638 3053 
L 5681 3622 
L 1194 3622 
z
M 1075 -197 
L 2681 -197 
L 2681 1641 
L 3169 1641 
L 3169 -197 
L 3956 -197 
L 3956 1653 
L 4444 1653 
L 4444 -197 
L 6200 -197 
L 6200 -622 
L 1075 -622 
L 1075 -197 
z
M 1356 3022 
L 2725 3103 
L 2725 3522 
L 3188 3522 
L 3188 3128 
L 5063 3241 
L 5088 2834 
L 3188 2725 
L 3188 2566 
Q 3188 2284 3563 2284 
L 4819 2284 
Q 5244 2284 5306 2578 
Q 5350 2753 5381 3022 
Q 5588 2934 5831 2853 
Q 5775 2572 5719 2391 
Q 5588 1872 4888 1872 
L 3475 1872 
Q 2725 1872 2725 2528 
L 2725 2697 
L 1381 2622 
L 1356 3022 
z
M 4638 484 
Q 5038 953 5388 1528 
L 5813 1278 
Q 5406 691 5006 203 
L 4638 484 
z
M 1363 1253 
L 1738 1491 
Q 2113 1009 2469 453 
L 2050 184 
Q 1700 772 1363 1253 
z
" transform="scale(0.015625)"/>
       <path id="MicrosoftYaHei-62a5" d="M 2469 4984 
L 5925 4984 
Q 5894 4347 5869 4022 
Q 5825 3247 4956 3247 
Q 4594 3247 3900 3259 
Q 3856 3497 3800 3759 
Q 4488 3697 4900 3697 
Q 5369 3697 5400 4078 
Q 5419 4278 5425 4547 
L 2956 4547 
L 2956 2759 
L 5963 2759 
L 5963 2328 
Q 5659 1209 4947 441 
Q 5519 -25 6325 -303 
Q 6106 -578 5963 -766 
Q 5163 -381 4591 109 
Q 4006 -375 3244 -816 
Q 3131 -628 2969 -391 
Q 3706 9 4241 447 
Q 3597 1169 3334 2322 
L 2956 2322 
L 2956 -859 
L 2469 -859 
L 2469 4984 
z
M 94 1997 
Q 566 2128 1006 2256 
L 1006 3609 
L 175 3609 
L 175 4041 
L 1006 4041 
L 1006 5259 
L 1488 5259 
L 1488 4041 
L 2231 4041 
L 2231 3609 
L 1488 3609 
L 1488 2403 
Q 1866 2522 2219 2641 
Q 2219 2341 2231 2153 
Q 1869 2038 1488 1913 
L 1488 -66 
Q 1488 -741 881 -753 
Q 631 -759 263 -753 
Q 225 -491 181 -222 
Q 550 -259 738 -259 
Q 1006 -259 1006 47 
L 1006 1756 
Q 591 1622 156 1478 
L 94 1997 
z
M 5456 2322 
L 3775 2322 
Q 3988 1409 4591 766 
Q 5213 1419 5456 2322 
z
" transform="scale(0.015625)"/>
       <path id="MicrosoftYaHei-46" d="M 3119 4284 
L 1250 4284 
L 1250 2666 
L 2981 2666 
L 2981 2116 
L 1250 2116 
L 1250 0 
L 625 0 
L 625 4841 
L 3119 4841 
L 3119 4284 
z
" transform="scale(0.015625)"/>
      </defs>
      <use xlink:href="#MicrosoftYaHei-865a"/>
      <use xlink:href="#MicrosoftYaHei-62a5" x="100"/>
      <use xlink:href="#MicrosoftYaHei-7387" x="200"/>
      <use xlink:href="#MicrosoftYaHei-20" x="300"/>
      <use xlink:href="#MicrosoftYaHei-46" x="329.589844"/>
     </g>
    </g>
   </g>
   <g id="matplotlib.axis_4">
    <g id="ytick_7">
     <g id="line2d_25">
      <g>
       <use xlink:href="#m95f61aae21" x="836.452174" y="590.4" style="stroke: #000000; stroke-width: 0.8"/>
      </g>
     </g>
     <g id="text_25">
      <!-- 0.0 -->
      <g transform="translate(801.180299 598.39375) scale(0.2 -0.2)">
       <use xlink:href="#MicrosoftYaHei-30"/>
       <use xlink:href="#MicrosoftYaHei-2e" x="58.642578"/>
       <use xlink:href="#MicrosoftYaHei-30" x="82.714844"/>
      </g>
     </g>
    </g>
    <g id="ytick_8">
     <g id="line2d_26">
      <g>
       <use xlink:href="#m95f61aae21" x="836.452174" y="491.137864" style="stroke: #000000; stroke-width: 0.8"/>
      </g>
     </g>
     <g id="text_26">
      <!-- 0.2 -->
      <g transform="translate(801.180299 499.131614) scale(0.2 -0.2)">
       <use xlink:href="#MicrosoftYaHei-30"/>
       <use xlink:href="#MicrosoftYaHei-2e" x="58.642578"/>
       <use xlink:href="#MicrosoftYaHei-32" x="82.714844"/>
      </g>
     </g>
    </g>
    <g id="ytick_9">
     <g id="line2d_27">
      <g>
       <use xlink:href="#m95f61aae21" x="836.452174" y="391.875728" style="stroke: #000000; stroke-width: 0.8"/>
      </g>
     </g>
     <g id="text_27">
      <!-- 0.4 -->
      <g transform="translate(801.180299 399.869478) scale(0.2 -0.2)">
       <use xlink:href="#MicrosoftYaHei-30"/>
       <use xlink:href="#MicrosoftYaHei-2e" x="58.642578"/>
       <use xlink:href="#MicrosoftYaHei-34" x="82.714844"/>
      </g>
     </g>
    </g>
    <g id="ytick_10">
     <g id="line2d_28">
      <g>
       <use xlink:href="#m95f61aae21" x="836.452174" y="292.613592" style="stroke: #000000; stroke-width: 0.8"/>
      </g>
     </g>
     <g id="text_28">
      <!-- 0.6 -->
      <g transform="translate(801.180299 300.607342) scale(0.2 -0.2)">
       <use xlink:href="#MicrosoftYaHei-30"/>
       <use xlink:href="#MicrosoftYaHei-2e" x="58.642578"/>
       <use xlink:href="#MicrosoftYaHei-36" x="82.714844"/>
      </g>
     </g>
    </g>
    <g id="ytick_11">
     <g id="line2d_29">
      <g>
       <use xlink:href="#m95f61aae21" x="836.452174" y="193.351456" style="stroke: #000000; stroke-width: 0.8"/>
      </g>
     </g>
     <g id="text_29">
      <!-- 0.8 -->
      <g transform="translate(801.180299 201.345206) scale(0.2 -0.2)">
       <use xlink:href="#MicrosoftYaHei-30"/>
       <use xlink:href="#MicrosoftYaHei-2e" x="58.642578"/>
       <use xlink:href="#MicrosoftYaHei-38" x="82.714844"/>
      </g>
     </g>
    </g>
    <g id="ytick_12">
     <g id="line2d_30">
      <g>
       <use xlink:href="#m95f61aae21" x="836.452174" y="94.08932" style="stroke: #000000; stroke-width: 0.8"/>
      </g>
     </g>
     <g id="text_30">
      <!-- 1.0 -->
      <g transform="translate(801.180299 102.08307) scale(0.2 -0.2)">
       <use xlink:href="#MicrosoftYaHei-31"/>
       <use xlink:href="#MicrosoftYaHei-2e" x="58.642578"/>
       <use xlink:href="#MicrosoftYaHei-30" x="82.714844"/>
      </g>
     </g>
    </g>
    <g id="text_31">
     <!-- 命中率 H -->
     <g transform="translate(791.711236 379.563125) rotate(-90) scale(0.22 -0.22)">
      <defs>
       <path id="MicrosoftYaHei-547d" d="M 731 2416 
L 2738 2416 
L 2738 -253 
L 2281 -253 
L 2281 153 
L 1188 153 
L 1188 -316 
L 731 -316 
L 731 2416 
z
M 3444 2484 
L 5706 2484 
L 5706 641 
Q 5706 -97 5006 -103 
Q 4681 -109 4269 -97 
Q 4244 134 4194 422 
Q 4613 372 4850 372 
Q 5250 372 5250 791 
L 5250 2047 
L 3906 2047 
L 3906 -884 
L 3444 -884 
L 3444 2484 
z
M 3688 5291 
L 3563 5153 
Q 4606 3941 6313 3409 
Q 6125 3141 6006 2922 
Q 4294 3666 3244 4834 
Q 2288 3747 363 2834 
Q 238 3066 88 3272 
Q 1975 4047 3000 5291 
L 3688 5291 
z
M 2281 1978 
L 1188 1978 
L 1188 591 
L 2281 591 
L 2281 1978 
z
M 1719 3509 
L 4706 3509 
L 4706 3072 
L 1719 3072 
L 1719 3509 
z
" transform="scale(0.015625)"/>
       <path id="MicrosoftYaHei-4e2d" d="M 525 3972 
L 2931 3972 
L 2931 5334 
L 3469 5334 
L 3469 3972 
L 5900 3972 
L 5900 1122 
L 5388 1122 
L 5388 1459 
L 3469 1459 
L 3469 -866 
L 2931 -866 
L 2931 1459 
L 1038 1459 
L 1038 1122 
L 525 1122 
L 525 3972 
z
M 5388 3509 
L 3469 3509 
L 3469 1922 
L 5388 1922 
L 5388 3509 
z
M 1038 1922 
L 2931 1922 
L 2931 3509 
L 1038 3509 
L 1038 1922 
z
" transform="scale(0.015625)"/>
       <path id="MicrosoftYaHei-48" d="M 4325 0 
L 3700 0 
L 3700 2181 
L 1250 2181 
L 1250 0 
L 625 0 
L 625 4841 
L 1250 4841 
L 1250 2738 
L 3700 2738 
L 3700 4841 
L 4325 4841 
L 4325 0 
z
" transform="scale(0.015625)"/>
      </defs>
      <use xlink:href="#MicrosoftYaHei-547d"/>
      <use xlink:href="#MicrosoftYaHei-4e2d" x="100"/>
      <use xlink:href="#MicrosoftYaHei-7387" x="200"/>
      <use xlink:href="#MicrosoftYaHei-20" x="300"/>
      <use xlink:href="#MicrosoftYaHei-48" x="329.589844"/>
     </g>
    </g>
   </g>
   <g id="line2d_31">
    <path d="M 1396.799839 94.08932 
L 1384.587918 94.197207 
L 1366.662088 94.554818 
L 1348.867468 95.112003 
L 1329.711246 95.936298 
L 1312.175689 96.903234 
L 1295.415831 98.028279 
L 1276.716406 99.531294 
L 1260.408415 101.071314 
L 1242.973149 102.973136 
L 1229.212289 104.674853 
L 1214.918347 106.644421 
L 1200.147718 108.912172 
L 1184.963705 111.509702 
L 1169.435735 114.469526 
L 1158.92933 116.660322 
L 1148.326299 119.036636 
L 1137.650473 121.608221 
L 1126.926183 124.384697 
L 1116.178098 127.375461 
L 1105.431049 130.589612 
L 1094.70986 134.035853 
L 1084.039177 137.72241 
L 1073.443295 141.656928 
L 1062.945998 145.846385 
L 1052.570393 150.296995 
L 1042.338759 155.014115 
L 1032.272407 160.002154 
L 1022.391547 165.264487 
L 1012.715165 170.803373 
L 1003.260922 176.619877 
L 994.045056 182.713803 
L 985.08231 189.083635 
L 976.385869 195.726483 
L 967.967313 202.638044 
L 959.836589 209.812576 
L 952.001996 217.242881 
L 944.47019 224.920299 
L 937.246194 232.834723 
L 930.333436 240.974623 
L 923.733788 249.327081 
L 917.447623 257.877849 
L 911.473882 266.611414 
L 905.810152 275.511075 
L 900.452751 284.559043 
L 895.396816 293.736537 
L 890.636406 303.023908 
L 886.164603 312.400758 
L 881.973613 321.84608 
L 878.054875 331.338395 
L 874.399169 340.855899 
L 870.996718 350.376613 
L 867.837292 359.878538 
L 864.910311 369.339802 
L 862.204938 378.738817 
L 859.71017 388.054423 
L 857.414927 397.26603 
L 854.321955 410.845178 
L 851.615997 424.082343 
L 849.260911 436.919181 
L 847.221838 449.303202 
L 845.465534 461.188385 
L 843.509746 476.192791 
L 841.932572 490.169088 
L 840.400383 506.120664 
L 839.259419 520.343901 
L 838.284309 535.141349 
L 837.45891 551.190986 
L 836.870024 567.155506 
L 836.523582 582.71186 
L 836.452174 590.399991 
L 836.452174 590.399991 
" clip-path="url(#p79682b53c6)" style="fill: none; stroke: #1865a2; stroke-width: 3; stroke-linecap: square"/>
   </g>
   <g id="line2d_32">
    <path d="M 836.452174 590.4 
L 1396.8 94.08932 
" clip-path="url(#p79682b53c6)" style="fill: none; stroke-dasharray: 1.5,2.475; stroke-dashoffset: 0; stroke: #576779; stroke-width: 1.5"/>
   </g>
   <g id="line2d_33">
    <defs>
     <path id="ma51789fe7c" d="M 0 6 
C 1.591219 6 3.117479 5.367802 4.242641 4.242641 
C 5.367802 3.117479 6 1.591219 6 0 
C 6 -1.591219 5.367802 -3.117479 4.242641 -4.242641 
C 3.117479 -5.367802 1.591219 -6 0 -6 
C -1.591219 -6 -3.117479 -5.367802 -4.242641 -4.242641 
C -5.367802 -3.117479 -6 -1.591219 -6 0 
C -6 1.591219 -5.367802 3.117479 -4.242641 4.242641 
C -3.117479 5.367802 -1.591219 6 0 6 
z
" style="stroke: #1865a2"/>
    </defs>
    <g clip-path="url(#p79682b53c6)">
     <use xlink:href="#ma51789fe7c" x="1072.213081" y="142.132435" style="fill: #1865a2; stroke: #1865a2"/>
    </g>
   </g>
   <g id="line2d_34">
    <defs>
     <path id="me345e1a9fc" d="M -6 6 
L 6 6 
L 6 -6 
L -6 -6 
z
" style="stroke: #b85a16; stroke-linejoin: miter"/>
    </defs>
    <g clip-path="url(#p79682b53c6)">
     <use xlink:href="#me345e1a9fc" x="900.931213" y="283.723962" style="fill: #b85a16; stroke: #b85a16; stroke-linejoin: miter"/>
    </g>
   </g>
   <g id="patch_7">
    <path d="M 836.452174 590.4 
L 836.452174 79.2 
" style="fill: none; stroke: #000000; stroke-width: 0.8; stroke-linejoin: miter; stroke-linecap: square"/>
   </g>
   <g id="patch_8">
    <path d="M 836.452174 590.4 
L 1396.8 590.4 
" style="fill: none; stroke: #000000; stroke-width: 0.8; stroke-linejoin: miter; stroke-linecap: square"/>
   </g>
   <g id="text_32">
    <!-- k = 0.2 -->
    <g transform="translate(1090.213081 158.65006) scale(0.18 -0.18)">
     <use xlink:href="#MicrosoftYaHei-6b"/>
     <use xlink:href="#MicrosoftYaHei-20" x="54.443359"/>
     <use xlink:href="#MicrosoftYaHei-3d" x="84.033203"/>
     <use xlink:href="#MicrosoftYaHei-20" x="158.203125"/>
     <use xlink:href="#MicrosoftYaHei-30" x="187.792969"/>
     <use xlink:href="#MicrosoftYaHei-2e" x="246.435547"/>
     <use xlink:href="#MicrosoftYaHei-32" x="270.507812"/>
    </g>
    <!-- H = 0.903 -->
    <g transform="translate(1090.213081 180.391247) scale(0.18 -0.18)">
     <defs>
      <path id="MicrosoftYaHei-39" d="M 578 656 
Q 978 425 1441 425 
Q 2091 425 2448 937 
Q 2806 1450 2806 2394 
Q 2800 2388 2794 2394 
Q 2475 1788 1722 1788 
Q 1113 1788 713 2206 
Q 313 2625 313 3294 
Q 313 4006 750 4464 
Q 1188 4922 1884 4922 
Q 2606 4922 3012 4355 
Q 3419 3788 3419 2703 
Q 3419 1363 2894 641 
Q 2369 -81 1441 -81 
Q 931 -81 578 84 
L 578 656 
z
M 931 3372 
Q 931 2884 1181 2598 
Q 1431 2313 1872 2313 
Q 2253 2313 2512 2573 
Q 2772 2834 2772 3206 
Q 2772 3728 2514 4070 
Q 2256 4413 1834 4413 
Q 1444 4413 1187 4116 
Q 931 3819 931 3372 
z
" transform="scale(0.015625)"/>
     </defs>
     <use xlink:href="#MicrosoftYaHei-48"/>
     <use xlink:href="#MicrosoftYaHei-20" x="77.34375"/>
     <use xlink:href="#MicrosoftYaHei-3d" x="106.933594"/>
     <use xlink:href="#MicrosoftYaHei-20" x="181.103516"/>
     <use xlink:href="#MicrosoftYaHei-30" x="210.693359"/>
     <use xlink:href="#MicrosoftYaHei-2e" x="269.335938"/>
     <use xlink:href="#MicrosoftYaHei-39" x="293.408203"/>
     <use xlink:href="#MicrosoftYaHei-30" x="352.050781"/>
     <use xlink:href="#MicrosoftYaHei-33" x="410.693359"/>
    </g>
    <!-- F = 0.421 -->
    <g transform="translate(1090.213081 202.132435) scale(0.18 -0.18)">
     <use xlink:href="#MicrosoftYaHei-46"/>
     <use xlink:href="#MicrosoftYaHei-20" x="53.125"/>
     <use xlink:href="#MicrosoftYaHei-3d" x="82.714844"/>
     <use xlink:href="#MicrosoftYaHei-20" x="156.884766"/>
     <use xlink:href="#MicrosoftYaHei-30" x="186.474609"/>
     <use xlink:href="#MicrosoftYaHei-2e" x="245.117188"/>
     <use xlink:href="#MicrosoftYaHei-34" x="269.189453"/>
     <use xlink:href="#MicrosoftYaHei-32" x="327.832031"/>
     <use xlink:href="#MicrosoftYaHei-31" x="386.474609"/>
    </g>
   </g>
   <g id="text_33">
    <!-- k = 1.2 -->
    <g transform="translate(918.931213 255.241587) scale(0.18 -0.18)">
     <use xlink:href="#MicrosoftYaHei-6b"/>
     <use xlink:href="#MicrosoftYaHei-20" x="54.443359"/>
     <use xlink:href="#MicrosoftYaHei-3d" x="84.033203"/>
     <use xlink:href="#MicrosoftYaHei-20" x="158.203125"/>
     <use xlink:href="#MicrosoftYaHei-31" x="187.792969"/>
     <use xlink:href="#MicrosoftYaHei-2e" x="246.435547"/>
     <use xlink:href="#MicrosoftYaHei-32" x="270.507812"/>
    </g>
    <!-- H = 0.618 -->
    <g transform="translate(918.931213 276.982775) scale(0.18 -0.18)">
     <use xlink:href="#MicrosoftYaHei-48"/>
     <use xlink:href="#MicrosoftYaHei-20" x="77.34375"/>
     <use xlink:href="#MicrosoftYaHei-3d" x="106.933594"/>
     <use xlink:href="#MicrosoftYaHei-20" x="181.103516"/>
     <use xlink:href="#MicrosoftYaHei-30" x="210.693359"/>
     <use xlink:href="#MicrosoftYaHei-2e" x="269.335938"/>
     <use xlink:href="#MicrosoftYaHei-36" x="293.408203"/>
     <use xlink:href="#MicrosoftYaHei-31" x="352.050781"/>
     <use xlink:href="#MicrosoftYaHei-38" x="410.693359"/>
    </g>
    <!-- F = 0.115 -->
    <g transform="translate(918.931213 298.723962) scale(0.18 -0.18)">
     <use xlink:href="#MicrosoftYaHei-46"/>
     <use xlink:href="#MicrosoftYaHei-20" x="53.125"/>
     <use xlink:href="#MicrosoftYaHei-3d" x="82.714844"/>
     <use xlink:href="#MicrosoftYaHei-20" x="156.884766"/>
     <use xlink:href="#MicrosoftYaHei-30" x="186.474609"/>
     <use xlink:href="#MicrosoftYaHei-2e" x="245.117188"/>
     <use xlink:href="#MicrosoftYaHei-31" x="269.189453"/>
     <use xlink:href="#MicrosoftYaHei-31" x="327.832031"/>
     <use xlink:href="#MicrosoftYaHei-35" x="386.474609"/>
    </g>
   </g>
   <g id="text_34">
    <!-- （b）接收者操作特征曲线（ROC） -->
    <g transform="translate(927.455462 73.2) scale(0.24 -0.24)">
     <defs>
      <path id="MicrosoftYaHei-62" d="M 1159 488 
L 1159 0 
L 547 0 
L 547 5116 
L 1159 5116 
L 1159 2859 
L 1172 2859 
Q 1578 3538 2359 3538 
Q 3009 3538 3392 3080 
Q 3775 2622 3775 1828 
Q 3775 953 3345 436 
Q 2916 -81 2200 -81 
Q 1525 -81 1172 488 
L 1159 488 
z
M 1156 1422 
Q 1156 1003 1428 714 
Q 1700 425 2109 425 
Q 2597 425 2872 800 
Q 3147 1175 3147 1838 
Q 3147 2384 2890 2707 
Q 2634 3031 2191 3031 
Q 1741 3031 1448 2709 
Q 1156 2388 1156 1891 
L 1156 1422 
z
" transform="scale(0.015625)"/>
      <path id="MicrosoftYaHei-63a5" d="M 1800 -366 
Q 3019 -188 3784 222 
Q 3200 484 2531 772 
Q 2800 1119 3028 1466 
L 2000 1466 
L 2000 1884 
L 3291 1884 
Q 3491 2222 3656 2559 
L 4119 2366 
Q 3969 2116 3822 1884 
L 6225 1884 
L 6225 1466 
L 5403 1466 
Q 5156 778 4672 306 
Q 5469 -25 6219 -353 
L 5944 -816 
Q 5241 -444 4288 -3 
Q 3450 -572 2038 -841 
Q 1950 -634 1800 -366 
z
M 100 1966 
Q 544 2088 963 2213 
L 963 3641 
L 175 3641 
L 175 4091 
L 963 4091 
L 963 5259 
L 1425 5259 
L 1425 4091 
L 2144 4091 
L 2144 3641 
L 1425 3641 
L 1425 2356 
Q 1722 2450 2006 2547 
Q 2013 2266 2044 2059 
Q 1722 1956 1425 1856 
L 1425 -72 
Q 1425 -747 819 -753 
Q 588 -759 231 -747 
Q 206 -491 156 -228 
Q 531 -266 688 -266 
Q 963 -266 963 66 
L 963 1703 
Q 534 1559 163 1428 
L 100 1966 
z
M 2019 3072 
L 4453 3072 
Q 4850 3622 5156 4103 
L 5625 3847 
Q 5300 3456 4966 3072 
L 6269 3072 
L 6269 2653 
L 2019 2653 
L 2019 3072 
z
M 2263 4591 
L 4028 4591 
Q 3881 4875 3719 5153 
L 4138 5347 
Q 4338 5009 4519 4666 
L 4359 4591 
L 6119 4591 
L 6119 4172 
L 2263 4172 
L 2263 4591 
z
M 3181 909 
Q 3703 703 4203 497 
Q 4694 894 4900 1466 
L 3553 1466 
Q 3363 1175 3181 909 
z
M 2825 3853 
L 3188 4097 
Q 3481 3753 3756 3372 
L 3356 3103 
Q 3119 3491 2825 3853 
z
" transform="scale(0.015625)"/>
      <path id="MicrosoftYaHei-6536" d="M 2244 2659 
Q 3044 4047 3400 5341 
L 3906 5197 
Q 3706 4619 3488 4091 
L 6213 4091 
L 6213 3628 
L 5478 3628 
Q 5384 1819 4550 681 
Q 5184 119 6350 -297 
Q 6156 -541 5994 -797 
Q 4881 -322 4219 300 
Q 3616 -294 2550 -853 
Q 2419 -647 2231 -434 
Q 3297 100 3878 672 
Q 3156 1575 2944 2916 
Q 2769 2575 2581 2259 
Q 2463 2441 2244 2659 
z
M 1681 5291 
L 2156 5291 
L 2156 -816 
L 1681 -816 
L 1681 1113 
Q 1300 900 906 641 
Q 744 522 588 359 
L 231 778 
Q 425 984 425 1316 
L 425 4416 
L 900 4416 
L 900 1216 
Q 1272 1413 1681 1634 
L 1681 5291 
z
M 4984 3628 
L 3322 3628 
Q 3413 2103 4203 1059 
Q 4916 2063 4984 3628 
z
" transform="scale(0.015625)"/>
      <path id="MicrosoftYaHei-8005" d="M 194 3303 
L 2569 3303 
L 2569 4091 
L 813 4091 
L 813 4516 
L 2569 4516 
L 2569 5309 
L 3069 5309 
L 3069 4516 
L 4600 4516 
L 4600 4091 
L 3069 4091 
L 3069 3303 
L 3681 3303 
Q 4706 4028 5363 4891 
L 5806 4591 
Q 5241 3913 4466 3303 
L 6256 3303 
L 6256 2878 
L 3888 2878 
Q 3372 2522 2778 2191 
L 5256 2191 
L 5256 -822 
L 4769 -822 
L 4769 -453 
L 1875 -453 
L 1875 -822 
L 1388 -822 
L 1388 1497 
Q 875 1269 319 1053 
Q 213 1247 38 1509 
Q 1766 2109 3031 2878 
L 194 2878 
L 194 3303 
z
M 1875 -41 
L 4769 -41 
L 4769 678 
L 1875 678 
L 1875 -41 
z
M 1875 1722 
L 1875 1066 
L 4769 1066 
L 4769 1778 
L 1988 1778 
Q 1931 1750 1875 1722 
z
" transform="scale(0.015625)"/>
      <path id="MicrosoftYaHei-64cd" d="M 6356 -209 
Q 6181 -434 6050 -634 
Q 4859 -166 4194 606 
L 4194 -847 
L 3781 -847 
L 3781 606 
Q 3000 -159 1850 -659 
Q 1744 -472 1563 -259 
Q 2778 169 3547 878 
L 1831 878 
L 1831 1266 
L 3781 1266 
L 3781 1647 
L 4194 1647 
L 4194 1266 
L 6231 1266 
L 6231 878 
L 4397 878 
Q 5094 153 6356 -209 
z
M 88 2016 
Q 431 2122 856 2275 
L 856 3697 
L 144 3697 
L 144 4122 
L 856 4122 
L 856 5284 
L 1319 5284 
L 1319 4122 
L 2013 4122 
L 2013 3697 
L 1319 3697 
L 1319 2447 
Q 1597 2553 1906 2678 
Q 1913 2372 1919 2184 
Q 1666 2088 1319 1953 
L 1319 -122 
Q 1319 -747 731 -766 
Q 494 -778 138 -766 
Q 106 -516 56 -266 
Q 406 -303 631 -303 
Q 856 -303 856 -66 
L 856 1769 
Q 534 1644 156 1491 
L 88 2016 
z
M 2538 5041 
L 5500 5041 
L 5500 3509 
L 5050 3509 
L 5050 3678 
L 2988 3678 
L 2988 3509 
L 2538 3509 
L 2538 5041 
z
M 4263 3253 
L 5950 3253 
L 5950 1716 
L 5563 1716 
L 5563 1909 
L 4650 1909 
L 4650 1734 
L 4263 1734 
L 4263 3253 
z
M 2094 3241 
L 3744 3241 
L 3744 1734 
L 3356 1734 
L 3356 1903 
L 2481 1903 
L 2481 1716 
L 2094 1716 
L 2094 3241 
z
M 5050 4666 
L 2988 4666 
L 2988 4053 
L 5050 4053 
L 5050 4666 
z
M 5563 2891 
L 4650 2891 
L 4650 2272 
L 5563 2272 
L 5563 2891 
z
M 3356 2878 
L 2481 2878 
L 2481 2266 
L 3356 2266 
L 3356 2878 
z
" transform="scale(0.015625)"/>
      <path id="MicrosoftYaHei-4f5c" d="M 1806 2784 
Q 2638 3922 3031 5322 
L 3544 5228 
Q 3397 4747 3213 4297 
L 6294 4297 
L 6294 3859 
L 4019 3859 
L 4019 2766 
L 6044 2766 
L 6044 2328 
L 4019 2328 
L 4019 1191 
L 6125 1191 
L 6125 753 
L 4019 753 
L 4019 -822 
L 3531 -822 
L 3531 3859 
L 3022 3859 
Q 2669 3097 2200 2428 
Q 2025 2597 1806 2784 
z
M 69 2209 
Q 950 3516 1463 5303 
L 1975 5153 
Q 1734 4416 1463 3769 
L 1463 -822 
L 975 -822 
L 975 2750 
Q 659 2159 306 1672 
Q 213 1909 69 2209 
z
" transform="scale(0.015625)"/>
      <path id="MicrosoftYaHei-7279" d="M 81 1609 
Q 666 1806 1238 2003 
L 1238 3472 
L 744 3472 
Q 616 2878 431 2384 
Q 238 2522 19 2659 
Q 369 3484 475 4716 
L 925 4641 
Q 884 4250 822 3891 
L 1238 3891 
L 1238 5291 
L 1706 5291 
L 1706 3891 
L 2488 3891 
L 2488 3472 
L 1706 3472 
L 1706 2166 
Q 2059 2291 2406 2416 
Q 2438 2141 2475 1941 
Q 2113 1813 1706 1663 
L 1706 -828 
L 1238 -828 
L 1238 1488 
Q 734 1297 175 1078 
L 81 1609 
z
M 2263 3103 
L 3981 3103 
L 3981 4028 
L 2525 4028 
L 2525 4453 
L 3981 4453 
L 3981 5322 
L 4469 5322 
L 4469 4453 
L 5988 4453 
L 5988 4028 
L 4469 4028 
L 4469 3103 
L 6275 3103 
L 6275 2678 
L 2263 2678 
L 2263 3103 
z
M 2394 1834 
L 4906 1834 
L 4906 2497 
L 5394 2497 
L 5394 1834 
L 6306 1834 
L 6306 1409 
L 5394 1409 
L 5394 34 
Q 5394 -747 4606 -753 
Q 4325 -759 3756 -747 
Q 3719 -503 3663 -209 
Q 4156 -259 4513 -259 
Q 4906 -259 4906 178 
L 4906 1409 
L 2394 1409 
L 2394 1834 
z
M 2744 978 
L 3106 1266 
Q 3556 772 3881 366 
L 3481 59 
Q 3125 541 2744 978 
z
" transform="scale(0.015625)"/>
      <path id="MicrosoftYaHei-5f81" d="M 2013 -59 
L 2656 -59 
L 2656 3141 
L 3144 3141 
L 3144 -59 
L 4231 -59 
L 4231 4453 
L 2438 4453 
L 2438 4922 
L 6175 4922 
L 6175 4453 
L 4719 4453 
L 4719 2559 
L 6050 2559 
L 6050 2097 
L 4719 2097 
L 4719 -59 
L 6269 -59 
L 6269 -522 
L 2013 -522 
L 2013 -59 
z
M 94 1578 
Q 1069 2372 1856 3809 
L 2294 3541 
Q 1975 2991 1619 2506 
L 1619 -816 
L 1100 -816 
L 1100 1863 
Q 725 1434 313 1072 
Q 213 1334 94 1578 
z
M 231 3766 
Q 1225 4503 1656 5222 
L 2106 4947 
Q 1456 4053 481 3284 
Q 369 3522 231 3766 
z
" transform="scale(0.015625)"/>
      <path id="MicrosoftYaHei-66f2" d="M 2163 5322 
L 2625 5322 
L 2625 4291 
L 3775 4291 
L 3775 5328 
L 4238 5328 
L 4238 4291 
L 5850 4291 
L 5850 -822 
L 5388 -822 
L 5388 -409 
L 1013 -409 
L 1013 -822 
L 550 -822 
L 550 4291 
L 2163 4291 
L 2163 5322 
z
M 1013 41 
L 2163 41 
L 2163 1753 
L 1013 1753 
L 1013 41 
z
M 4238 41 
L 5388 41 
L 5388 1753 
L 4238 1753 
L 4238 41 
z
M 2625 41 
L 3775 41 
L 3775 1753 
L 2625 1753 
L 2625 41 
z
M 1013 2203 
L 2163 2203 
L 2163 3841 
L 1013 3841 
L 1013 2203 
z
M 5388 3841 
L 4238 3841 
L 4238 2203 
L 5388 2203 
L 5388 3841 
z
M 2625 2203 
L 3775 2203 
L 3775 3841 
L 2625 3841 
L 2625 2203 
z
" transform="scale(0.015625)"/>
      <path id="MicrosoftYaHei-7ebf" d="M 1969 -347 
Q 3144 75 4003 631 
Q 3781 1197 3653 1972 
L 2319 1784 
L 2244 2234 
L 3591 2422 
Q 3538 2859 3513 3356 
L 2381 3228 
L 2306 3678 
L 3488 3809 
Q 3453 4459 3425 5303 
L 3938 5303 
Q 3953 4497 3978 3866 
L 6069 4103 
L 6125 3659 
L 3997 3413 
Q 4019 2919 4069 2488 
L 6225 2791 
L 6281 2347 
L 4128 2041 
Q 4234 1394 4416 916 
Q 5078 1416 5519 2009 
L 5925 1703 
Q 5363 1025 4619 475 
Q 4859 44 5194 -184 
Q 5606 -428 5725 66 
Q 5806 466 5856 953 
Q 6144 828 6338 772 
Q 6231 97 6125 -247 
Q 5944 -778 5506 -778 
Q 5050 -778 4663 -403 
Q 4409 -163 4209 194 
Q 3350 -363 2281 -772 
Q 2169 -597 1969 -347 
z
M 900 1541 
Q 1456 1622 2213 1753 
Q 2175 1522 2156 1272 
Q 1113 1109 325 978 
L 225 1447 
Q 659 1913 1178 2775 
Q 672 2747 225 2703 
L 106 3128 
Q 688 3922 1300 5353 
L 1775 5166 
Q 1131 3897 669 3166 
Q 1041 3178 1422 3194 
Q 1638 3578 1869 4028 
L 2331 3797 
Q 1569 2478 900 1541 
z
M 106 97 
Q 1206 334 2331 616 
Q 2313 366 2313 141 
Q 1269 -103 244 -378 
L 106 97 
z
M 4463 4972 
L 4731 5284 
Q 5175 5003 5681 4609 
L 5381 4247 
Q 4863 4691 4463 4972 
z
" transform="scale(0.015625)"/>
      <path id="MicrosoftYaHei-52" d="M 4159 0 
L 3422 0 
L 2619 1344 
Q 2378 1747 2178 1892 
Q 1978 2038 1700 2038 
L 1250 2038 
L 1250 0 
L 625 0 
L 625 4841 
L 2100 4841 
Q 2806 4841 3206 4500 
Q 3606 4159 3606 3547 
Q 3606 2541 2531 2241 
L 2531 2225 
Q 2731 2141 2876 1984 
Q 3022 1828 3253 1450 
L 4159 0 
z
M 1250 4294 
L 1250 2584 
L 1988 2584 
Q 2416 2584 2683 2834 
Q 2950 3084 2950 3491 
Q 2950 3869 2706 4081 
Q 2463 4294 1997 4294 
L 1250 4294 
z
" transform="scale(0.015625)"/>
      <path id="MicrosoftYaHei-4f" d="M 313 2363 
Q 313 3534 947 4228 
Q 1581 4922 2666 4922 
Q 3675 4922 4290 4244 
Q 4906 3566 4906 2478 
Q 4906 1300 4275 609 
Q 3644 -81 2588 -81 
Q 1556 -81 934 597 
Q 313 1275 313 2363 
z
M 969 2413 
Q 969 1534 1417 1004 
Q 1866 475 2588 475 
Q 3363 475 3805 983 
Q 4247 1491 4247 2403 
Q 4247 3341 3814 3850 
Q 3381 4359 2628 4359 
Q 1888 4359 1428 3821 
Q 969 3284 969 2413 
z
" transform="scale(0.015625)"/>
      <path id="MicrosoftYaHei-43" d="M 3938 200 
Q 3403 -81 2597 -81 
Q 1556 -81 934 580 
Q 313 1241 313 2328 
Q 313 3497 1013 4209 
Q 1713 4922 2791 4922 
Q 3484 4922 3938 4725 
L 3938 4072 
Q 3419 4359 2797 4359 
Q 1988 4359 1478 3820 
Q 969 3281 969 2366 
Q 969 1497 1444 986 
Q 1919 475 2688 475 
Q 3406 475 3938 800 
L 3938 200 
z
" transform="scale(0.015625)"/>
     </defs>
     <use xlink:href="#MicrosoftYaHei-ff08"/>
     <use xlink:href="#MicrosoftYaHei-62" x="100"/>
     <use xlink:href="#MicrosoftYaHei-ff09" x="163.867188"/>
     <use xlink:href="#MicrosoftYaHei-63a5" x="263.867188"/>
     <use xlink:href="#MicrosoftYaHei-6536" x="363.867188"/>
     <use xlink:href="#MicrosoftYaHei-8005" x="463.867188"/>
     <use xlink:href="#MicrosoftYaHei-64cd" x="563.867188"/>
     <use xlink:href="#MicrosoftYaHei-4f5c" x="663.867188"/>
     <use xlink:href="#MicrosoftYaHei-7279" x="763.867188"/>
     <use xlink:href="#MicrosoftYaHei-5f81" x="863.867188"/>
     <use xlink:href="#MicrosoftYaHei-66f2" x="963.867188"/>
     <use xlink:href="#MicrosoftYaHei-7ebf" x="1063.867188"/>
     <use xlink:href="#MicrosoftYaHei-ff08" x="1163.867188"/>
     <use xlink:href="#MicrosoftYaHei-52" x="1263.867188"/>
     <use xlink:href="#MicrosoftYaHei-4f" x="1328.025391"/>
     <use xlink:href="#MicrosoftYaHei-43" x="1409.519531"/>
     <use xlink:href="#MicrosoftYaHei-ff09" x="1476.414062"/>
    </g>
   </g>
   <g id="legend_2">
    <g id="patch_9">
     <path d="M 1178.551875 581.9 
L 1384.9 581.9 
Q 1388.3 581.9 1388.3 578.5 
L 1388.3 527.569062 
Q 1388.3 524.169062 1384.9 524.169062 
L 1178.551875 524.169062 
Q 1175.151875 524.169062 1175.151875 527.569062 
L 1175.151875 578.5 
Q 1175.151875 581.9 1178.551875 581.9 
z
" style="fill: #ffffff; opacity: 0.8; stroke: #cccccc; stroke-linejoin: miter"/>
    </g>
    <g id="line2d_35">
     <path d="M 1181.951875 538.608437 
L 1198.951875 538.608437 
L 1215.951875 538.608437 
" style="fill: none; stroke: #1865a2; stroke-width: 3; stroke-linecap: square"/>
    </g>
    <g id="text_35">
     <!-- 同一敏感性 d′ = 1.5 -->
     <g transform="translate(1229.551875 544.558437) scale(0.17 -0.17)">
      <defs>
       <path id="MicrosoftYaHei-4e00" d="M 100 2703 
L 6313 2703 
L 6313 2153 
L 100 2153 
L 100 2703 
z
" transform="scale(0.015625)"/>
       <path id="MicrosoftYaHei-64" d="M 3547 0 
L 2934 0 
L 2934 575 
L 2922 575 
Q 2544 -81 1747 -81 
Q 1091 -81 703 386 
Q 316 853 316 1647 
Q 316 2503 753 3020 
Q 1191 3538 1897 3538 
Q 2603 3538 2922 2988 
L 2934 2988 
L 2934 5116 
L 3547 5116 
L 3547 0 
z
M 2938 2056 
Q 2938 2472 2664 2751 
Q 2391 3031 1991 3031 
Q 1503 3031 1222 2667 
Q 941 2303 941 1675 
Q 941 1097 1211 761 
Q 1481 425 1931 425 
Q 2375 425 2656 754 
Q 2938 1084 2938 1575 
L 2938 2056 
z
" transform="scale(0.015625)"/>
       <path id="MicrosoftYaHei-2032" d="M 1228 4847 
L 872 3341 
L 447 3341 
L 728 4847 
L 1228 4847 
z
" transform="scale(0.015625)"/>
      </defs>
      <use xlink:href="#MicrosoftYaHei-540c"/>
      <use xlink:href="#MicrosoftYaHei-4e00" x="100"/>
      <use xlink:href="#MicrosoftYaHei-654f" x="200"/>
      <use xlink:href="#MicrosoftYaHei-611f" x="300"/>
      <use xlink:href="#MicrosoftYaHei-6027" x="400"/>
      <use xlink:href="#MicrosoftYaHei-20" x="500"/>
      <use xlink:href="#MicrosoftYaHei-64" x="529.589844"/>
      <use xlink:href="#MicrosoftYaHei-2032" x="593.554688"/>
      <use xlink:href="#MicrosoftYaHei-20" x="619.091797"/>
      <use xlink:href="#MicrosoftYaHei-3d" x="648.681641"/>
      <use xlink:href="#MicrosoftYaHei-20" x="722.851562"/>
      <use xlink:href="#MicrosoftYaHei-31" x="752.441406"/>
      <use xlink:href="#MicrosoftYaHei-2e" x="811.083984"/>
      <use xlink:href="#MicrosoftYaHei-35" x="835.15625"/>
     </g>
    </g>
    <g id="line2d_36">
     <path d="M 1181.951875 564.923906 
L 1198.951875 564.923906 
L 1215.951875 564.923906 
" style="fill: none; stroke-dasharray: 1.5,2.475; stroke-dashoffset: 0; stroke: #576779; stroke-width: 1.5"/>
    </g>
    <g id="text_36">
     <!-- d′ = 0 的参照 -->
     <g transform="translate(1229.551875 570.873906) scale(0.17 -0.17)">
      <defs>
       <path id="MicrosoftYaHei-7684" d="M 356 4284 
L 988 4284 
Q 1219 4853 1369 5322 
L 1894 5172 
Q 1697 4694 1513 4284 
L 2763 4284 
L 2763 -691 
L 2263 -691 
L 2263 -203 
L 856 -203 
L 856 -734 
L 356 -734 
L 356 4284 
z
M 2856 3003 
Q 3444 3934 3850 5322 
L 4375 5191 
Q 4216 4719 4050 4303 
L 6063 4303 
Q 5988 1091 5938 259 
Q 5894 -722 4906 -722 
Q 4338 -722 3750 -684 
Q 3713 -372 3650 -128 
L 3669 -128 
Q 4294 -216 4813 -216 
Q 5381 -216 5425 384 
Q 5494 1316 5525 3834 
L 3850 3834 
Q 3578 3231 3288 2772 
Q 3119 2891 2856 3003 
z
M 856 266 
L 2263 266 
L 2263 1847 
L 856 1847 
L 856 266 
z
M 2263 3816 
L 856 3816 
L 856 2297 
L 2263 2297 
L 2263 3816 
z
M 3406 2578 
L 3788 2859 
Q 4481 2041 4894 1441 
L 4431 1116 
Q 3988 1841 3406 2578 
z
" transform="scale(0.015625)"/>
       <path id="MicrosoftYaHei-53c2" d="M 256 3159 
L 2234 3159 
Q 2428 3391 2600 3641 
Q 2031 3609 1469 3578 
Q 1288 3566 988 3522 
L 825 4003 
Q 1144 4091 1400 4291 
Q 1944 4697 2606 5372 
L 3100 5109 
Q 2394 4497 1738 4034 
Q 2906 4066 4397 4122 
Q 4072 4388 3744 4628 
L 4050 4947 
Q 5006 4278 5606 3772 
L 5256 3397 
Q 5053 3575 4853 3747 
Q 3778 3700 2719 3647 
L 3069 3497 
Q 2944 3322 2813 3159 
L 6144 3159 
L 6144 2741 
L 4353 2741 
Q 5128 1941 6325 1578 
Q 6119 1297 6000 1109 
Q 4644 1697 3828 2741 
L 2453 2741 
Q 1550 1750 363 1116 
Q 231 1328 56 1509 
Q 1091 2009 1841 2741 
L 256 2741 
L 256 3159 
z
M 4969 1016 
L 5313 697 
Q 3525 -509 1019 -891 
Q 906 -666 781 -478 
Q 3331 -59 4969 1016 
z
M 4231 1703 
L 4525 1353 
Q 2813 391 1119 47 
Q 988 341 913 466 
Q 2694 828 4231 1703 
z
M 3556 2453 
L 3863 2128 
Q 2694 1397 1388 1009 
Q 1288 1216 1150 1422 
Q 2344 1734 3556 2453 
z
" transform="scale(0.015625)"/>
       <path id="MicrosoftYaHei-7167" d="M 488 4997 
L 2500 4997 
L 2500 916 
L 2038 916 
L 2038 1153 
L 950 1153 
L 950 872 
L 488 872 
L 488 4997 
z
M 3156 2791 
L 5938 2791 
L 5938 866 
L 5475 866 
L 5475 1059 
L 3619 1059 
L 3619 866 
L 3156 866 
L 3156 2791 
z
M 2944 4609 
L 2944 5022 
L 5969 5022 
Q 5944 4366 5906 3891 
Q 5844 3109 5094 3109 
Q 4844 3109 4356 3128 
Q 4319 3359 4263 3622 
Q 4756 3559 5013 3559 
Q 5413 3559 5444 3922 
Q 5481 4366 5481 4609 
L 4166 4609 
Q 4150 3353 3006 2716 
Q 2863 2903 2681 3084 
Q 3713 3628 3706 4609 
L 2944 4609 
z
M 5475 2391 
L 3619 2391 
L 3619 1459 
L 5475 1459 
L 5475 2391 
z
M 950 1578 
L 2038 1578 
L 2038 2884 
L 950 2884 
L 950 1578 
z
M 2038 4572 
L 950 4572 
L 950 3309 
L 2038 3309 
L 2038 4572 
z
M 844 728 
L 1288 559 
Q 1050 -22 613 -809 
Q 400 -709 169 -609 
Q 631 166 844 728 
z
M 5025 547 
L 5425 784 
Q 5863 184 6213 -422 
L 5775 -678 
Q 5438 -59 5025 547 
z
M 1906 453 
L 2319 641 
Q 2663 22 2900 -522 
L 2450 -722 
Q 2225 -166 1906 453 
z
M 3513 497 
L 3925 678 
Q 4263 109 4525 -447 
L 4081 -659 
Q 3806 -34 3513 497 
z
" transform="scale(0.015625)"/>
      </defs>
      <use xlink:href="#MicrosoftYaHei-64"/>
      <use xlink:href="#MicrosoftYaHei-2032" x="63.964844"/>
      <use xlink:href="#MicrosoftYaHei-20" x="89.501953"/>
      <use xlink:href="#MicrosoftYaHei-3d" x="119.091797"/>
      <use xlink:href="#MicrosoftYaHei-20" x="193.261719"/>
      <use xlink:href="#MicrosoftYaHei-30" x="222.851562"/>
      <use xlink:href="#MicrosoftYaHei-20" x="281.494141"/>
      <use xlink:href="#MicrosoftYaHei-7684" x="311.083984"/>
      <use xlink:href="#MicrosoftYaHei-53c2" x="411.083984"/>
      <use xlink:href="#MicrosoftYaHei-7167" x="511.083984"/>
     </g>
    </g>
   </g>
  </g>
 </g>
 <defs>
  <clipPath id="p2da146c426">
   <rect x="108" y="79.2" width="560.347826" height="511.2"/>
  </clipPath>
  <clipPath id="p79682b53c6">
   <rect x="836.452174" y="79.2" width="560.347826" height="511.2"/>
  </clipPath>
 </defs>
</svg>
