<?xml version="1.0" encoding="utf-8" standalone="no"?>
<!DOCTYPE svg PUBLIC "-//W3C//DTD SVG 1.1//EN"
  "http://www.w3.org/Graphics/SVG/1.1/DTD/svg11.dtd">
<svg xmlns:xlink="http://www.w3.org/1999/xlink" width="656.39952pt" height="260.39952pt" viewBox="0 0 656.39952 260.39952" xmlns="http://www.w3.org/2000/svg" version="1.1">
 <metadata>
  <rdf:RDF xmlns:dc="http://purl.org/dc/elements/1.1/" xmlns:cc="http://creativecommons.org/ns#" xmlns:rdf="http://www.w3.org/1999/02/22-rdf-syntax-ns#">
   <cc:Work>
    <dc:type rdf:resource="http://purl.org/dc/dcmitype/StillImage"/>
    <dc:date>2026-10-09T01:27:08.497274</dc:date>
    <dc:format>image/svg+xml</dc:format>
    <dc:creator>
     <cc:Agent>
      <dc:title>Matplotlib v3.8.0, https://matplotlib.org/</dc:title>
     </cc:Agent>
    </dc:creator>
   </cc:Work>
  </rdf:RDF>
 </metadata>
 <defs>
  <style type="text/css">*{stroke-linejoin: round; stroke-linecap: butt}</style>
 </defs>
 <g id="figure_1">
  <g id="patch_1">
   <path d="M 0 260.39952
L 656.39952 260.39952
L 656.39952 0
L 0 0
z
" style="fill: #ffffff"/>
  </g>
  <g id="axes_1">
   <g id="patch_2">
    <path d="M 46.271875 221.240145
L 649.19952 221.240145
L 649.19952 7.2
L 46.271875 7.2
z
" style="fill: #ffffff"/>
   </g>
   <g id="matplotlib.axis_1">
    <g id="xtick_1">
     <g id="line2d_1">
      <defs>
       <path id="m431e25d8d2" d="M 0 0
L 0 3.5
" style="stroke: #000000; stroke-width: 0.8"/>
      </defs>
      <g>
       <use xlink:href="#m431e25d8d2" x="73.677677" y="221.240145" style="stroke: #000000; stroke-width: 0.8"/>
      </g>
     </g>
     <g id="text_1">
      <!-- 0 -->
      <g transform="translate(70.745646 236.233895) scale(0.1 -0.1)">
       <defs>
        <path id="MicrosoftYaHei-30" d="M 284 2325
Q 284 3606 709 4264
Q 1134 4922 1941 4922
Q 3478 4922 3478 2441
Q 3478 1216 3045 567
Q 2613 -81 1831 -81
Q 1094 -81 689 534
Q 284 1150 284 2325
z
M 909 2353
Q 909 425 1888 425
Q 2850 425 2850 2384
Q 2850 4413 1906 4413
Q 909 4413 909 2353
z
" transform="scale(0.015625)"/>
       </defs>
       <use xlink:href="#MicrosoftYaHei-30"/>
      </g>
     </g>
    </g>
    <g id="xtick_2">
     <g id="line2d_2">
      <g>
       <use xlink:href="#m431e25d8d2" x="165.030351" y="221.240145" style="stroke: #000000; stroke-width: 0.8"/>
      </g>
     </g>
     <g id="text_2">
      <!-- 500 -->
      <g transform="translate(156.234257 236.233895) scale(0.1 -0.1)">
       <defs>
        <path id="MicrosoftYaHei-35" d="M 3294 1494
Q 3294 784 2823 350
Q 2353 -84 1559 -84
Q 878 -84 544 119
L 544 744
Q 1034 425 1544 425
Q 2050 425 2361 704
Q 2672 984 2672 1447
Q 2672 1909 2348 2167
Q 2025 2425 1434 2425
Q 978 2425 613 2384
L 791 4841
L 3053 4841
L 3053 4303
L 1306 4303
L 1206 2931
L 1647 2950
Q 2416 2950 2855 2567
Q 3294 2184 3294 1494
z
" transform="scale(0.015625)"/>
       </defs>
       <use xlink:href="#MicrosoftYaHei-35"/>
       <use xlink:href="#MicrosoftYaHei-30" x="58.642578"/>
       <use xlink:href="#MicrosoftYaHei-30" x="117.285156"/>
      </g>
     </g>
    </g>
    <g id="xtick_3">
     <g id="line2d_3">
      <g>
       <use xlink:href="#m431e25d8d2" x="256.383024" y="221.240145" style="stroke: #000000; stroke-width: 0.8"/>
      </g>
     </g>
     <g id="text_3">
      <!-- 1000 -->
      <g transform="translate(244.654899 236.233895) scale(0.1 -0.1)">
       <defs>
        <path id="MicrosoftYaHei-31" d="M 1781 0
L 1781 4141
Q 1638 3997 1295 3819
Q 953 3641 663 3569
L 663 4169
Q 1047 4275 1484 4508
Q 1922 4741 2156 4947
L 2388 4947
L 2388 0
L 1781 0
z
" transform="scale(0.015625)"/>
       </defs>
       <use xlink:href="#MicrosoftYaHei-31"/>
       <use xlink:href="#MicrosoftYaHei-30" x="58.642578"/>
       <use xlink:href="#MicrosoftYaHei-30" x="117.285156"/>
       <use xlink:href="#MicrosoftYaHei-30" x="175.927734"/>
      </g>
     </g>
    </g>
    <g id="xtick_4">
     <g id="line2d_4">
      <g>
       <use xlink:href="#m431e25d8d2" x="347.735698" y="221.240145" style="stroke: #000000; stroke-width: 0.8"/>
      </g>
     </g>
     <g id="text_4">
      <!-- 1500 -->
      <g transform="translate(336.007573 236.233895) scale(0.1 -0.1)">
       <use xlink:href="#MicrosoftYaHei-31"/>
       <use xlink:href="#MicrosoftYaHei-35" x="58.642578"/>
       <use xlink:href="#MicrosoftYaHei-30" x="117.285156"/>
       <use xlink:href="#MicrosoftYaHei-30" x="175.927734"/>
      </g>
     </g>
    </g>
    <g id="xtick_5">
     <g id="line2d_5">
      <g>
       <use xlink:href="#m431e25d8d2" x="439.088371" y="221.240145" style="stroke: #000000; stroke-width: 0.8"/>
      </g>
     </g>
     <g id="text_5">
      <!-- 2000 -->
      <g transform="translate(427.360246 236.233895) scale(0.1 -0.1)">
       <defs>
        <path id="MicrosoftYaHei-32" d="M 2666 3572
Q 2666 3963 2419 4186
Q 2172 4409 1747 4409
Q 1447 4409 1140 4256
Q 834 4103 569 3819
L 569 4413
Q 806 4659 1107 4790
Q 1409 4922 1816 4922
Q 2472 4922 2872 4570
Q 3272 4219 3272 3619
Q 3272 3084 3026 2693
Q 2781 2303 2188 1894
Q 1581 1475 1376 1294
Q 1172 1113 1090 947
Q 1009 781 1009 544
L 3416 544
L 3416 0
L 372 0
L 372 241
Q 372 659 486 951
Q 600 1244 862 1520
Q 1125 1797 1681 2184
Q 2250 2584 2458 2886
Q 2666 3188 2666 3572
z
" transform="scale(0.015625)"/>
       </defs>
       <use xlink:href="#MicrosoftYaHei-32"/>
       <use xlink:href="#MicrosoftYaHei-30" x="58.642578"/>
       <use xlink:href="#MicrosoftYaHei-30" x="117.285156"/>
       <use xlink:href="#MicrosoftYaHei-30" x="175.927734"/>
      </g>
     </g>
    </g>
    <g id="xtick_6">
     <g id="line2d_6">
      <g>
       <use xlink:href="#m431e25d8d2" x="530.441044" y="221.240145" style="stroke: #000000; stroke-width: 0.8"/>
      </g>
     </g>
     <g id="text_6">
      <!-- 2500 -->
      <g transform="translate(518.712919 236.233895) scale(0.1 -0.1)">
       <use xlink:href="#MicrosoftYaHei-32"/>
       <use xlink:href="#MicrosoftYaHei-35" x="58.642578"/>
       <use xlink:href="#MicrosoftYaHei-30" x="117.285156"/>
       <use xlink:href="#MicrosoftYaHei-30" x="175.927734"/>
      </g>
     </g>
    </g>
    <g id="xtick_7">
     <g id="line2d_7">
      <g>
       <use xlink:href="#m431e25d8d2" x="621.793718" y="221.240145" style="stroke: #000000; stroke-width: 0.8"/>
      </g>
     </g>
     <g id="text_7">
      <!-- 3000 -->
      <g transform="translate(610.065593 236.233895) scale(0.1 -0.1)">
       <defs>
        <path id="MicrosoftYaHei-33" d="M 447 809
Q 944 425 1569 425
Q 2069 425 2361 670
Q 2653 916 2653 1328
Q 2653 2247 1338 2247
L 934 2247
L 934 2753
L 1319 2753
Q 2484 2753 2484 3616
Q 2484 4413 1594 4413
Q 1084 4413 634 4069
L 634 4647
Q 1109 4922 1744 4922
Q 2363 4922 2738 4598
Q 3113 4275 3113 3759
Q 3113 2809 2144 2538
L 2144 2525
Q 2669 2469 2973 2155
Q 3278 1841 3278 1372
Q 3278 719 2808 319
Q 2338 -81 1556 -81
Q 869 -81 447 175
L 447 809
z
" transform="scale(0.015625)"/>
       </defs>
       <use xlink:href="#MicrosoftYaHei-33"/>
       <use xlink:href="#MicrosoftYaHei-30" x="58.642578"/>
       <use xlink:href="#MicrosoftYaHei-30" x="117.285156"/>
       <use xlink:href="#MicrosoftYaHei-30" x="175.927734"/>
      </g>
     </g>
    </g>
    <g id="text_8">
     <!-- 频率 (Hz) -->
     <g transform="translate(326.589604 250.713583) scale(0.1 -0.1)">
      <defs>
       <path id="MicrosoftYaHei-9891" d="M 3200 3716
L 4113 3716
L 4269 4522
L 2938 4522
L 2938 4947
L 6294 4947
L 6294 4522
L 4788 4522
L 4600 3716
L 6019 3716
L 6019 478
L 5550 478
L 5550 3291
L 3669 3291
L 3669 478
L 3200 478
L 3200 3716
z
M 94 3034
L 525 3034
L 525 4691
L 963 4691
L 963 3034
L 1600 3034
L 1600 5272
L 2050 5272
L 2050 4291
L 2925 4291
L 2925 3878
L 2050 3878
L 2050 3034
L 3006 3034
L 3006 2609
L 94 2609
L 94 3034
z
M 4356 2884
L 4825 2884
L 4825 1934
Q 4825 1216 4650 716
Q 5619 128 6375 -403
L 6075 -841
Q 5306 -234 4450 303
Q 4413 241 4369 184
Q 3913 -447 2763 -884
Q 2625 -691 2444 -478
Q 3525 -72 3944 447
Q 4356 947 4356 1966
L 4356 2884
z
M 1550 2459
L 2000 2459
L 2000 853
Q 2394 1309 2663 1866
L 3100 1609
Q 2206 -47 394 -909
Q 275 -741 69 -503
Q 1125 -47 1819 659
L 1550 659
L 1550 2459
z
M 38 578
Q 381 1191 669 2084
L 1113 1947
Q 806 1028 456 366
Q 269 472 38 578
z
" transform="scale(0.015625)"/>
       <path id="MicrosoftYaHei-7387" d="M 2525 2009
Q 2622 2016 3928 2081
Q 3772 2300 3625 2491
L 3963 2703
Q 4413 2203 4794 1653
L 4394 1403
Q 4284 1569 4178 1725
Q 2991 1659 2213 1597
Q 2075 1584 1881 1541
L 1725 1966
Q 1913 2028 2006 2084
Q 2534 2441 3050 2913
Q 2597 2894 2275 2866
Q 2144 2847 1988 2809
L 1800 3191
Q 1956 3247 2088 3366
Q 2509 3722 2875 4228
L 231 4228
L 231 4666
L 3031 4666
Q 2878 4944 2744 5153
L 3194 5372
Q 3438 5000 3616 4666
L 6175 4666
L 6175 4228
L 3053 4228
L 3350 4072
Q 2844 3553 2494 3247
Q 2850 3256 3425 3269
Q 3675 3519 3925 3797
L 4356 3547
Q 3363 2603 2525 2009
z
M 144 991
L 2994 991
L 2994 1541
L 3488 1541
L 3488 991
L 6275 991
L 6275 553
L 3488 553
L 3488 -853
L 2994 -853
L 2994 553
L 144 553
L 144 991
z
M 1719 2672
L 1944 2303
Q 1200 1866 425 1409
L 163 1828
Q 813 2134 1719 2672
z
M 4856 2678
Q 5750 2172 6250 1816
L 5975 1409
Q 5331 1909 4600 2341
L 4856 2678
z
M 5994 3591
Q 5519 3178 4963 2809
L 4644 3141
Q 5244 3534 5638 3928
L 5994 3591
z
M 363 3634
L 681 3941
Q 1200 3528 1588 3159
L 1238 2816
Q 875 3197 363 3634
z
" transform="scale(0.015625)"/>
       <path id="MicrosoftYaHei-20" transform="scale(0.015625)"/>
       <path id="MicrosoftYaHei-28" d="M 1531 -1100
Q 478 100 478 1847
Q 478 3594 1531 4841
L 2072 4841
Q 1016 3544 1016 1853
Q 1016 166 2066 -1100
L 1531 -1100
z
" transform="scale(0.015625)"/>
       <path id="MicrosoftYaHei-48" d="M 4325 0
L 3700 0
L 3700 2181
L 1250 2181
L 1250 0
L 625 0
L 625 4841
L 1250 4841
L 1250 2738
L 3700 2738
L 3700 4841
L 4325 4841
L 4325 0
z
" transform="scale(0.015625)"/>
       <path id="MicrosoftYaHei-7a" d="M 2978 0
L 109 0
L 109 203
L 2119 2950
L 297 2950
L 297 3456
L 2991 3456
L 2991 3256
L 994 506
L 2978 506
L 2978 0
z
" transform="scale(0.015625)"/>
       <path id="MicrosoftYaHei-29" d="M 78 -1100
Q 1131 163 1131 1853
Q 1131 3547 72 4841
L 616 4841
Q 1672 3603 1672 1847
Q 1672 91 616 -1100
L 78 -1100
z
" transform="scale(0.015625)"/>
      </defs>
      <use xlink:href="#MicrosoftYaHei-9891"/>
      <use xlink:href="#MicrosoftYaHei-7387" x="100"/>
      <use xlink:href="#MicrosoftYaHei-20" x="200"/>
      <use xlink:href="#MicrosoftYaHei-28" x="229.589844"/>
      <use xlink:href="#MicrosoftYaHei-48" x="262.988281"/>
      <use xlink:href="#MicrosoftYaHei-7a" x="340.332031"/>
      <use xlink:href="#MicrosoftYaHei-29" x="389.501953"/>
     </g>
    </g>
   </g>
   <g id="matplotlib.axis_2">
    <g id="ytick_1">
     <g id="line2d_8">
      <defs>
       <path id="m4735db1eef" d="M 0 0
L -3.5 0
" style="stroke: #000000; stroke-width: 0.8"/>
      </defs>
      <g>
       <use xlink:href="#m4735db1eef" x="46.271875" y="211.511047" style="stroke: #000000; stroke-width: 0.8"/>
      </g>
     </g>
     <g id="text_9">
      <!-- 0 -->
      <g transform="translate(33.407813 215.507923) scale(0.1 -0.1)">
       <use xlink:href="#MicrosoftYaHei-30"/>
      </g>
     </g>
    </g>
    <g id="ytick_2">
     <g id="line2d_9">
      <g>
       <use xlink:href="#m4735db1eef" x="46.271875" y="168.270614" style="stroke: #000000; stroke-width: 0.8"/>
      </g>
     </g>
     <g id="text_10">
      <!-- 50 -->
      <g transform="translate(27.54375 172.267489) scale(0.1 -0.1)">
       <use xlink:href="#MicrosoftYaHei-35"/>
       <use xlink:href="#MicrosoftYaHei-30" x="58.642578"/>
      </g>
     </g>
    </g>
    <g id="ytick_3">
     <g id="line2d_10">
      <g>
       <use xlink:href="#m4735db1eef" x="46.271875" y="125.030181" style="stroke: #000000; stroke-width: 0.8"/>
      </g>
     </g>
     <g id="text_11">
      <!-- 100 -->
      <g transform="translate(21.679688 129.027056) scale(0.1 -0.1)">
       <use xlink:href="#MicrosoftYaHei-31"/>
       <use xlink:href="#MicrosoftYaHei-30" x="58.642578"/>
       <use xlink:href="#MicrosoftYaHei-30" x="117.285156"/>
      </g>
     </g>
    </g>
    <g id="ytick_4">
     <g id="line2d_11">
      <g>
       <use xlink:href="#m4735db1eef" x="46.271875" y="81.789747" style="stroke: #000000; stroke-width: 0.8"/>
      </g>
     </g>
     <g id="text_12">
      <!-- 150 -->
      <g transform="translate(21.679688 85.786622) scale(0.1 -0.1)">
       <use xlink:href="#MicrosoftYaHei-31"/>
       <use xlink:href="#MicrosoftYaHei-35" x="58.642578"/>
       <use xlink:href="#MicrosoftYaHei-30" x="117.285156"/>
      </g>
     </g>
    </g>
    <g id="ytick_5">
     <g id="line2d_12">
      <g>
       <use xlink:href="#m4735db1eef" x="46.271875" y="38.549314" style="stroke: #000000; stroke-width: 0.8"/>
      </g>
     </g>
     <g id="text_13">
      <!-- 200 -->
      <g transform="translate(21.679688 42.546189) scale(0.1 -0.1)">
       <use xlink:href="#MicrosoftYaHei-32"/>
       <use xlink:href="#MicrosoftYaHei-30" x="58.642578"/>
       <use xlink:href="#MicrosoftYaHei-30" x="117.285156"/>
      </g>
     </g>
    </g>
    <g id="text_14">
     <!-- 左相位减右相位 (度) -->
     <g transform="translate(15.19375 159.040385) rotate(-90) scale(0.1 -0.1)">
      <defs>
       <path id="MicrosoftYaHei-5de6" d="M 1150 9
L 3425 9
L 3425 2034
L 1884 2034
Q 1363 913 413 -291
Q 250 -53 69 128
Q 1425 1803 1988 3878
L 300 3878
L 300 4359
L 2106 4359
Q 2209 4822 2281 5328
L 2813 5259
Q 2728 4784 2634 4359
L 6250 4359
L 6250 3878
L 2519 3878
Q 2363 3228 2088 2509
L 5850 2509
L 5850 2034
L 3956 2034
L 3956 9
L 6250 9
L 6250 -459
L 1150 -459
L 1150 9
z
" transform="scale(0.015625)"/>
       <path id="MicrosoftYaHei-76f8" d="M 2738 4891
L 6025 4891
L 6025 -822
L 5550 -822
L 5550 -397
L 3213 -397
L 3213 -822
L 2738 -822
L 2738 4891
z
M 94 1409
Q 784 2372 1128 3622
L 169 3622
L 169 4041
L 1138 4041
L 1138 5284
L 1594 5284
L 1594 4041
L 2506 4041
L 2506 3622
L 1594 3622
L 1594 2534
L 1844 2791
Q 2275 2372 2638 1984
L 2300 1653
Q 1956 2059 1594 2444
L 1594 -809
L 1138 -809
L 1138 2444
Q 800 1516 319 866
Q 225 1134 94 1409
z
M 3213 28
L 5550 28
L 5550 1241
L 3213 1241
L 3213 28
z
M 5550 4466
L 3213 4466
L 3213 3266
L 5550 3266
L 5550 4466
z
M 3213 1653
L 5550 1653
L 5550 2853
L 3213 2853
L 3213 1653
z
" transform="scale(0.015625)"/>
       <path id="MicrosoftYaHei-4f4d" d="M 1788 -59
L 4228 -59
Q 4678 1144 5269 3372
L 5831 3203
Q 5453 2044 4756 -59
L 6319 -59
L 6319 -522
L 1788 -522
L 1788 -59
z
M 81 2291
Q 975 3641 1431 5322
L 1963 5191
Q 1703 4397 1406 3709
L 1406 -853
L 938 -853
L 938 2731
Q 644 2181 319 1716
Q 231 1953 81 2291
z
M 1919 4191
L 4122 4191
Q 3844 4659 3506 5059
L 3931 5353
Q 4206 5034 4613 4497
L 4150 4191
L 6206 4191
L 6206 3728
L 1919 3728
L 1919 4191
z
M 2769 3309
Q 3181 2184 3669 584
L 3150 434
Q 2725 1966 2294 3147
L 2769 3309
z
" transform="scale(0.015625)"/>
       <path id="MicrosoftYaHei-51cf" d="M 3406 -484
Q 4103 84 4628 878
Q 4381 1866 4347 3872
L 2269 3872
L 2269 2278
Q 2269 366 1381 -809
Q 1150 -566 1000 -466
Q 1831 584 1831 2303
L 1831 4297
L 4338 4297
Q 4331 4800 4331 5278
L 4788 5278
Q 4788 4803 4791 4297
L 6300 4297
L 6300 3872
L 4794 3872
Q 4806 2363 4972 1453
Q 5403 2256 5688 3253
L 6138 3097
Q 5716 1794 5122 813
Q 5281 250 5488 -47
Q 5688 -291 5763 53
Q 5831 422 5881 953
Q 6175 847 6344 797
Q 6256 134 6150 -297
Q 6013 -791 5700 -784
Q 5431 -791 5194 -478
Q 4959 -128 4797 316
Q 4347 -313 3813 -784
Q 3619 -616 3406 -484
z
M 2656 2347
L 4069 2347
L 4069 509
L 3069 509
L 3069 122
L 2656 122
L 2656 2347
z
M 131 16
Q 519 1059 925 2609
Q 1163 2497 1388 2409
Q 1106 1403 638 -153
L 131 16
z
M 244 4541
L 631 4809
Q 1069 4303 1506 3728
L 1075 3416
Q 563 4153 244 4541
z
M 3656 897
L 3656 1959
L 3069 1959
L 3069 897
L 3656 897
z
M 2544 3316
L 4088 3316
L 4088 2916
L 2544 2916
L 2544 3316
z
M 5050 5041
L 5369 5291
Q 5681 4978 5963 4666
L 5606 4384
Q 5350 4709 5050 5041
z
" transform="scale(0.015625)"/>
       <path id="MicrosoftYaHei-53f3" d="M 250 4359
L 2469 4359
Q 2700 4834 2900 5341
L 3406 5172
Q 3225 4753 3031 4359
L 6250 4359
L 6250 3884
L 2791 3884
Q 2431 3200 2028 2584
L 5688 2584
L 5688 -803
L 5188 -803
L 5188 -266
L 2000 -266
L 2000 -803
L 1500 -803
L 1500 1828
Q 1028 1197 506 647
Q 388 784 119 1022
Q 1366 2278 2228 3884
L 250 3884
L 250 4359
z
M 5188 2109
L 2000 2109
L 2000 197
L 5188 197
L 5188 2109
z
" transform="scale(0.015625)"/>
       <path id="MicrosoftYaHei-5ea6" d="M 1550 1216
L 1550 1628
L 5469 1628
L 5469 1222
Q 4903 613 4147 163
Q 5050 -200 6263 -309
L 6019 -797
Q 4625 -603 3644 -109
Q 2600 -619 1250 -866
Q 1150 -666 994 -416
Q 2231 -222 3166 166
Q 2497 600 2066 1216
L 1550 1216
z
M 1363 3541
L 2294 3541
L 2294 4066
L 2769 4066
L 2769 3541
L 4538 3541
L 4538 4072
L 5013 4072
L 5013 3541
L 6150 3541
L 6150 3128
L 5013 3128
L 5013 1928
L 4538 1928
L 4538 2147
L 2769 2147
L 2769 1922
L 2294 1922
L 2294 3128
L 1363 3128
L 1363 3541
z
M 3025 5172
L 3481 5391
Q 3694 5056 3909 4634
L 6213 4634
L 6213 4197
L 1225 4197
L 1225 2316
Q 1225 178 394 -872
Q 238 -666 38 -447
Q 725 397 738 2347
L 738 4634
L 3331 4634
Q 3188 4909 3025 5172
z
M 2769 2547
L 4538 2547
L 4538 3128
L 2769 3128
L 2769 2547
z
M 4819 1216
L 2588 1216
Q 3031 728 3656 391
Q 4334 741 4819 1216
z
" transform="scale(0.015625)"/>
      </defs>
      <use xlink:href="#MicrosoftYaHei-5de6"/>
      <use xlink:href="#MicrosoftYaHei-76f8" x="100"/>
      <use xlink:href="#MicrosoftYaHei-4f4d" x="200"/>
      <use xlink:href="#MicrosoftYaHei-51cf" x="300"/>
      <use xlink:href="#MicrosoftYaHei-53f3" x="400"/>
      <use xlink:href="#MicrosoftYaHei-76f8" x="500"/>
      <use xlink:href="#MicrosoftYaHei-4f4d" x="600"/>
      <use xlink:href="#MicrosoftYaHei-20" x="700"/>
      <use xlink:href="#MicrosoftYaHei-28" x="729.589844"/>
      <use xlink:href="#MicrosoftYaHei-5ea6" x="762.988281"/>
      <use xlink:href="#MicrosoftYaHei-29" x="862.988281"/>
     </g>
    </g>
   </g>
   <g id="line2d_13">
    <path d="M 73.677677 211.511047
L 621.793718 24.712375
L 621.793718 24.712375
" clip-path="url(#pbffc16dc18)" style="fill: none; stroke: #215e83; stroke-width: 1.5; stroke-linecap: square"/>
   </g>
   <g id="line2d_14">
    <path d="M 73.677677 211.511047
L 621.793718 36.387292
L 621.793718 36.387292
" clip-path="url(#pbffc16dc18)" style="fill: none; stroke: #b75637; stroke-width: 1.5; stroke-linecap: square"/>
   </g>
   <g id="line2d_15">
    <path d="M 73.677677 211.511047
L 621.793718 16.929098
L 621.793718 16.929098
" clip-path="url(#pbffc16dc18)" style="fill: none; stroke: #457665; stroke-width: 1.5; stroke-linecap: square"/>
   </g>
   <g id="patch_3">
    <path d="M 46.271875 221.240145
L 46.271875 7.2
" style="fill: none; stroke: #000000; stroke-width: 0.8; stroke-linejoin: miter; stroke-linecap: square"/>
   </g>
   <g id="patch_4">
    <path d="M 46.271875 221.240145
L 649.19952 221.240145
" style="fill: none; stroke: #000000; stroke-width: 0.8; stroke-linejoin: miter; stroke-linecap: square"/>
   </g>
   <g id="legend_1">
    <g id="patch_5">
     <path d="M 53.271875 61.639063
L 159.692188 61.639063
Q 161.692188 61.639063 161.692188 59.639063
L 161.692188 14.2
Q 161.692188 12.2 159.692188 12.2
L 53.271875 12.2
Q 51.271875 12.2 51.271875 14.2
L 51.271875 59.639063
Q 51.271875 61.639063 53.271875 61.639063
z
" style="fill: #ffffff; opacity: 0.8; stroke: #cccccc; stroke-linejoin: miter"/>
    </g>
    <g id="line2d_16">
     <path d="M 55.271875 20.69375
L 65.271875 20.69375
L 75.271875 20.69375
" style="fill: none; stroke: #215e83; stroke-width: 1.5; stroke-linecap: square"/>
    </g>
    <g id="text_15">
     <!-- 目标 200 μs -->
     <g transform="translate(83.271875 24.19375) scale(0.1 -0.1)">
      <defs>
       <path id="MicrosoftYaHei-76ee" d="M 944 5016
L 5469 5016
L 5469 -772
L 4938 -772
L 4938 -303
L 1475 -303
L 1475 -772
L 944 -772
L 944 5016
z
M 1475 1341
L 1475 159
L 4938 159
L 4938 1341
L 1475 1341
z
M 1475 2947
L 1475 1778
L 4938 1778
L 4938 2947
L 1475 2947
z
M 1475 4553
L 1475 3384
L 4938 3384
L 4938 4553
L 1475 4553
z
" transform="scale(0.015625)"/>
       <path id="MicrosoftYaHei-6807" d="M 75 1409
Q 769 2478 1025 3647
L 119 3647
L 119 4072
L 1069 4072
L 1069 5297
L 1506 5297
L 1506 4072
L 2356 4072
L 2356 3647
L 1506 3647
L 1506 2541
L 1775 2822
Q 2175 2478 2481 2159
L 2150 1816
Q 1850 2156 1506 2503
L 1506 -797
L 1069 -797
L 1069 2588
Q 738 1513 281 859
Q 194 1128 75 1409
z
M 2350 3097
L 6250 3097
L 6250 2659
L 4525 2659
L 4525 47
Q 4525 -734 3806 -734
Q 3469 -741 2975 -728
Q 2944 -503 2888 -209
Q 3319 -259 3675 -259
Q 4050 -259 4050 203
L 4050 2659
L 2350 2659
L 2350 3097
z
M 2638 4928
L 5963 4928
L 5963 4491
L 2638 4491
L 2638 4928
z
M 4938 1853
L 5381 2066
Q 5975 928 6369 72
L 5869 -147
Q 5463 822 4938 1853
z
M 2931 2066
L 3400 1878
Q 2888 734 2381 -153
Q 2188 -41 1925 66
Q 2425 872 2931 2066
z
" transform="scale(0.015625)"/>
       <path id="MicrosoftYaHei-3bc" d="M 2947 0
Q 2869 238 2869 559
L 2853 559
Q 2578 -78 1934 -78
Q 1400 -78 1169 316
L 1156 316
L 1156 -1338
L 547 -1338
L 547 3456
L 1156 3456
L 1156 1359
Q 1156 941 1379 695
Q 1603 450 1966 450
Q 2363 450 2606 734
Q 2850 1019 2850 1494
L 2850 3456
L 3469 3456
L 3469 913
Q 3469 259 3581 0
L 2947 0
z
" transform="scale(0.015625)"/>
       <path id="MicrosoftYaHei-73" d="M 353 747
Q 816 413 1350 413
Q 2066 413 2066 881
Q 2066 1081 1909 1211
Q 1753 1341 1275 1519
Q 700 1750 528 1976
Q 356 2203 356 2525
Q 356 2984 745 3261
Q 1134 3538 1703 3538
Q 2144 3538 2522 3384
L 2522 2794
Q 2134 3044 1644 3044
Q 1350 3044 1165 2916
Q 981 2788 981 2578
Q 981 2372 1114 2256
Q 1247 2141 1703 1959
Q 2281 1744 2484 1512
Q 2688 1281 2688 941
Q 2688 466 2298 192
Q 1909 -81 1291 -81
Q 753 -81 353 122
L 353 747
z
" transform="scale(0.015625)"/>
      </defs>
      <use xlink:href="#MicrosoftYaHei-76ee"/>
      <use xlink:href="#MicrosoftYaHei-6807" x="100"/>
      <use xlink:href="#MicrosoftYaHei-20" x="200"/>
      <use xlink:href="#MicrosoftYaHei-32" x="229.589844"/>
      <use xlink:href="#MicrosoftYaHei-30" x="288.232422"/>
      <use xlink:href="#MicrosoftYaHei-30" x="346.875"/>
      <use xlink:href="#MicrosoftYaHei-20" x="405.517578"/>
      <use xlink:href="#MicrosoftYaHei-3bc" x="435.107422"/>
      <use xlink:href="#MicrosoftYaHei-73" x="497.900391"/>
     </g>
    </g>
    <g id="line2d_17">
     <path d="M 55.271875 36.173438
L 65.271875 36.173438
L 75.271875 36.173438
" style="fill: none; stroke: #b75637; stroke-width: 1.5; stroke-linecap: square"/>
    </g>
    <g id="text_16">
     <!-- 9 点：187.5 μs -->
     <g transform="translate(83.271875 39.673438) scale(0.1 -0.1)">
      <defs>
       <path id="MicrosoftYaHei-39" d="M 578 656
Q 978 425 1441 425
Q 2091 425 2448 937
Q 2806 1450 2806 2394
Q 2800 2388 2794 2394
Q 2475 1788 1722 1788
Q 1113 1788 713 2206
Q 313 2625 313 3294
Q 313 4006 750 4464
Q 1188 4922 1884 4922
Q 2606 4922 3012 4355
Q 3419 3788 3419 2703
Q 3419 1363 2894 641
Q 2369 -81 1441 -81
Q 931 -81 578 84
L 578 656
z
M 931 3372
Q 931 2884 1181 2598
Q 1431 2313 1872 2313
Q 2253 2313 2512 2573
Q 2772 2834 2772 3206
Q 2772 3728 2514 4070
Q 2256 4413 1834 4413
Q 1444 4413 1187 4116
Q 931 3819 931 3372
z
" transform="scale(0.015625)"/>
       <path id="MicrosoftYaHei-70b9" d="M 900 3378
L 2863 3378
L 2863 5341
L 3388 5341
L 3388 4591
L 6181 4591
L 6181 4141
L 3388 4141
L 3388 3378
L 5600 3378
L 5600 991
L 5088 991
L 5088 1253
L 1413 1253
L 1413 991
L 900 991
L 900 3378
z
M 5088 2928
L 1413 2928
L 1413 1703
L 5088 1703
L 5088 2928
z
M 5425 847
Q 5925 91 6225 -516
L 5750 -772
Q 5438 -134 4994 622
L 5425 847
z
M 1369 553
Q 894 -303 531 -791
L 100 -484
Q 506 53 931 803
L 1369 553
z
M 2413 828
Q 2700 197 2913 -503
L 2406 -678
Q 2213 3 1963 666
L 2413 828
z
M 3906 872
Q 4206 253 4450 -422
L 3956 -616
Q 3781 -53 3450 697
L 3906 872
z
" transform="scale(0.015625)"/>
       <path id="MicrosoftYaHei-ff1a" d="M 1606 3531
Q 1772 3531 1890 3415
Q 2009 3300 2009 3138
Q 2009 2975 1893 2858
Q 1778 2741 1606 2741
Q 1434 2741 1318 2858
Q 1203 2975 1203 3138
Q 1203 3300 1322 3415
Q 1441 3531 1606 3531
z
M 1606 716
Q 1772 716 1890 600
Q 2009 484 2009 319
Q 2009 150 1890 36
Q 1772 -78 1606 -78
Q 1441 -78 1322 36
Q 1203 150 1203 319
Q 1203 484 1322 600
Q 1441 716 1606 716
z
" transform="scale(0.015625)"/>
       <path id="MicrosoftYaHei-38" d="M 306 1350
Q 306 1769 556 2122
Q 806 2475 1200 2625
Q 884 2803 700 3081
Q 516 3359 516 3684
Q 516 4028 692 4312
Q 869 4597 1183 4759
Q 1497 4922 1875 4922
Q 2256 4922 2572 4761
Q 2888 4600 3063 4315
Q 3238 4031 3238 3684
Q 3238 3366 3058 3086
Q 2878 2806 2559 2625
Q 2953 2472 3200 2119
Q 3447 1766 3447 1350
Q 3447 938 3250 611
Q 3053 284 2690 103
Q 2328 -78 1875 -78
Q 1425 -78 1065 103
Q 706 284 506 612
Q 306 941 306 1350
z
M 906 1378
Q 906 947 1172 687
Q 1438 428 1878 428
Q 2309 428 2582 692
Q 2856 956 2856 1378
Q 2856 1778 2579 2051
Q 2303 2325 1878 2325
Q 1456 2325 1181 2058
Q 906 1791 906 1378
z
M 1081 3634
Q 1081 3309 1312 3076
Q 1544 2844 1878 2844
Q 2206 2844 2445 3078
Q 2684 3313 2684 3634
Q 2684 3963 2454 4191
Q 2225 4419 1878 4419
Q 1534 4419 1307 4195
Q 1081 3972 1081 3634
z
" transform="scale(0.015625)"/>
       <path id="MicrosoftYaHei-37" d="M 3422 4463
Q 2659 3131 2223 1998
Q 1788 866 1684 0
L 1047 0
Q 1163 853 1594 1947
Q 2025 3041 2747 4300
L 347 4300
L 347 4841
L 3422 4841
L 3422 4463
z
" transform="scale(0.015625)"/>
       <path id="MicrosoftYaHei-2e" d="M 372 322
Q 372 491 487 606
Q 603 722 775 722
Q 950 722 1065 605
Q 1181 488 1181 322
Q 1181 159 1065 42
Q 950 -75 772 -75
Q 600 -75 486 42
Q 372 159 372 322
z
" transform="scale(0.015625)"/>
      </defs>
      <use xlink:href="#MicrosoftYaHei-39"/>
      <use xlink:href="#MicrosoftYaHei-20" x="58.642578"/>
      <use xlink:href="#MicrosoftYaHei-70b9" x="88.232422"/>
      <use xlink:href="#MicrosoftYaHei-ff1a" x="188.232422"/>
      <use xlink:href="#MicrosoftYaHei-31" x="288.232422"/>
      <use xlink:href="#MicrosoftYaHei-38" x="346.875"/>
      <use xlink:href="#MicrosoftYaHei-37" x="405.517578"/>
      <use xlink:href="#MicrosoftYaHei-2e" x="464.160156"/>
      <use xlink:href="#MicrosoftYaHei-35" x="488.232422"/>
      <use xlink:href="#MicrosoftYaHei-20" x="546.875"/>
      <use xlink:href="#MicrosoftYaHei-3bc" x="576.464844"/>
      <use xlink:href="#MicrosoftYaHei-73" x="639.257812"/>
     </g>
    </g>
    <g id="line2d_18">
     <path d="M 55.271875 51.653125
L 65.271875 51.653125
L 75.271875 51.653125
" style="fill: none; stroke: #457665; stroke-width: 1.5; stroke-linecap: square"/>
    </g>
    <g id="text_17">
     <!-- 10 点：208.3 μs -->
     <g transform="translate(83.271875 55.153125) scale(0.1 -0.1)">
      <use xlink:href="#MicrosoftYaHei-31"/>
      <use xlink:href="#MicrosoftYaHei-30" x="58.642578"/>
      <use xlink:href="#MicrosoftYaHei-20" x="117.285156"/>
      <use xlink:href="#MicrosoftYaHei-70b9" x="146.875"/>
      <use xlink:href="#MicrosoftYaHei-ff1a" x="246.875"/>
      <use xlink:href="#MicrosoftYaHei-32" x="346.875"/>
      <use xlink:href="#MicrosoftYaHei-30" x="405.517578"/>
      <use xlink:href="#MicrosoftYaHei-38" x="464.160156"/>
      <use xlink:href="#MicrosoftYaHei-2e" x="522.802734"/>
      <use xlink:href="#MicrosoftYaHei-33" x="546.875"/>
      <use xlink:href="#MicrosoftYaHei-20" x="605.517578"/>
      <use xlink:href="#MicrosoftYaHei-3bc" x="635.107422"/>
      <use xlink:href="#MicrosoftYaHei-73" x="697.900391"/>
     </g>
    </g>
   </g>
  </g>
 </g>
 <defs>
  <clipPath id="pbffc16dc18">
   <rect x="46.271875" y="7.2" width="602.927645" height="214.040145"/>
  </clipPath>
 </defs>
</svg>
