<svg xmlns="http://www.w3.org/2000/svg" width="1400" height="667" viewBox="0 0 1400 667" role="img" aria-labelledby="title desc"><title id="title">位置与时域的候选解释</title><desc id="desc">同一复合音的示意位置分布、合成放电事件，以及并行的候选音高计算。箭头为解释路径。</desc><defs><marker id="arrow" markerWidth="8" markerHeight="8" refX="7" refY="4" orient="auto"><path d="M0,0 L8,4 L0,8" fill="#555555"/></marker></defs><rect width="1400" height="667" fill="white"/><g font-family="Microsoft YaHei, Noto Sans CJK SC, sans-serif"><text x="700" y="36" font-size="24" fill="#202020" text-anchor="middle" font-weight="400">输入：200、400、600、800 Hz 谐波复合音</text>
<path d="M544,55 L345,106" fill="none" stroke="#555555" stroke-width="1.8" marker-end="url(#arrow)"/>
<path d="M857,55 L1070,106" fill="none" stroke="#555555" stroke-width="1.8" marker-end="url(#arrow)"/>
<text x="48" y="140" font-size="25" fill="#202020" text-anchor="start" font-weight="700">(a)</text>
<text x="97" y="140" font-size="24" fill="#202020" text-anchor="start" font-weight="400">位置相关线索</text>
<text x="768" y="140" font-size="25" fill="#202020" text-anchor="start" font-weight="700">(b)</text>
<text x="817" y="140" font-size="24" fill="#202020" text-anchor="start" font-weight="400">时域相关线索</text>
<line x1="127" y1="378" x2="625" y2="378" stroke="#202020" stroke-width="1.5" />
<line x1="127" y1="213" x2="127" y2="378" stroke="#202020" stroke-width="1.5" />
<line x1="127" y1="378" x2="127" y2="383" stroke="#202020" stroke-width="1.5" />
<text x="127" y="408" font-size="20" fill="#202020" text-anchor="middle" font-weight="400">0</text>
<line x1="226.60000000000002" y1="378" x2="226.60000000000002" y2="383" stroke="#202020" stroke-width="1.5" />
<text x="226.60000000000002" y="408" font-size="20" fill="#202020" text-anchor="middle" font-weight="400">200</text>
<line x1="326.20000000000005" y1="378" x2="326.20000000000005" y2="383" stroke="#202020" stroke-width="1.5" />
<text x="326.20000000000005" y="408" font-size="20" fill="#202020" text-anchor="middle" font-weight="400">400</text>
<line x1="425.8" y1="378" x2="425.8" y2="383" stroke="#202020" stroke-width="1.5" />
<text x="425.8" y="408" font-size="20" fill="#202020" text-anchor="middle" font-weight="400">600</text>
<line x1="525.4000000000001" y1="378" x2="525.4000000000001" y2="383" stroke="#202020" stroke-width="1.5" />
<text x="525.4000000000001" y="408" font-size="20" fill="#202020" text-anchor="middle" font-weight="400">800</text>
<line x1="625" y1="378" x2="625" y2="383" stroke="#202020" stroke-width="1.5" />
<text x="625" y="408" font-size="20" fill="#202020" text-anchor="middle" font-weight="400">1000</text>
<line x1="122" y1="213" x2="127" y2="213" stroke="#202020" stroke-width="1.5" />
<text x="114" y="220" font-size="19" fill="#202020" text-anchor="end" font-weight="400">1</text>
<line x1="122" y1="378" x2="127" y2="378" stroke="#202020" stroke-width="1.5" />
<text x="114" y="385" font-size="19" fill="#202020" text-anchor="end" font-weight="400">0</text>
<text x="376" y="441" font-size="21" fill="#202020" text-anchor="middle" font-weight="400">频率 / Hz</text>
<text x="62" y="295.5" font-size="21" text-anchor="middle" transform="rotate(-90 62 295.5)" fill="#202020">示意响应 / 相对值</text>
<path d="M127.00,378.00 L127.71,378.00 L128.42,378.00 L129.13,378.00 L129.85,378.00 L130.56,378.00 L131.27,377.99 L131.98,377.99 L132.69,377.99 L133.40,377.99 L134.11,377.99 L134.83,377.99 L135.54,377.99 L136.25,377.99 L136.96,377.98 L137.67,377.98 L138.38,377.98 L139.09,377.97 L139.81,377.97 L140.52,377.97 L141.23,377.96 L141.94,377.95 L142.65,377.95 L143.36,377.94 L144.07,377.93 L144.79,377.92 L145.50,377.91 L146.21,377.90 L146.92,377.88 L147.63,377.87 L148.34,377.85 L149.05,377.83 L149.77,377.81 L150.48,377.78 L151.19,377.75 L151.90,377.72 L152.61,377.68 L153.32,377.64 L154.03,377.60 L154.75,377.55 L155.46,377.49 L156.17,377.43 L156.88,377.36 L157.59,377.29 L158.30,377.20 L159.01,377.11 L159.73,377.01 L160.44,376.89 L161.15,376.77 L161.86,376.63 L162.57,376.48 L163.28,376.31 L163.99,376.13 L164.71,375.93 L165.42,375.71 L166.13,375.47 L166.84,375.21 L167.55,374.93 L168.26,374.63 L168.97,374.29 L169.69,373.93 L170.40,373.54 L171.11,373.11 L171.82,372.65 L172.53,372.16 L173.24,371.63 L173.95,371.05 L174.67,370.44 L175.38,369.77 L176.09,369.07 L176.80,368.31 L177.51,367.49 L178.22,366.63 L178.93,365.70 L179.65,364.72 L180.36,363.68 L181.07,362.57 L181.78,361.39 L182.49,360.14 L183.20,358.83 L183.91,357.44 L184.63,355.97 L185.34,354.43 L186.05,352.81 L186.76,351.11 L187.47,349.32 L188.18,347.46 L188.89,345.51 L189.61,343.47 L190.32,341.35 L191.03,339.15 L191.74,336.86 L192.45,334.48 L193.16,332.02 L193.87,329.48 L194.59,326.86 L195.30,324.16 L196.01,321.38 L196.72,318.53 L197.43,315.60 L198.14,312.61 L198.85,309.55 L199.57,306.43 L200.28,303.26 L200.99,300.04 L201.70,296.77 L202.41,293.46 L203.12,290.12 L203.83,286.75 L204.55,283.36 L205.26,279.96 L205.97,276.56 L206.68,273.16 L207.39,269.77 L208.10,266.40 L208.81,263.06 L209.53,259.76 L210.24,256.50 L210.95,253.29 L211.66,250.15 L212.37,247.08 L213.08,244.10 L213.79,241.20 L214.51,238.40 L215.22,235.71 L215.93,233.14 L216.64,230.69 L217.35,228.37 L218.06,226.19 L218.77,224.15 L219.49,222.27 L220.20,220.55 L220.91,219.00 L221.62,217.61 L222.33,216.40 L223.04,215.37 L223.75,214.52 L224.47,213.86 L225.18,213.38 L225.89,213.09 L226.60,213.00 L227.31,213.09 L228.02,213.38 L228.73,213.85 L229.45,214.52 L230.16,215.36 L230.87,216.40 L231.58,217.61 L232.29,218.99 L233.00,220.54 L233.71,222.26 L234.43,224.14 L235.14,226.17 L235.85,228.35 L236.56,230.67 L237.27,233.12 L237.98,235.69 L238.69,238.38 L239.41,241.17 L240.12,244.06 L240.83,247.04 L241.54,250.11 L242.25,253.24 L242.96,256.44 L243.67,259.69 L244.39,262.98 L245.10,266.31 L245.81,269.67 L246.52,273.04 L247.23,276.43 L247.94,279.81 L248.65,283.19 L249.37,286.56 L250.08,289.90 L250.79,293.21 L251.50,296.49 L252.21,299.72 L252.92,302.90 L253.63,306.03 L254.35,309.10 L255.06,312.10 L255.77,315.03 L256.48,317.89 L257.19,320.67 L257.90,323.36 L258.61,325.97 L259.33,328.49 L260.04,330.92 L260.75,333.25 L261.46,335.49 L262.17,337.62 L262.88,339.66 L263.59,341.60 L264.31,343.44 L265.02,345.17 L265.73,346.80 L266.44,348.32 L267.15,349.74 L267.86,351.05 L268.57,352.26 L269.29,353.37 L270.00,354.36 L270.71,355.26 L271.42,356.04 L272.13,356.73 L272.84,357.30 L273.55,357.77 L274.27,358.14 L274.98,358.40 L275.69,358.56 L276.40,358.61 L277.11,358.56 L277.82,358.40 L278.53,358.14 L279.25,357.77 L279.96,357.30 L280.67,356.73 L281.38,356.04 L282.09,355.26 L282.80,354.36 L283.51,353.37 L284.23,352.26 L284.94,351.05 L285.65,349.74 L286.36,348.32 L287.07,346.80 L287.78,345.17 L288.49,343.44 L289.21,341.60 L289.92,339.66 L290.63,337.62 L291.34,335.49 L292.05,333.25 L292.76,330.92 L293.47,328.49 L294.19,325.97 L294.90,323.36 L295.61,320.67 L296.32,317.89 L297.03,315.03 L297.74,312.10 L298.45,309.10 L299.17,306.03 L299.88,302.90 L300.59,299.72 L301.30,296.49 L302.01,293.21 L302.72,289.90 L303.43,286.56 L304.15,283.19 L304.86,279.81 L305.57,276.43 L306.28,273.04 L306.99,269.67 L307.70,266.31 L308.41,262.98 L309.13,259.69 L309.84,256.44 L310.55,253.24 L311.26,250.11 L311.97,247.04 L312.68,244.06 L313.39,241.17 L314.11,238.38 L314.82,235.69 L315.53,233.12 L316.24,230.67 L316.95,228.35 L317.66,226.17 L318.37,224.14 L319.09,222.26 L319.80,220.54 L320.51,218.99 L321.22,217.60 L321.93,216.39 L322.64,215.36 L323.35,214.52 L324.07,213.85 L324.78,213.38 L325.49,213.09 L326.20,213.00 L326.91,213.09 L327.62,213.38 L328.33,213.85 L329.05,214.52 L329.76,215.36 L330.47,216.39 L331.18,217.60 L331.89,218.99 L332.60,220.54 L333.31,222.26 L334.03,224.14 L334.74,226.17 L335.45,228.35 L336.16,230.67 L336.87,233.12 L337.58,235.69 L338.29,238.38 L339.01,241.17 L339.72,244.06 L340.43,247.04 L341.14,250.11 L341.85,253.24 L342.56,256.44 L343.27,259.69 L343.99,262.98 L344.70,266.31 L345.41,269.67 L346.12,273.04 L346.83,276.43 L347.54,279.81 L348.25,283.19 L348.97,286.56 L349.68,289.90 L350.39,293.21 L351.10,296.49 L351.81,299.72 L352.52,302.90 L353.23,306.03 L353.95,309.10 L354.66,312.10 L355.37,315.03 L356.08,317.89 L356.79,320.67 L357.50,323.36 L358.21,325.97 L358.93,328.49 L359.64,330.92 L360.35,333.25 L361.06,335.49 L361.77,337.62 L362.48,339.66 L363.19,341.60 L363.91,343.44 L364.62,345.17 L365.33,346.80 L366.04,348.32 L366.75,349.74 L367.46,351.05 L368.17,352.26 L368.89,353.37 L369.60,354.36 L370.31,355.26 L371.02,356.04 L371.73,356.73 L372.44,357.30 L373.15,357.77 L373.87,358.14 L374.58,358.40 L375.29,358.56 L376.00,358.61 L376.71,358.56 L377.42,358.40 L378.13,358.14 L378.85,357.77 L379.56,357.30 L380.27,356.73 L380.98,356.04 L381.69,355.26 L382.40,354.36 L383.11,353.37 L383.83,352.26 L384.54,351.05 L385.25,349.74 L385.96,348.32 L386.67,346.80 L387.38,345.17 L388.09,343.44 L388.81,341.60 L389.52,339.66 L390.23,337.62 L390.94,335.49 L391.65,333.25 L392.36,330.92 L393.07,328.49 L393.79,325.97 L394.50,323.36 L395.21,320.67 L395.92,317.89 L396.63,315.03 L397.34,312.10 L398.05,309.10 L398.77,306.03 L399.48,302.90 L400.19,299.72 L400.90,296.49 L401.61,293.21 L402.32,289.90 L403.03,286.56 L403.75,283.19 L404.46,279.81 L405.17,276.43 L405.88,273.04 L406.59,269.67 L407.30,266.31 L408.01,262.98 L408.73,259.69 L409.44,256.44 L410.15,253.24 L410.86,250.11 L411.57,247.04 L412.28,244.06 L412.99,241.17 L413.71,238.38 L414.42,235.69 L415.13,233.12 L415.84,230.67 L416.55,228.35 L417.26,226.17 L417.97,224.14 L418.69,222.26 L419.40,220.54 L420.11,218.99 L420.82,217.60 L421.53,216.39 L422.24,215.36 L422.95,214.52 L423.67,213.85 L424.38,213.38 L425.09,213.09 L425.80,213.00 L426.51,213.09 L427.22,213.38 L427.93,213.85 L428.65,214.52 L429.36,215.36 L430.07,216.39 L430.78,217.60 L431.49,218.99 L432.20,220.54 L432.91,222.26 L433.63,224.14 L434.34,226.17 L435.05,228.35 L435.76,230.67 L436.47,233.12 L437.18,235.69 L437.89,238.38 L438.61,241.17 L439.32,244.06 L440.03,247.04 L440.74,250.11 L441.45,253.24 L442.16,256.44 L442.87,259.69 L443.59,262.98 L444.30,266.31 L445.01,269.67 L445.72,273.04 L446.43,276.43 L447.14,279.81 L447.85,283.19 L448.57,286.56 L449.28,289.90 L449.99,293.21 L450.70,296.49 L451.41,299.72 L452.12,302.90 L452.83,306.03 L453.55,309.10 L454.26,312.10 L454.97,315.03 L455.68,317.89 L456.39,320.67 L457.10,323.36 L457.81,325.97 L458.53,328.49 L459.24,330.92 L459.95,333.25 L460.66,335.49 L461.37,337.62 L462.08,339.66 L462.79,341.60 L463.51,343.44 L464.22,345.17 L464.93,346.80 L465.64,348.32 L466.35,349.74 L467.06,351.05 L467.77,352.26 L468.49,353.37 L469.20,354.36 L469.91,355.26 L470.62,356.04 L471.33,356.73 L472.04,357.30 L472.75,357.77 L473.47,358.14 L474.18,358.40 L474.89,358.56 L475.60,358.61 L476.31,358.56 L477.02,358.40 L477.73,358.14 L478.45,357.77 L479.16,357.30 L479.87,356.73 L480.58,356.04 L481.29,355.26 L482.00,354.36 L482.71,353.37 L483.43,352.26 L484.14,351.05 L484.85,349.74 L485.56,348.32 L486.27,346.80 L486.98,345.17 L487.69,343.44 L488.41,341.60 L489.12,339.66 L489.83,337.62 L490.54,335.49 L491.25,333.25 L491.96,330.92 L492.67,328.49 L493.39,325.97 L494.10,323.36 L494.81,320.67 L495.52,317.89 L496.23,315.03 L496.94,312.10 L497.65,309.10 L498.37,306.03 L499.08,302.90 L499.79,299.72 L500.50,296.49 L501.21,293.21 L501.92,289.90 L502.63,286.56 L503.35,283.19 L504.06,279.81 L504.77,276.43 L505.48,273.04 L506.19,269.67 L506.90,266.31 L507.61,262.98 L508.33,259.69 L509.04,256.44 L509.75,253.24 L510.46,250.11 L511.17,247.04 L511.88,244.06 L512.59,241.17 L513.31,238.38 L514.02,235.69 L514.73,233.12 L515.44,230.67 L516.15,228.35 L516.86,226.17 L517.57,224.14 L518.29,222.26 L519.00,220.54 L519.71,218.99 L520.42,217.61 L521.13,216.40 L521.84,215.36 L522.55,214.52 L523.27,213.85 L523.98,213.38 L524.69,213.09 L525.40,213.00 L526.11,213.09 L526.82,213.38 L527.53,213.86 L528.25,214.52 L528.96,215.37 L529.67,216.40 L530.38,217.61 L531.09,219.00 L531.80,220.55 L532.51,222.27 L533.23,224.15 L533.94,226.19 L534.65,228.37 L535.36,230.69 L536.07,233.14 L536.78,235.71 L537.49,238.40 L538.21,241.20 L538.92,244.10 L539.63,247.08 L540.34,250.15 L541.05,253.29 L541.76,256.50 L542.47,259.76 L543.19,263.06 L543.90,266.40 L544.61,269.77 L545.32,273.16 L546.03,276.56 L546.74,279.96 L547.45,283.36 L548.17,286.75 L548.88,290.12 L549.59,293.46 L550.30,296.77 L551.01,300.04 L551.72,303.26 L552.43,306.43 L553.15,309.55 L553.86,312.61 L554.57,315.60 L555.28,318.53 L555.99,321.38 L556.70,324.16 L557.41,326.86 L558.13,329.48 L558.84,332.02 L559.55,334.48 L560.26,336.86 L560.97,339.15 L561.68,341.35 L562.39,343.47 L563.11,345.51 L563.82,347.46 L564.53,349.32 L565.24,351.11 L565.95,352.81 L566.66,354.43 L567.37,355.97 L568.09,357.44 L568.80,358.83 L569.51,360.14 L570.22,361.39 L570.93,362.57 L571.64,363.68 L572.35,364.72 L573.07,365.70 L573.78,366.63 L574.49,367.49 L575.20,368.31 L575.91,369.07 L576.62,369.77 L577.33,370.44 L578.05,371.05 L578.76,371.63 L579.47,372.16 L580.18,372.65 L580.89,373.11 L581.60,373.54 L582.31,373.93 L583.03,374.29 L583.74,374.63 L584.45,374.93 L585.16,375.21 L585.87,375.47 L586.58,375.71 L587.29,375.93 L588.01,376.13 L588.72,376.31 L589.43,376.48 L590.14,376.63 L590.85,376.77 L591.56,376.89 L592.27,377.01 L592.99,377.11 L593.70,377.20 L594.41,377.29 L595.12,377.36 L595.83,377.43 L596.54,377.49 L597.25,377.55 L597.97,377.60 L598.68,377.64 L599.39,377.68 L600.10,377.72 L600.81,377.75 L601.52,377.78 L602.23,377.81 L602.95,377.83 L603.66,377.85 L604.37,377.87 L605.08,377.88 L605.79,377.90 L606.50,377.91 L607.21,377.92 L607.93,377.93 L608.64,377.94 L609.35,377.95 L610.06,377.95 L610.77,377.96 L611.48,377.97 L612.19,377.97 L612.91,377.97 L613.62,377.98 L614.33,377.98 L615.04,377.98 L615.75,377.99 L616.46,377.99 L617.17,377.99 L617.89,377.99 L618.60,377.99 L619.31,377.99 L620.02,377.99 L620.73,377.99 L621.44,378.00 L622.15,378.00 L622.87,378.00 L623.58,378.00 L624.29,378.00 L625.00,378.00" fill="none" stroke="#0072b2" stroke-width="2.4" stroke-linecap="round" stroke-linejoin="round" />
<line x1="861" y1="236" x2="1322" y2="236" stroke="#cccccc" stroke-width="1.5" />
<text x="839" y="243" font-size="20" fill="#202020" text-anchor="end" font-weight="400">1</text>
<line x1="863.305" y1="236" x2="863.305" y2="208" stroke="#d55e00" stroke-width="2" />
<line x1="980.86" y1="236" x2="980.86" y2="208" stroke="#d55e00" stroke-width="2" />
<line x1="1093.805" y1="236" x2="1093.805" y2="208" stroke="#d55e00" stroke-width="2" />
<line x1="1213.665" y1="236" x2="1213.665" y2="208" stroke="#d55e00" stroke-width="2" />
<line x1="861" y1="282" x2="1322" y2="282" stroke="#cccccc" stroke-width="1.5" />
<text x="839" y="289" font-size="20" fill="#202020" text-anchor="end" font-weight="400">2</text>
<line x1="865.61" y1="282" x2="865.61" y2="254" stroke="#d55e00" stroke-width="2" />
<line x1="1098.415" y1="282" x2="1098.415" y2="254" stroke="#d55e00" stroke-width="2" />
<line x1="1209.055" y1="282" x2="1209.055" y2="254" stroke="#d55e00" stroke-width="2" />
<line x1="861" y1="328" x2="1322" y2="328" stroke="#cccccc" stroke-width="1.5" />
<text x="839" y="335" font-size="20" fill="#202020" text-anchor="end" font-weight="400">3</text>
<line x1="983.165" y1="328" x2="983.165" y2="300" stroke="#d55e00" stroke-width="2" />
<line x1="1096.1100000000001" y1="328" x2="1096.1100000000001" y2="300" stroke="#d55e00" stroke-width="2" />
<line x1="861" y1="374" x2="1322" y2="374" stroke="#cccccc" stroke-width="1.5" />
<text x="839" y="381" font-size="20" fill="#202020" text-anchor="end" font-weight="400">4</text>
<line x1="863.305" y1="374" x2="863.305" y2="346" stroke="#d55e00" stroke-width="2" />
<line x1="978.5550000000001" y1="374" x2="978.5550000000001" y2="346" stroke="#d55e00" stroke-width="2" />
<line x1="1211.3600000000001" y1="374" x2="1211.3600000000001" y2="346" stroke="#d55e00" stroke-width="2" />
<text x="786" y="305" font-size="21" text-anchor="middle" transform="rotate(-90 786 305)" fill="#202020">合成放电序列</text>
<text x="861" y="416" font-size="20" fill="#202020" text-anchor="middle" font-weight="400">0</text>
<text x="976.25" y="416" font-size="20" fill="#202020" text-anchor="middle" font-weight="400">5</text>
<text x="1091.5" y="416" font-size="20" fill="#202020" text-anchor="middle" font-weight="400">10</text>
<text x="1206.75" y="416" font-size="20" fill="#202020" text-anchor="middle" font-weight="400">15</text>
<text x="1322" y="416" font-size="20" fill="#202020" text-anchor="middle" font-weight="400">20</text>
<text x="1091" y="449" font-size="21" fill="#202020" text-anchor="middle" font-weight="400">时间 / ms</text>
<text x="373" y="497" font-size="22" fill="#0072b2" text-anchor="middle" font-weight="400">候选计算：响应峰之间的关系</text>
<text x="1085" y="497" font-size="22" fill="#d55e00" text-anchor="middle" font-weight="400">候选计算：重复规律与放电间隔</text>
<path d="M373,520 L595,587" fill="none" stroke="#555555" stroke-width="1.8" marker-end="url(#arrow)"/>
<path d="M1085,520 L813,587" fill="none" stroke="#555555" stroke-width="1.8" marker-end="url(#arrow)"/>
<text x="700" y="625" font-size="24" fill="#202020" text-anchor="middle" font-weight="400">音高判断：可能联合利用位置与时域信息</text></g></svg>