<svg xmlns="http://www.w3.org/2000/svg" width="1400" height="638" viewBox="0 0 1400 638" role="img" aria-labelledby="title desc"><title id="title">音高任务示意</title><desc id="desc">辨别、高低判断、排序、匹配、旋律与音程五种任务并列示意，没有难度顺序。</desc><defs><marker id="arrow" markerWidth="8" markerHeight="8" refX="7" refY="4" orient="auto"><path d="M0,0 L8,4 L0,8" fill="#555555"/></marker></defs><rect width="1400" height="638" fill="white"/><g font-family="Microsoft YaHei, Noto Sans CJK SC, sans-serif"><text x="48" y="38" font-size="25" fill="#202020" text-anchor="start" font-weight="700">(a)</text>
<text x="97" y="38" font-size="24" fill="#202020" text-anchor="start" font-weight="400">差异辨别</text>
<text x="518" y="38" font-size="25" fill="#202020" text-anchor="start" font-weight="700">(b)</text>
<text x="567" y="38" font-size="24" fill="#202020" text-anchor="start" font-weight="400">高低判断</text>
<text x="981" y="38" font-size="25" fill="#202020" text-anchor="start" font-weight="700">(c)</text>
<text x="1030" y="38" font-size="24" fill="#202020" text-anchor="start" font-weight="400">音高排序</text>
<path d="M91.00,151.00 L91.39,148.24 L91.78,145.53 L92.17,142.90 L92.56,140.40 L92.95,138.07 L93.34,135.94 L93.73,134.05 L94.12,132.42 L94.51,131.09 L94.90,130.08 L95.29,129.39 L95.68,129.04 L96.07,129.04 L96.46,129.39 L96.85,130.08 L97.24,131.09 L97.63,132.42 L98.02,134.05 L98.41,135.94 L98.80,138.07 L99.19,140.40 L99.58,142.90 L99.97,145.53 L100.36,148.24 L100.75,151.00 L101.14,153.76 L101.53,156.47 L101.92,159.10 L102.31,161.60 L102.70,163.93 L103.09,166.06 L103.48,167.95 L103.87,169.58 L104.26,170.91 L104.65,171.92 L105.04,172.61 L105.43,172.96 L105.82,172.96 L106.21,172.61 L106.60,171.92 L106.99,170.91 L107.38,169.58 L107.77,167.95 L108.16,166.06 L108.55,163.93 L108.94,161.60 L109.33,159.10 L109.72,156.47 L110.11,153.76 L110.50,151.00 L110.89,148.24 L111.28,145.53 L111.67,142.90 L112.06,140.40 L112.45,138.07 L112.84,135.94 L113.23,134.05 L113.62,132.42 L114.01,131.09 L114.40,130.08 L114.79,129.39 L115.18,129.04 L115.57,129.04 L115.96,129.39 L116.35,130.08 L116.74,131.09 L117.13,132.42 L117.52,134.05 L117.91,135.94 L118.30,138.07 L118.69,140.40 L119.08,142.90 L119.47,145.53 L119.86,148.24 L120.25,151.00 L120.64,153.76 L121.03,156.47 L121.42,159.10 L121.81,161.60 L122.20,163.93 L122.59,166.06 L122.98,167.95 L123.37,169.58 L123.76,170.91 L124.15,171.92 L124.54,172.61 L124.93,172.96 L125.32,172.96 L125.71,172.61 L126.10,171.92 L126.49,170.91 L126.88,169.58 L127.27,167.95 L127.66,166.06 L128.05,163.93 L128.44,161.60 L128.83,159.10 L129.22,156.47 L129.61,153.76 L130.00,151.00" fill="none" stroke="#202020" stroke-width="1.5" stroke-linecap="round" stroke-linejoin="round" />
<path d="M139.00,151.00 L139.39,148.24 L139.78,145.53 L140.17,142.90 L140.56,140.40 L140.95,138.07 L141.34,135.94 L141.73,134.05 L142.12,132.42 L142.51,131.09 L142.90,130.08 L143.29,129.39 L143.68,129.04 L144.07,129.04 L144.46,129.39 L144.85,130.08 L145.24,131.09 L145.63,132.42 L146.02,134.05 L146.41,135.94 L146.80,138.07 L147.19,140.40 L147.58,142.90 L147.97,145.53 L148.36,148.24 L148.75,151.00 L149.14,153.76 L149.53,156.47 L149.92,159.10 L150.31,161.60 L150.70,163.93 L151.09,166.06 L151.48,167.95 L151.87,169.58 L152.26,170.91 L152.65,171.92 L153.04,172.61 L153.43,172.96 L153.82,172.96 L154.21,172.61 L154.60,171.92 L154.99,170.91 L155.38,169.58 L155.77,167.95 L156.16,166.06 L156.55,163.93 L156.94,161.60 L157.33,159.10 L157.72,156.47 L158.11,153.76 L158.50,151.00 L158.89,148.24 L159.28,145.53 L159.67,142.90 L160.06,140.40 L160.45,138.07 L160.84,135.94 L161.23,134.05 L161.62,132.42 L162.01,131.09 L162.40,130.08 L162.79,129.39 L163.18,129.04 L163.57,129.04 L163.96,129.39 L164.35,130.08 L164.74,131.09 L165.13,132.42 L165.52,134.05 L165.91,135.94 L166.30,138.07 L166.69,140.40 L167.08,142.90 L167.47,145.53 L167.86,148.24 L168.25,151.00 L168.64,153.76 L169.03,156.47 L169.42,159.10 L169.81,161.60 L170.20,163.93 L170.59,166.06 L170.98,167.95 L171.37,169.58 L171.76,170.91 L172.15,171.92 L172.54,172.61 L172.93,172.96 L173.32,172.96 L173.71,172.61 L174.10,171.92 L174.49,170.91 L174.88,169.58 L175.27,167.95 L175.66,166.06 L176.05,163.93 L176.44,161.60 L176.83,159.10 L177.22,156.47 L177.61,153.76 L178.00,151.00" fill="none" stroke="#202020" stroke-width="1.5" stroke-linecap="round" stroke-linejoin="round" />
<text x="135" y="209" font-size="21" fill="#202020" text-anchor="middle" font-weight="400">甲</text>
<path d="M219.00,151.00 L219.39,148.24 L219.78,145.53 L220.17,142.90 L220.56,140.40 L220.95,138.07 L221.34,135.94 L221.73,134.05 L222.12,132.42 L222.51,131.09 L222.90,130.08 L223.29,129.39 L223.68,129.04 L224.07,129.04 L224.46,129.39 L224.85,130.08 L225.24,131.09 L225.63,132.42 L226.02,134.05 L226.41,135.94 L226.80,138.07 L227.19,140.40 L227.58,142.90 L227.97,145.53 L228.36,148.24 L228.75,151.00 L229.14,153.76 L229.53,156.47 L229.92,159.10 L230.31,161.60 L230.70,163.93 L231.09,166.06 L231.48,167.95 L231.87,169.58 L232.26,170.91 L232.65,171.92 L233.04,172.61 L233.43,172.96 L233.82,172.96 L234.21,172.61 L234.60,171.92 L234.99,170.91 L235.38,169.58 L235.77,167.95 L236.16,166.06 L236.55,163.93 L236.94,161.60 L237.33,159.10 L237.72,156.47 L238.11,153.76 L238.50,151.00 L238.89,148.24 L239.28,145.53 L239.67,142.90 L240.06,140.40 L240.45,138.07 L240.84,135.94 L241.23,134.05 L241.62,132.42 L242.01,131.09 L242.40,130.08 L242.79,129.39 L243.18,129.04 L243.57,129.04 L243.96,129.39 L244.35,130.08 L244.74,131.09 L245.13,132.42 L245.52,134.05 L245.91,135.94 L246.30,138.07 L246.69,140.40 L247.08,142.90 L247.47,145.53 L247.86,148.24 L248.25,151.00 L248.64,153.76 L249.03,156.47 L249.42,159.10 L249.81,161.60 L250.20,163.93 L250.59,166.06 L250.98,167.95 L251.37,169.58 L251.76,170.91 L252.15,171.92 L252.54,172.61 L252.93,172.96 L253.32,172.96 L253.71,172.61 L254.10,171.92 L254.49,170.91 L254.88,169.58 L255.27,167.95 L255.66,166.06 L256.05,163.93 L256.44,161.60 L256.83,159.10 L257.22,156.47 L257.61,153.76 L258.00,151.00" fill="none" stroke="#202020" stroke-width="1.5" stroke-linecap="round" stroke-linejoin="round" />
<path d="M267.00,151.00 L267.39,148.24 L267.78,145.53 L268.17,142.90 L268.56,140.40 L268.95,138.07 L269.34,135.94 L269.73,134.05 L270.12,132.42 L270.51,131.09 L270.90,130.08 L271.29,129.39 L271.68,129.04 L272.07,129.04 L272.46,129.39 L272.85,130.08 L273.24,131.09 L273.63,132.42 L274.02,134.05 L274.41,135.94 L274.80,138.07 L275.19,140.40 L275.58,142.90 L275.97,145.53 L276.36,148.24 L276.75,151.00 L277.14,153.76 L277.53,156.47 L277.92,159.10 L278.31,161.60 L278.70,163.93 L279.09,166.06 L279.48,167.95 L279.87,169.58 L280.26,170.91 L280.65,171.92 L281.04,172.61 L281.43,172.96 L281.82,172.96 L282.21,172.61 L282.60,171.92 L282.99,170.91 L283.38,169.58 L283.77,167.95 L284.16,166.06 L284.55,163.93 L284.94,161.60 L285.33,159.10 L285.72,156.47 L286.11,153.76 L286.50,151.00 L286.89,148.24 L287.28,145.53 L287.67,142.90 L288.06,140.40 L288.45,138.07 L288.84,135.94 L289.23,134.05 L289.62,132.42 L290.01,131.09 L290.40,130.08 L290.79,129.39 L291.18,129.04 L291.57,129.04 L291.96,129.39 L292.35,130.08 L292.74,131.09 L293.13,132.42 L293.52,134.05 L293.91,135.94 L294.30,138.07 L294.69,140.40 L295.08,142.90 L295.47,145.53 L295.86,148.24 L296.25,151.00 L296.64,153.76 L297.03,156.47 L297.42,159.10 L297.81,161.60 L298.20,163.93 L298.59,166.06 L298.98,167.95 L299.37,169.58 L299.76,170.91 L300.15,171.92 L300.54,172.61 L300.93,172.96 L301.32,172.96 L301.71,172.61 L302.10,171.92 L302.49,170.91 L302.88,169.58 L303.27,167.95 L303.66,166.06 L304.05,163.93 L304.44,161.60 L304.83,159.10 L305.22,156.47 L305.61,153.76 L306.00,151.00" fill="none" stroke="#202020" stroke-width="1.5" stroke-linecap="round" stroke-linejoin="round" />
<text x="263" y="209" font-size="21" fill="#202020" text-anchor="middle" font-weight="400">乙</text>
<path d="M347.00,151.00 L347.39,148.24 L347.78,145.53 L348.17,142.90 L348.56,140.40 L348.95,138.07 L349.34,135.94 L349.73,134.05 L350.12,132.42 L350.51,131.09 L350.90,130.08 L351.29,129.39 L351.68,129.04 L352.07,129.04 L352.46,129.39 L352.85,130.08 L353.24,131.09 L353.63,132.42 L354.02,134.05 L354.41,135.94 L354.80,138.07 L355.19,140.40 L355.58,142.90 L355.97,145.53 L356.36,148.24 L356.75,151.00 L357.14,153.76 L357.53,156.47 L357.92,159.10 L358.31,161.60 L358.70,163.93 L359.09,166.06 L359.48,167.95 L359.87,169.58 L360.26,170.91 L360.65,171.92 L361.04,172.61 L361.43,172.96 L361.82,172.96 L362.21,172.61 L362.60,171.92 L362.99,170.91 L363.38,169.58 L363.77,167.95 L364.16,166.06 L364.55,163.93 L364.94,161.60 L365.33,159.10 L365.72,156.47 L366.11,153.76 L366.50,151.00 L366.89,148.24 L367.28,145.53 L367.67,142.90 L368.06,140.40 L368.45,138.07 L368.84,135.94 L369.23,134.05 L369.62,132.42 L370.01,131.09 L370.40,130.08 L370.79,129.39 L371.18,129.04 L371.57,129.04 L371.96,129.39 L372.35,130.08 L372.74,131.09 L373.13,132.42 L373.52,134.05 L373.91,135.94 L374.30,138.07 L374.69,140.40 L375.08,142.90 L375.47,145.53 L375.86,148.24 L376.25,151.00 L376.64,153.76 L377.03,156.47 L377.42,159.10 L377.81,161.60 L378.20,163.93 L378.59,166.06 L378.98,167.95 L379.37,169.58 L379.76,170.91 L380.15,171.92 L380.54,172.61 L380.93,172.96 L381.32,172.96 L381.71,172.61 L382.10,171.92 L382.49,170.91 L382.88,169.58 L383.27,167.95 L383.66,166.06 L384.05,163.93 L384.44,161.60 L384.83,159.10 L385.22,156.47 L385.61,153.76 L386.00,151.00" fill="none" stroke="#202020" stroke-width="1.5" stroke-linecap="round" stroke-linejoin="round" />
<path d="M395.00,151.00 L395.39,146.88 L395.78,142.90 L396.17,139.21 L396.56,135.94 L396.95,133.20 L397.34,131.09 L397.73,129.69 L398.12,129.04 L398.51,129.17 L398.90,130.08 L399.29,131.72 L399.68,134.05 L400.07,136.98 L400.46,140.40 L400.85,144.20 L401.24,148.24 L401.63,152.38 L402.02,156.47 L402.41,160.37 L402.80,163.93 L403.19,167.04 L403.58,169.58 L403.97,171.46 L404.36,172.61 L404.75,173.00 L405.14,172.61 L405.53,171.46 L405.92,169.58 L406.31,167.04 L406.70,163.93 L407.09,160.37 L407.48,156.47 L407.87,152.38 L408.26,148.24 L408.65,144.20 L409.04,140.40 L409.43,136.98 L409.82,134.05 L410.21,131.72 L410.60,130.08 L410.99,129.17 L411.38,129.04 L411.77,129.69 L412.16,131.09 L412.55,133.20 L412.94,135.94 L413.33,139.21 L413.72,142.90 L414.11,146.88 L414.50,151.00 L414.89,155.12 L415.28,159.10 L415.67,162.79 L416.06,166.06 L416.45,168.80 L416.84,170.91 L417.23,172.31 L417.62,172.96 L418.01,172.83 L418.40,171.92 L418.79,170.28 L419.18,167.95 L419.57,165.02 L419.96,161.60 L420.35,157.80 L420.74,153.76 L421.13,149.62 L421.52,145.53 L421.91,141.63 L422.30,138.07 L422.69,134.96 L423.08,132.42 L423.47,130.54 L423.86,129.39 L424.25,129.00 L424.64,129.39 L425.03,130.54 L425.42,132.42 L425.81,134.96 L426.20,138.07 L426.59,141.63 L426.98,145.53 L427.37,149.62 L427.76,153.76 L428.15,157.80 L428.54,161.60 L428.93,165.02 L429.32,167.95 L429.71,170.28 L430.10,171.92 L430.49,172.83 L430.88,172.96 L431.27,172.31 L431.66,170.91 L432.05,168.80 L432.44,166.06 L432.83,162.79 L433.22,159.10 L433.61,155.12 L434.00,151.00" fill="none" stroke="#d55e00" stroke-width="1.5" stroke-linecap="round" stroke-linejoin="round" />
<text x="391" y="209" font-size="21" fill="#202020" text-anchor="middle" font-weight="400">丙</text>
<text x="257" y="261" font-size="21" fill="#202020" text-anchor="middle" font-weight="400">判断哪一组与其余不同</text>
<line x1="572" y1="213" x2="891" y2="213" stroke="#202020" stroke-width="1.5" />
<line x1="572" y1="213" x2="572" y2="81" stroke="#202020" stroke-width="1.5" />
<text x="731" y="257" font-size="21" fill="#202020" text-anchor="middle" font-weight="400">第一声 → 第二声</text>
<text x="536" y="144" font-size="19" text-anchor="middle" transform="rotate(-90 536 144)" fill="#202020">相对音高</text>
<line x1="600" y1="166" x2="681" y2="166" stroke="#202020" stroke-width="2.6" />
<line x1="785" y1="115" x2="866" y2="115" stroke="#0072b2" stroke-width="2.6" />
<path d="M697,166 L768,115" fill="none" stroke="#555555" stroke-width="1.8" marker-end="url(#arrow)"/>
<line x1="1029" y1="213" x2="1341" y2="213" stroke="#202020" stroke-width="1.5" />
<line x1="1029" y1="213" x2="1029" y2="81" stroke="#202020" stroke-width="1.5" />
<text x="992" y="144" font-size="19" text-anchor="middle" transform="rotate(-90 992 144)" fill="#202020">相对音高</text>
<circle cx="1065" cy="174" r="6" fill="#202020" stroke="#202020" stroke-width="1.5"/>
<text x="1065" y="245" font-size="21" fill="#202020" text-anchor="middle" font-weight="400">甲</text>
<circle cx="1143" cy="119" r="6" fill="#202020" stroke="#202020" stroke-width="1.5"/>
<text x="1143" y="245" font-size="21" fill="#202020" text-anchor="middle" font-weight="400">乙</text>
<circle cx="1221" cy="147" r="6" fill="#202020" stroke="#202020" stroke-width="1.5"/>
<text x="1221" y="245" font-size="21" fill="#202020" text-anchor="middle" font-weight="400">丙</text>
<circle cx="1299" cy="88" r="6" fill="#202020" stroke="#202020" stroke-width="1.5"/>
<text x="1299" y="245" font-size="21" fill="#202020" text-anchor="middle" font-weight="400">丁</text>
<text x="48" y="343" font-size="25" fill="#202020" text-anchor="start" font-weight="700">(d)</text>
<text x="97" y="343" font-size="24" fill="#202020" text-anchor="start" font-weight="400">音高匹配</text>
<text x="769" y="343" font-size="25" fill="#202020" text-anchor="start" font-weight="700">(e)</text>
<text x="818" y="343" font-size="24" fill="#202020" text-anchor="start" font-weight="400">旋律与音程</text>
<line x1="140" y1="545" x2="625" y2="545" stroke="#202020" stroke-width="1.5" />
<line x1="140" y1="545" x2="140" y2="393" stroke="#202020" stroke-width="1.5" />
<text x="91" y="472" font-size="20" text-anchor="middle" transform="rotate(-90 91 472)" fill="#202020">相对音高</text>
<line x1="181" y1="458" x2="277" y2="458" stroke="#202020" stroke-width="2.5" />
<line x1="427" y1="416" x2="519" y2="416" stroke="#d55e00" stroke-width="2.5" />
<line x1="427" y1="458" x2="519" y2="458" stroke="#d55e00" stroke-width="2" stroke-dasharray="5 4"/>
<path d="M551,419 L551,455" fill="none" stroke="#555555" stroke-width="1.8" marker-end="url(#arrow)"/>
<text x="230" y="584" font-size="21" fill="#202020" text-anchor="middle" font-weight="400">参照音</text>
<text x="473" y="584" font-size="21" fill="#d55e00" text-anchor="middle" font-weight="400">可调比较音</text>
<line x1="854" y1="545" x2="1309" y2="545" stroke="#202020" stroke-width="1.5" />
<line x1="854" y1="545" x2="854" y2="391" stroke="#202020" stroke-width="1.5" />
<text x="803" y="472" font-size="20" text-anchor="middle" transform="rotate(-90 803 472)" fill="#202020">相对音高</text>
<path d="M882.00,506.00 L981.00,450.00 L1080.00,478.00 L1179.00,414.00 L1278.00,472.00" fill="none" stroke="#0072b2" stroke-width="1.4" stroke-linecap="round" stroke-linejoin="round" />
<ellipse cx="882" cy="506" rx="7" ry="4.55" transform="rotate(-20 882 506)" fill="#0072b2"/>
<line x1="887.6" y1="506" x2="887.6" y2="479" stroke="#0072b2" stroke-width="1.8" />
<ellipse cx="981" cy="450" rx="7" ry="4.55" transform="rotate(-20 981 450)" fill="#0072b2"/>
<line x1="986.6" y1="450" x2="986.6" y2="423" stroke="#0072b2" stroke-width="1.8" />
<ellipse cx="1080" cy="478" rx="7" ry="4.55" transform="rotate(-20 1080 478)" fill="#0072b2"/>
<line x1="1085.6" y1="478" x2="1085.6" y2="451" stroke="#0072b2" stroke-width="1.8" />
<ellipse cx="1179" cy="414" rx="7" ry="4.55" transform="rotate(-20 1179 414)" fill="#0072b2"/>
<line x1="1184.6" y1="414" x2="1184.6" y2="387" stroke="#0072b2" stroke-width="1.8" />
<ellipse cx="1278" cy="472" rx="7" ry="4.55" transform="rotate(-20 1278 472)" fill="#0072b2"/>
<line x1="1283.6" y1="472" x2="1283.6" y2="445" stroke="#0072b2" stroke-width="1.8" />
<text x="1082" y="584" font-size="21" fill="#202020" text-anchor="middle" font-weight="400">音符次序</text></g></svg>