<?xml version="1.0" encoding="utf-8" standalone="no"?>
<!DOCTYPE svg PUBLIC "-//W3C//DTD SVG 1.1//EN"
  "http://www.w3.org/Graphics/SVG/1.1/DTD/svg11.dtd">
<svg xmlns:xlink="http://www.w3.org/1999/xlink" width="728.39952pt" height="440.39952pt" viewBox="0 0 728.39952 440.39952" xmlns="http://www.w3.org/2000/svg" version="1.1">
 <metadata>
  <rdf:RDF xmlns:dc="http://purl.org/dc/elements/1.1/" xmlns:cc="http://creativecommons.org/ns#" xmlns:rdf="http://www.w3.org/1999/02/22-rdf-syntax-ns#">
   <cc:Work>
    <dc:type rdf:resource="http://purl.org/dc/dcmitype/StillImage"/>
    <dc:date>2026-10-07T14:37:58.128047</dc:date>
    <dc:format>image/svg+xml</dc:format>
    <dc:creator>
     <cc:Agent>
      <dc:title>Matplotlib v3.8.0, https://matplotlib.org/</dc:title>
     </cc:Agent>
    </dc:creator>
   </cc:Work>
  </rdf:RDF>
 </metadata>
 <defs>
  <style type="text/css">*{stroke-linejoin: round; stroke-linecap: butt}</style>
 </defs>
 <g id="figure_1">
  <g id="patch_1">
   <path d="M 0 440.39952 
L 728.39952 440.39952 
L 728.39952 0 
L 0 0 
z
" style="fill: #ffffff"/>
  </g>
  <g id="axes_1">
   <g id="patch_2">
    <path d="M 49.079063 131.514416 
L 721.19952 131.514416 
L 721.19952 23.75175 
L 49.079063 23.75175 
z
" style="fill: #ffffff"/>
   </g>
   <g id="matplotlib.axis_1">
    <g id="xtick_1">
     <g id="line2d_1">
      <defs>
       <path id="mb628035b87" d="M 0 0 
L 0 3.5 
" style="stroke: #000000; stroke-width: 0.8"/>
      </defs>
      <g>
       <use xlink:href="#mb628035b87" x="64.814324" y="131.514416" style="stroke: #000000; stroke-width: 0.8"/>
      </g>
     </g>
    </g>
    <g id="xtick_2">
     <g id="line2d_2">
      <g>
       <use xlink:href="#mb628035b87" x="177.209049" y="131.514416" style="stroke: #000000; stroke-width: 0.8"/>
      </g>
     </g>
    </g>
    <g id="xtick_3">
     <g id="line2d_3">
      <g>
       <use xlink:href="#mb628035b87" x="289.603775" y="131.514416" style="stroke: #000000; stroke-width: 0.8"/>
      </g>
     </g>
    </g>
    <g id="xtick_4">
     <g id="line2d_4">
      <g>
       <use xlink:href="#mb628035b87" x="401.9985" y="131.514416" style="stroke: #000000; stroke-width: 0.8"/>
      </g>
     </g>
    </g>
    <g id="xtick_5">
     <g id="line2d_5">
      <g>
       <use xlink:href="#mb628035b87" x="514.393225" y="131.514416" style="stroke: #000000; stroke-width: 0.8"/>
      </g>
     </g>
    </g>
    <g id="xtick_6">
     <g id="line2d_6">
      <g>
       <use xlink:href="#mb628035b87" x="626.787951" y="131.514416" style="stroke: #000000; stroke-width: 0.8"/>
      </g>
     </g>
    </g>
   </g>
   <g id="matplotlib.axis_2">
    <g id="ytick_1">
     <g id="line2d_7">
      <defs>
       <path id="mc1af9b989f" d="M 0 0 
L -3.5 0 
" style="stroke: #000000; stroke-width: 0.8"/>
      </defs>
      <g>
       <use xlink:href="#mc1af9b989f" x="49.079063" y="104.573749" style="stroke: #000000; stroke-width: 0.8"/>
      </g>
     </g>
     <g id="text_1">
      <!-- 600 -->
      <g transform="translate(22.727656 108.970312) scale(0.11 -0.11)">
       <defs>
        <path id="MicrosoftYaHei-36" d="M 3181 4219 
Q 2803 4413 2391 4413 
Q 1763 4413 1381 3866 
Q 1000 3319 994 2372 
L 1009 2372 
Q 1353 3038 2106 3038 
Q 2734 3038 3109 2628 
Q 3484 2219 3484 1541 
Q 3484 831 3051 375 
Q 2619 -81 1947 -81 
Q 1209 -81 789 495 
Q 369 1072 369 2131 
Q 369 3413 920 4167 
Q 1472 4922 2372 4922 
Q 2888 4922 3181 4781 
L 3181 4219 
z
M 1031 1584 
Q 1031 1106 1286 765 
Q 1541 425 1963 425 
Q 2363 425 2613 719 
Q 2863 1013 2863 1475 
Q 2863 1975 2627 2253 
Q 2391 2531 1956 2531 
Q 1544 2531 1287 2250 
Q 1031 1969 1031 1584 
z
" transform="scale(0.015625)"/>
        <path id="MicrosoftYaHei-30" d="M 284 2325 
Q 284 3606 709 4264 
Q 1134 4922 1941 4922 
Q 3478 4922 3478 2441 
Q 3478 1216 3045 567 
Q 2613 -81 1831 -81 
Q 1094 -81 689 534 
Q 284 1150 284 2325 
z
M 909 2353 
Q 909 425 1888 425 
Q 2850 425 2850 2384 
Q 2850 4413 1906 4413 
Q 909 4413 909 2353 
z
" transform="scale(0.015625)"/>
       </defs>
       <use xlink:href="#MicrosoftYaHei-36"/>
       <use xlink:href="#MicrosoftYaHei-30" x="58.642578"/>
       <use xlink:href="#MicrosoftYaHei-30" x="117.285156"/>
      </g>
     </g>
    </g>
    <g id="ytick_2">
     <g id="line2d_8">
      <g>
       <use xlink:href="#mc1af9b989f" x="49.079063" y="50.692416" style="stroke: #000000; stroke-width: 0.8"/>
      </g>
     </g>
     <g id="text_2">
      <!-- 900 -->
      <g transform="translate(22.727656 55.088979) scale(0.11 -0.11)">
       <defs>
        <path id="MicrosoftYaHei-39" d="M 578 656 
Q 978 425 1441 425 
Q 2091 425 2448 937 
Q 2806 1450 2806 2394 
Q 2800 2388 2794 2394 
Q 2475 1788 1722 1788 
Q 1113 1788 713 2206 
Q 313 2625 313 3294 
Q 313 4006 750 4464 
Q 1188 4922 1884 4922 
Q 2606 4922 3012 4355 
Q 3419 3788 3419 2703 
Q 3419 1363 2894 641 
Q 2369 -81 1441 -81 
Q 931 -81 578 84 
L 578 656 
z
M 931 3372 
Q 931 2884 1181 2598 
Q 1431 2313 1872 2313 
Q 2253 2313 2512 2573 
Q 2772 2834 2772 3206 
Q 2772 3728 2514 4070 
Q 2256 4413 1834 4413 
Q 1444 4413 1187 4116 
Q 931 3819 931 3372 
z
" transform="scale(0.015625)"/>
       </defs>
       <use xlink:href="#MicrosoftYaHei-39"/>
       <use xlink:href="#MicrosoftYaHei-30" x="58.642578"/>
       <use xlink:href="#MicrosoftYaHei-30" x="117.285156"/>
      </g>
     </g>
    </g>
    <g id="text_3">
     <!-- 频率（Hz） -->
     <g transform="translate(15.993125 106.591442) rotate(-90) scale(0.11 -0.11)">
      <defs>
       <path id="MicrosoftYaHei-9891" d="M 3200 3716 
L 4113 3716 
L 4269 4522 
L 2938 4522 
L 2938 4947 
L 6294 4947 
L 6294 4522 
L 4788 4522 
L 4600 3716 
L 6019 3716 
L 6019 478 
L 5550 478 
L 5550 3291 
L 3669 3291 
L 3669 478 
L 3200 478 
L 3200 3716 
z
M 94 3034 
L 525 3034 
L 525 4691 
L 963 4691 
L 963 3034 
L 1600 3034 
L 1600 5272 
L 2050 5272 
L 2050 4291 
L 2925 4291 
L 2925 3878 
L 2050 3878 
L 2050 3034 
L 3006 3034 
L 3006 2609 
L 94 2609 
L 94 3034 
z
M 4356 2884 
L 4825 2884 
L 4825 1934 
Q 4825 1216 4650 716 
Q 5619 128 6375 -403 
L 6075 -841 
Q 5306 -234 4450 303 
Q 4413 241 4369 184 
Q 3913 -447 2763 -884 
Q 2625 -691 2444 -478 
Q 3525 -72 3944 447 
Q 4356 947 4356 1966 
L 4356 2884 
z
M 1550 2459 
L 2000 2459 
L 2000 853 
Q 2394 1309 2663 1866 
L 3100 1609 
Q 2206 -47 394 -909 
Q 275 -741 69 -503 
Q 1125 -47 1819 659 
L 1550 659 
L 1550 2459 
z
M 38 578 
Q 381 1191 669 2084 
L 1113 1947 
Q 806 1028 456 366 
Q 269 472 38 578 
z
" transform="scale(0.015625)"/>
       <path id="MicrosoftYaHei-7387" d="M 2525 2009 
Q 2622 2016 3928 2081 
Q 3772 2300 3625 2491 
L 3963 2703 
Q 4413 2203 4794 1653 
L 4394 1403 
Q 4284 1569 4178 1725 
Q 2991 1659 2213 1597 
Q 2075 1584 1881 1541 
L 1725 1966 
Q 1913 2028 2006 2084 
Q 2534 2441 3050 2913 
Q 2597 2894 2275 2866 
Q 2144 2847 1988 2809 
L 1800 3191 
Q 1956 3247 2088 3366 
Q 2509 3722 2875 4228 
L 231 4228 
L 231 4666 
L 3031 4666 
Q 2878 4944 2744 5153 
L 3194 5372 
Q 3438 5000 3616 4666 
L 6175 4666 
L 6175 4228 
L 3053 4228 
L 3350 4072 
Q 2844 3553 2494 3247 
Q 2850 3256 3425 3269 
Q 3675 3519 3925 3797 
L 4356 3547 
Q 3363 2603 2525 2009 
z
M 144 991 
L 2994 991 
L 2994 1541 
L 3488 1541 
L 3488 991 
L 6275 991 
L 6275 553 
L 3488 553 
L 3488 -853 
L 2994 -853 
L 2994 553 
L 144 553 
L 144 991 
z
M 1719 2672 
L 1944 2303 
Q 1200 1866 425 1409 
L 163 1828 
Q 813 2134 1719 2672 
z
M 4856 2678 
Q 5750 2172 6250 1816 
L 5975 1409 
Q 5331 1909 4600 2341 
L 4856 2678 
z
M 5994 3591 
Q 5519 3178 4963 2809 
L 4644 3141 
Q 5244 3534 5638 3928 
L 5994 3591 
z
M 363 3634 
L 681 3941 
Q 1200 3528 1588 3159 
L 1238 2816 
Q 875 3197 363 3634 
z
" transform="scale(0.015625)"/>
       <path id="MicrosoftYaHei-ff08" d="M 5288 -1100 
Q 4172 119 4172 1850 
Q 4172 3603 5288 4838 
L 5825 4838 
Q 4716 3572 4716 1856 
Q 4716 166 5819 -1100 
L 5288 -1100 
z
" transform="scale(0.015625)"/>
       <path id="MicrosoftYaHei-48" d="M 4325 0 
L 3700 0 
L 3700 2181 
L 1250 2181 
L 1250 0 
L 625 0 
L 625 4841 
L 1250 4841 
L 1250 2738 
L 3700 2738 
L 3700 4841 
L 4325 4841 
L 4325 0 
z
" transform="scale(0.015625)"/>
       <path id="MicrosoftYaHei-7a" d="M 2978 0 
L 109 0 
L 109 203 
L 2119 2950 
L 297 2950 
L 297 3456 
L 2991 3456 
L 2991 3256 
L 994 506 
L 2978 506 
L 2978 0 
z
" transform="scale(0.015625)"/>
       <path id="MicrosoftYaHei-ff09" d="M 1113 -1100 
L 575 -1100 
Q 1684 163 1684 1888 
Q 1684 3581 581 4838 
L 1113 4838 
Q 2222 3628 2222 1888 
Q 2222 128 1113 -1100 
z
" transform="scale(0.015625)"/>
      </defs>
      <use xlink:href="#MicrosoftYaHei-9891"/>
      <use xlink:href="#MicrosoftYaHei-7387" x="100"/>
      <use xlink:href="#MicrosoftYaHei-ff08" x="200"/>
      <use xlink:href="#MicrosoftYaHei-48" x="300"/>
      <use xlink:href="#MicrosoftYaHei-7a" x="377.34375"/>
      <use xlink:href="#MicrosoftYaHei-ff09" x="426.513672"/>
     </g>
    </g>
   </g>
   <g id="line2d_9">
    <path d="M 64.814324 104.573749 
L 83.921427 104.573749 
" clip-path="url(#p1349008efe)" style="fill: none; stroke: #235f83; stroke-width: 6"/>
   </g>
   <g id="line2d_10">
    <path d="M 91.789058 50.692416 
L 110.896161 50.692416 
" clip-path="url(#p1349008efe)" style="fill: none; stroke: #b34c42; stroke-width: 6"/>
   </g>
   <g id="line2d_11">
    <path d="M 118.763792 104.573749 
L 137.870896 104.573749 
" clip-path="url(#p1349008efe)" style="fill: none; stroke: #235f83; stroke-width: 6"/>
   </g>
   <g id="line2d_12">
    <path d="M 172.71326 104.573749 
L 191.820364 104.573749 
" clip-path="url(#p1349008efe)" style="fill: none; stroke: #235f83; stroke-width: 6"/>
   </g>
   <g id="line2d_13">
    <path d="M 199.687994 50.692416 
L 218.795098 50.692416 
" clip-path="url(#p1349008efe)" style="fill: none; stroke: #b34c42; stroke-width: 6"/>
   </g>
   <g id="line2d_14">
    <path d="M 226.662729 104.573749 
L 245.769832 104.573749 
" clip-path="url(#p1349008efe)" style="fill: none; stroke: #235f83; stroke-width: 6"/>
   </g>
   <g id="line2d_15">
    <path d="M 280.612197 104.573749 
L 299.7193 104.573749 
" clip-path="url(#p1349008efe)" style="fill: none; stroke: #235f83; stroke-width: 6"/>
   </g>
   <g id="line2d_16">
    <path d="M 307.586931 50.692416 
L 326.694034 50.692416 
" clip-path="url(#p1349008efe)" style="fill: none; stroke: #b34c42; stroke-width: 6"/>
   </g>
   <g id="line2d_17">
    <path d="M 334.561665 104.573749 
L 353.668768 104.573749 
" clip-path="url(#p1349008efe)" style="fill: none; stroke: #235f83; stroke-width: 6"/>
   </g>
   <g id="line2d_18">
    <path d="M 388.511133 104.573749 
L 407.618236 104.573749 
" clip-path="url(#p1349008efe)" style="fill: none; stroke: #235f83; stroke-width: 6"/>
   </g>
   <g id="line2d_19">
    <path d="M 415.485867 50.692416 
L 434.59297 50.692416 
" clip-path="url(#p1349008efe)" style="fill: none; stroke: #b34c42; stroke-width: 6"/>
   </g>
   <g id="line2d_20">
    <path d="M 442.460601 104.573749 
L 461.567704 104.573749 
" clip-path="url(#p1349008efe)" style="fill: none; stroke: #235f83; stroke-width: 6"/>
   </g>
   <g id="line2d_21">
    <path d="M 496.410069 104.573749 
L 515.517173 104.573749 
" clip-path="url(#p1349008efe)" style="fill: none; stroke: #235f83; stroke-width: 6"/>
   </g>
   <g id="line2d_22">
    <path d="M 523.384803 50.692416 
L 542.491907 50.692416 
" clip-path="url(#p1349008efe)" style="fill: none; stroke: #b34c42; stroke-width: 6"/>
   </g>
   <g id="line2d_23">
    <path d="M 550.359537 104.573749 
L 569.466641 104.573749 
" clip-path="url(#p1349008efe)" style="fill: none; stroke: #235f83; stroke-width: 6"/>
   </g>
   <g id="line2d_24">
    <path d="M 604.309006 104.573749 
L 623.416109 104.573749 
" clip-path="url(#p1349008efe)" style="fill: none; stroke: #235f83; stroke-width: 6"/>
   </g>
   <g id="line2d_25">
    <path d="M 631.28374 50.692416 
L 650.390843 50.692416 
" clip-path="url(#p1349008efe)" style="fill: none; stroke: #b34c42; stroke-width: 6"/>
   </g>
   <g id="line2d_26">
    <path d="M 658.258474 104.573749 
L 677.365577 104.573749 
" clip-path="url(#p1349008efe)" style="fill: none; stroke: #235f83; stroke-width: 6"/>
   </g>
   <g id="patch_3">
    <path d="M 49.079063 131.514416 
L 49.079063 23.75175 
" style="fill: none; stroke: #000000; stroke-width: 0.8; stroke-linejoin: miter; stroke-linecap: square"/>
   </g>
   <g id="patch_4">
    <path d="M 49.079063 131.514416 
L 721.19952 131.514416 
" style="fill: none; stroke: #000000; stroke-width: 0.8; stroke-linejoin: miter; stroke-linecap: square"/>
   </g>
   <g id="text_4">
    <!-- A  刺激：重复的 A–B–A— 序列 -->
    <g transform="translate(49.079063 17.75175) scale(0.132 -0.132)">
     <defs>
      <path id="MicrosoftYaHei-41" d="M 4428 0 
L 3738 0 
L 3244 1325 
L 1228 1325 
L 763 0 
L 72 0 
L 1916 4841 
L 2584 4841 
L 4428 0 
z
M 3050 1872 
L 2319 3884 
Q 2284 3981 2244 4222 
L 2228 4222 
Q 2194 4003 2150 3884 
L 1425 1872 
L 3050 1872 
z
" transform="scale(0.015625)"/>
      <path id="MicrosoftYaHei-20" transform="scale(0.015625)"/>
      <path id="MicrosoftYaHei-523a" d="M 3188 3066 
L 2281 3066 
L 2281 1172 
L 2544 1403 
Q 3200 828 3788 272 
L 3431 -47 
Q 2913 478 2281 1072 
L 2281 -847 
L 1813 -847 
L 1813 1459 
Q 1231 528 375 -322 
Q 306 -128 150 141 
Q 1144 1041 1813 2228 
L 1813 3066 
L 944 3066 
L 944 1522 
L 475 1522 
L 475 3497 
L 1813 3497 
L 1813 4184 
L 206 4184 
L 206 4622 
L 1813 4622 
L 1813 5259 
L 2281 5259 
L 2281 4622 
L 3894 4622 
L 3894 4184 
L 2281 4184 
L 2281 3497 
L 3656 3497 
L 3656 2172 
Q 3656 1541 2994 1553 
Q 2806 1553 2525 1572 
Q 2488 1778 2425 2003 
Q 2731 1978 2963 1972 
Q 3188 1966 3188 2222 
L 3188 3066 
z
M 5475 5191 
L 5963 5191 
L 5963 22 
Q 5963 -778 5175 -784 
Q 4856 -791 4338 -772 
Q 4313 -528 4244 -234 
Q 4706 -291 5019 -291 
Q 5475 -297 5475 153 
L 5475 5191 
z
M 4269 4559 
L 4738 4559 
L 4738 609 
L 4269 609 
L 4269 4559 
z
" transform="scale(0.015625)"/>
      <path id="MicrosoftYaHei-6fc0" d="M 4681 5316 
L 5125 5241 
Q 5019 4647 4878 4128 
L 6263 4128 
L 6263 3722 
L 5963 3722 
Q 5834 1809 5363 822 
Q 5738 69 6338 -366 
Q 6181 -622 6056 -834 
Q 5488 -331 5116 378 
Q 4681 -309 4025 -878 
Q 3888 -691 3700 -484 
Q 4484 188 4884 881 
Q 4547 1731 4438 2828 
Q 4297 2503 4138 2222 
Q 4025 2409 3869 2622 
Q 4438 3628 4681 5316 
z
M 1625 4666 
L 2338 4666 
Q 2475 4988 2581 5359 
L 3013 5253 
Q 2894 4950 2769 4666 
L 3819 4666 
L 3819 2359 
L 3394 2359 
L 3394 2522 
L 2050 2522 
L 2050 2359 
L 1625 2359 
L 1625 4666 
z
M 1231 1959 
L 2544 1959 
Q 2434 2153 2319 2328 
L 2656 2503 
Q 2828 2241 2984 1959 
L 4119 1959 
L 4119 1559 
L 2375 1559 
Q 2369 1331 2356 1134 
L 3756 1134 
Q 3719 403 3669 -16 
Q 3606 -647 2988 -647 
Q 2731 -647 2450 -641 
Q 2413 -447 2356 -209 
Q 2700 -247 2894 -247 
Q 3213 -247 3250 53 
Q 3294 366 3313 747 
L 2319 747 
Q 2200 -172 1419 -859 
Q 1269 -691 1081 -509 
Q 1613 -47 1775 403 
Q 1928 791 1941 1559 
L 1231 1559 
L 1231 1959 
z
M 5506 3722 
L 4763 3722 
Q 4750 3675 4734 3628 
Q 4800 2328 5122 1397 
Q 5456 2297 5506 3722 
z
M 706 1603 
Q 950 1497 1175 1416 
Q 919 447 663 -778 
L 156 -609 
Q 425 209 706 1603 
z
M 2050 2884 
L 3394 2884 
L 3394 3422 
L 2050 3422 
L 2050 2884 
z
M 3394 4303 
L 2050 4303 
L 2050 3772 
L 3394 3772 
L 3394 4303 
z
M 325 3609 
Q 744 3303 1263 2866 
Q 1219 2816 925 2478 
Q 488 2903 38 3272 
L 325 3609 
z
M 588 5191 
Q 1069 4822 1488 4434 
Q 1300 4247 1138 4072 
Q 688 4522 281 4866 
L 588 5191 
z
" transform="scale(0.015625)"/>
      <path id="MicrosoftYaHei-ff1a" d="M 1606 3531 
Q 1772 3531 1890 3415 
Q 2009 3300 2009 3138 
Q 2009 2975 1893 2858 
Q 1778 2741 1606 2741 
Q 1434 2741 1318 2858 
Q 1203 2975 1203 3138 
Q 1203 3300 1322 3415 
Q 1441 3531 1606 3531 
z
M 1606 716 
Q 1772 716 1890 600 
Q 2009 484 2009 319 
Q 2009 150 1890 36 
Q 1772 -78 1606 -78 
Q 1441 -78 1322 36 
Q 1203 150 1203 319 
Q 1203 484 1322 600 
Q 1441 716 1606 716 
z
" transform="scale(0.015625)"/>
      <path id="MicrosoftYaHei-91cd" d="M 113 -203 
L 2975 -203 
L 2975 259 
L 600 259 
L 600 628 
L 2975 628 
L 2975 1153 
L 1288 1153 
L 1288 928 
L 850 928 
L 850 3278 
L 2975 3278 
L 2975 3728 
L 163 3728 
L 163 4116 
L 2975 4116 
L 2975 4606 
Q 1841 4572 625 4547 
Q 588 4747 538 4972 
Q 3706 5009 5669 5141 
L 5744 4716 
Q 4631 4663 3425 4619 
L 3425 4116 
L 6263 4116 
L 6263 3728 
L 3425 3728 
L 3425 3278 
L 5569 3278 
L 5569 934 
L 5131 934 
L 5131 1153 
L 3425 1153 
L 3425 628 
L 5806 628 
L 5806 259 
L 3425 259 
L 3425 -203 
L 6263 -203 
L 6263 -591 
L 113 -591 
L 113 -203 
z
M 3425 1516 
L 5131 1516 
L 5131 2053 
L 3425 2053 
L 3425 1516 
z
M 1288 1516 
L 2975 1516 
L 2975 2053 
L 1288 2053 
L 1288 1516 
z
M 5131 2916 
L 3425 2916 
L 3425 2384 
L 5131 2384 
L 5131 2916 
z
M 1288 2384 
L 2975 2384 
L 2975 2916 
L 1288 2916 
L 1288 2384 
z
" transform="scale(0.015625)"/>
      <path id="MicrosoftYaHei-590d" d="M 81 3559 
Q 975 4259 1563 5347 
L 2113 5347 
Q 1963 5084 1803 4841 
L 6200 4841 
L 6200 4441 
L 1525 4441 
Q 1356 4209 1175 3997 
L 5575 3997 
L 5575 1697 
L 5138 1697 
L 5138 1859 
L 1463 1859 
L 1463 1634 
L 1031 1634 
L 1031 3828 
Q 716 3475 369 3166 
Q 263 3347 81 3559 
z
M 81 291 
Q 1231 853 1931 1709 
L 2488 1709 
Q 2350 1534 2206 1372 
L 5588 1372 
L 5588 1034 
Q 4981 494 4038 69 
Q 5016 -188 6319 -284 
Q 6150 -566 6025 -797 
Q 4503 -584 3416 -175 
Q 2303 -563 725 -872 
Q 606 -666 438 -447 
Q 1988 -191 2856 59 
Q 2153 397 1678 838 
Q 1084 303 388 -53 
Q 250 128 81 291 
z
M 1463 2247 
L 5138 2247 
L 5138 2747 
L 1463 2747 
L 1463 2247 
z
M 5138 3609 
L 1463 3609 
L 1463 3116 
L 5138 3116 
L 5138 3609 
z
M 4869 1009 
L 2025 1009 
Q 2572 553 3428 253 
Q 4297 591 4869 1009 
z
" transform="scale(0.015625)"/>
      <path id="MicrosoftYaHei-7684" d="M 356 4284 
L 988 4284 
Q 1219 4853 1369 5322 
L 1894 5172 
Q 1697 4694 1513 4284 
L 2763 4284 
L 2763 -691 
L 2263 -691 
L 2263 -203 
L 856 -203 
L 856 -734 
L 356 -734 
L 356 4284 
z
M 2856 3003 
Q 3444 3934 3850 5322 
L 4375 5191 
Q 4216 4719 4050 4303 
L 6063 4303 
Q 5988 1091 5938 259 
Q 5894 -722 4906 -722 
Q 4338 -722 3750 -684 
Q 3713 -372 3650 -128 
L 3669 -128 
Q 4294 -216 4813 -216 
Q 5381 -216 5425 384 
Q 5494 1316 5525 3834 
L 3850 3834 
Q 3578 3231 3288 2772 
Q 3119 2891 2856 3003 
z
M 856 266 
L 2263 266 
L 2263 1847 
L 856 1847 
L 856 266 
z
M 2263 3816 
L 856 3816 
L 856 2297 
L 2263 2297 
L 2263 3816 
z
M 3406 2578 
L 3788 2859 
Q 4481 2041 4894 1441 
L 4431 1116 
Q 3988 1841 3406 2578 
z
" transform="scale(0.015625)"/>
      <path id="MicrosoftYaHei-2013" d="M 3456 1681 
L 0 1681 
L 0 2153 
L 3456 2153 
L 3456 1681 
z
" transform="scale(0.015625)"/>
      <path id="MicrosoftYaHei-42" d="M 625 0 
L 625 4841 
L 2047 4841 
Q 2684 4841 3065 4536 
Q 3447 4231 3447 3728 
Q 3447 3328 3220 3022 
Q 2994 2716 2597 2588 
L 2597 2575 
Q 3091 2519 3386 2201 
Q 3681 1884 3681 1397 
Q 3681 772 3232 386 
Q 2784 0 2084 0 
L 625 0 
z
M 1250 4294 
L 1250 2778 
L 1819 2778 
Q 2272 2778 2530 2998 
Q 2788 3219 2788 3609 
Q 2788 4294 1875 4294 
L 1250 4294 
z
M 1250 2234 
L 1250 547 
L 2000 547 
Q 2491 547 2758 773 
Q 3025 1000 3025 1403 
Q 3025 2234 1897 2234 
L 1250 2234 
z
" transform="scale(0.015625)"/>
      <path id="MicrosoftYaHei-2014" d="M 6913 1681 
L 0 1681 
L 0 2153 
L 6913 2153 
L 6913 1681 
z
" transform="scale(0.015625)"/>
      <path id="MicrosoftYaHei-5e8f" d="M 1438 1966 
L 3634 1966 
Q 3053 2394 2525 2722 
L 2825 3041 
Q 3294 2756 3719 2478 
L 4850 3147 
L 1806 3147 
L 1806 3597 
L 5756 3597 
L 5756 3141 
L 4141 2191 
Q 4219 2138 4294 2084 
L 4128 1966 
L 6181 1966 
L 6181 1503 
L 5638 384 
Q 5450 484 5175 609 
L 5619 1509 
L 4119 1509 
L 4119 22 
Q 4119 -734 3400 -734 
Q 3019 -734 2463 -722 
Q 2438 -509 2388 -184 
Q 2881 -253 3250 -253 
Q 3606 -253 3606 103 
L 3606 1509 
L 1438 1509 
L 1438 1966 
z
M 2981 5147 
L 3431 5391 
Q 3675 5078 3881 4747 
L 3584 4572 
L 6244 4572 
L 6244 4116 
L 1263 4116 
L 1263 2416 
Q 1263 191 406 -872 
Q 256 -666 50 -447 
Q 738 353 738 2291 
L 738 4572 
L 3369 4572 
Q 3178 4884 2981 5147 
z
" transform="scale(0.015625)"/>
      <path id="MicrosoftYaHei-5217" d="M 1163 1953 
L 1469 2303 
Q 1944 1913 2334 1538 
Q 2753 2263 2925 3109 
L 1519 3109 
Q 1028 1984 313 1084 
Q 175 1403 63 1584 
Q 1006 2853 1516 4553 
L 269 4553 
L 269 5003 
L 3775 5003 
L 3775 4553 
L 2031 4553 
Q 1884 4038 1703 3559 
L 3438 3559 
L 3438 3103 
Q 2925 541 744 -853 
Q 581 -666 356 -472 
Q 1425 219 2069 1125 
Q 1713 1475 1163 1953 
z
M 5419 5228 
L 5919 5228 
L 5919 66 
Q 5919 -728 5200 -734 
Q 4856 -741 4181 -728 
Q 4150 -441 4081 -166 
Q 4725 -222 5031 -222 
Q 5419 -222 5419 197 
L 5419 5228 
z
M 4519 709 
L 4038 709 
L 4038 4534 
L 4519 4534 
L 4519 709 
z
" transform="scale(0.015625)"/>
     </defs>
     <use xlink:href="#MicrosoftYaHei-41"/>
     <use xlink:href="#MicrosoftYaHei-20" x="70.361328"/>
     <use xlink:href="#MicrosoftYaHei-20" x="99.951172"/>
     <use xlink:href="#MicrosoftYaHei-523a" x="129.541016"/>
     <use xlink:href="#MicrosoftYaHei-6fc0" x="229.541016"/>
     <use xlink:href="#MicrosoftYaHei-ff1a" x="329.541016"/>
     <use xlink:href="#MicrosoftYaHei-91cd" x="429.541016"/>
     <use xlink:href="#MicrosoftYaHei-590d" x="529.541016"/>
     <use xlink:href="#MicrosoftYaHei-7684" x="629.541016"/>
     <use xlink:href="#MicrosoftYaHei-20" x="729.541016"/>
     <use xlink:href="#MicrosoftYaHei-41" x="759.130859"/>
     <use xlink:href="#MicrosoftYaHei-2013" x="829.492188"/>
     <use xlink:href="#MicrosoftYaHei-42" x="883.496094"/>
     <use xlink:href="#MicrosoftYaHei-2013" x="946.240234"/>
     <use xlink:href="#MicrosoftYaHei-41" x="1000.244141"/>
     <use xlink:href="#MicrosoftYaHei-2014" x="1070.605469"/>
     <use xlink:href="#MicrosoftYaHei-20" x="1178.613281"/>
     <use xlink:href="#MicrosoftYaHei-5e8f" x="1208.203125"/>
     <use xlink:href="#MicrosoftYaHei-5217" x="1308.203125"/>
    </g>
   </g>
  </g>
  <g id="axes_2">
   <g id="patch_5">
    <path d="M 49.079063 265.329312 
L 721.19952 265.329312 
L 721.19952 157.566646 
L 49.079063 157.566646 
z
" style="fill: #ffffff"/>
   </g>
   <g id="line2d_27">
    <path d="M 74.255481 238.388645 
L 101.230215 184.507312 
L 128.204949 238.388645 
L 182.154417 238.388645 
L 209.129151 184.507312 
L 236.103885 238.388645 
L 290.053354 238.388645 
L 317.028088 184.507312 
L 344.002822 238.388645 
L 397.95229 238.388645 
L 424.927024 184.507312 
L 451.901758 238.388645 
L 505.851226 238.388645 
L 532.82596 184.507312 
L 559.800694 238.388645 
L 613.750163 238.388645 
L 640.724897 184.507312 
L 667.699631 238.388645 
" clip-path="url(#pc0db5caad2)" style="fill: none; stroke: #a4acb3; stroke-linecap: square"/>
   </g>
   <g id="matplotlib.axis_3">
    <g id="xtick_7">
     <g id="line2d_28">
      <g>
       <use xlink:href="#mb628035b87" x="64.814324" y="265.329312" style="stroke: #000000; stroke-width: 0.8"/>
      </g>
     </g>
    </g>
    <g id="xtick_8">
     <g id="line2d_29">
      <g>
       <use xlink:href="#mb628035b87" x="177.209049" y="265.329312" style="stroke: #000000; stroke-width: 0.8"/>
      </g>
     </g>
    </g>
    <g id="xtick_9">
     <g id="line2d_30">
      <g>
       <use xlink:href="#mb628035b87" x="289.603775" y="265.329312" style="stroke: #000000; stroke-width: 0.8"/>
      </g>
     </g>
    </g>
    <g id="xtick_10">
     <g id="line2d_31">
      <g>
       <use xlink:href="#mb628035b87" x="401.9985" y="265.329312" style="stroke: #000000; stroke-width: 0.8"/>
      </g>
     </g>
    </g>
    <g id="xtick_11">
     <g id="line2d_32">
      <g>
       <use xlink:href="#mb628035b87" x="514.393225" y="265.329312" style="stroke: #000000; stroke-width: 0.8"/>
      </g>
     </g>
    </g>
    <g id="xtick_12">
     <g id="line2d_33">
      <g>
       <use xlink:href="#mb628035b87" x="626.787951" y="265.329312" style="stroke: #000000; stroke-width: 0.8"/>
      </g>
     </g>
    </g>
   </g>
   <g id="matplotlib.axis_4">
    <g id="ytick_3">
     <g id="line2d_34">
      <g>
       <use xlink:href="#mc1af9b989f" x="49.079063" y="238.388645" style="stroke: #000000; stroke-width: 0.8"/>
      </g>
     </g>
     <g id="text_5">
      <!-- 600 -->
      <g transform="translate(22.727656 242.785208) scale(0.11 -0.11)">
       <use xlink:href="#MicrosoftYaHei-36"/>
       <use xlink:href="#MicrosoftYaHei-30" x="58.642578"/>
       <use xlink:href="#MicrosoftYaHei-30" x="117.285156"/>
      </g>
     </g>
    </g>
    <g id="ytick_4">
     <g id="line2d_35">
      <g>
       <use xlink:href="#mc1af9b989f" x="49.079063" y="184.507312" style="stroke: #000000; stroke-width: 0.8"/>
      </g>
     </g>
     <g id="text_6">
      <!-- 900 -->
      <g transform="translate(22.727656 188.903875) scale(0.11 -0.11)">
       <use xlink:href="#MicrosoftYaHei-39"/>
       <use xlink:href="#MicrosoftYaHei-30" x="58.642578"/>
       <use xlink:href="#MicrosoftYaHei-30" x="117.285156"/>
      </g>
     </g>
    </g>
    <g id="text_7">
     <!-- 频率（Hz） -->
     <g transform="translate(15.993125 240.406338) rotate(-90) scale(0.11 -0.11)">
      <use xlink:href="#MicrosoftYaHei-9891"/>
      <use xlink:href="#MicrosoftYaHei-7387" x="100"/>
      <use xlink:href="#MicrosoftYaHei-ff08" x="200"/>
      <use xlink:href="#MicrosoftYaHei-48" x="300"/>
      <use xlink:href="#MicrosoftYaHei-7a" x="377.34375"/>
      <use xlink:href="#MicrosoftYaHei-ff09" x="426.513672"/>
     </g>
    </g>
   </g>
   <g id="line2d_36">
    <path d="M 64.814324 238.388645 
L 83.921427 238.388645 
" clip-path="url(#pc0db5caad2)" style="fill: none; stroke: #235f83; stroke-width: 6"/>
   </g>
   <g id="line2d_37">
    <path d="M 91.789058 184.507312 
L 110.896161 184.507312 
" clip-path="url(#pc0db5caad2)" style="fill: none; stroke: #b34c42; stroke-width: 6"/>
   </g>
   <g id="line2d_38">
    <path d="M 118.763792 238.388645 
L 137.870896 238.388645 
" clip-path="url(#pc0db5caad2)" style="fill: none; stroke: #235f83; stroke-width: 6"/>
   </g>
   <g id="line2d_39">
    <path d="M 172.71326 238.388645 
L 191.820364 238.388645 
" clip-path="url(#pc0db5caad2)" style="fill: none; stroke: #235f83; stroke-width: 6"/>
   </g>
   <g id="line2d_40">
    <path d="M 199.687994 184.507312 
L 218.795098 184.507312 
" clip-path="url(#pc0db5caad2)" style="fill: none; stroke: #b34c42; stroke-width: 6"/>
   </g>
   <g id="line2d_41">
    <path d="M 226.662729 238.388645 
L 245.769832 238.388645 
" clip-path="url(#pc0db5caad2)" style="fill: none; stroke: #235f83; stroke-width: 6"/>
   </g>
   <g id="line2d_42">
    <path d="M 280.612197 238.388645 
L 299.7193 238.388645 
" clip-path="url(#pc0db5caad2)" style="fill: none; stroke: #235f83; stroke-width: 6"/>
   </g>
   <g id="line2d_43">
    <path d="M 307.586931 184.507312 
L 326.694034 184.507312 
" clip-path="url(#pc0db5caad2)" style="fill: none; stroke: #b34c42; stroke-width: 6"/>
   </g>
   <g id="line2d_44">
    <path d="M 334.561665 238.388645 
L 353.668768 238.388645 
" clip-path="url(#pc0db5caad2)" style="fill: none; stroke: #235f83; stroke-width: 6"/>
   </g>
   <g id="line2d_45">
    <path d="M 388.511133 238.388645 
L 407.618236 238.388645 
" clip-path="url(#pc0db5caad2)" style="fill: none; stroke: #235f83; stroke-width: 6"/>
   </g>
   <g id="line2d_46">
    <path d="M 415.485867 184.507312 
L 434.59297 184.507312 
" clip-path="url(#pc0db5caad2)" style="fill: none; stroke: #b34c42; stroke-width: 6"/>
   </g>
   <g id="line2d_47">
    <path d="M 442.460601 238.388645 
L 461.567704 238.388645 
" clip-path="url(#pc0db5caad2)" style="fill: none; stroke: #235f83; stroke-width: 6"/>
   </g>
   <g id="line2d_48">
    <path d="M 496.410069 238.388645 
L 515.517173 238.388645 
" clip-path="url(#pc0db5caad2)" style="fill: none; stroke: #235f83; stroke-width: 6"/>
   </g>
   <g id="line2d_49">
    <path d="M 523.384803 184.507312 
L 542.491907 184.507312 
" clip-path="url(#pc0db5caad2)" style="fill: none; stroke: #b34c42; stroke-width: 6"/>
   </g>
   <g id="line2d_50">
    <path d="M 550.359537 238.388645 
L 569.466641 238.388645 
" clip-path="url(#pc0db5caad2)" style="fill: none; stroke: #235f83; stroke-width: 6"/>
   </g>
   <g id="line2d_51">
    <path d="M 604.309006 238.388645 
L 623.416109 238.388645 
" clip-path="url(#pc0db5caad2)" style="fill: none; stroke: #235f83; stroke-width: 6"/>
   </g>
   <g id="line2d_52">
    <path d="M 631.28374 184.507312 
L 650.390843 184.507312 
" clip-path="url(#pc0db5caad2)" style="fill: none; stroke: #b34c42; stroke-width: 6"/>
   </g>
   <g id="line2d_53">
    <path d="M 658.258474 238.388645 
L 677.365577 238.388645 
" clip-path="url(#pc0db5caad2)" style="fill: none; stroke: #235f83; stroke-width: 6"/>
   </g>
   <g id="patch_6">
    <path d="M 49.079063 265.329312 
L 49.079063 157.566646 
" style="fill: none; stroke: #000000; stroke-width: 0.8; stroke-linejoin: miter; stroke-linecap: square"/>
   </g>
   <g id="patch_7">
    <path d="M 49.079063 265.329312 
L 721.19952 265.329312 
" style="fill: none; stroke: #000000; stroke-width: 0.8; stroke-linejoin: miter; stroke-linecap: square"/>
   </g>
   <g id="text_8">
    <!-- B  一条声流的解释：连接相邻音，形成整体节奏 -->
    <g transform="translate(49.079063 151.566646) scale(0.132 -0.132)">
     <defs>
      <path id="MicrosoftYaHei-4e00" d="M 100 2703 
L 6313 2703 
L 6313 2153 
L 100 2153 
L 100 2703 
z
" transform="scale(0.015625)"/>
      <path id="MicrosoftYaHei-6761" d="M 375 3347 
Q 1388 4178 2113 5328 
L 2681 5328 
Q 2488 5016 2284 4728 
L 5344 4728 
L 5344 4284 
Q 4606 3572 3797 3088 
Q 4747 2734 6313 2584 
Q 6100 2291 6038 2041 
Q 4253 2347 3272 2806 
Q 2156 2284 306 1897 
Q 213 2122 81 2347 
Q 1813 2666 2772 3069 
Q 2203 3416 1700 3978 
Q 1250 3453 750 3016 
Q 525 3241 375 3347 
z
M 694 1759 
L 3013 1759 
L 3013 2378 
L 3506 2378 
L 3506 1759 
L 5675 1759 
L 5675 1316 
L 3506 1316 
L 3506 3 
Q 3506 -728 2738 -728 
Q 2400 -728 1950 -722 
Q 1913 -466 1856 -172 
Q 2294 -222 2588 -222 
Q 3013 -222 3013 234 
L 3013 1316 
L 694 1316 
L 694 1759 
z
M 4706 4309 
L 1981 4309 
Q 2531 3719 3291 3319 
Q 4031 3722 4706 4309 
z
M 4094 666 
L 4381 1022 
Q 5413 459 6200 -53 
L 5900 -491 
Q 5150 47 4094 666 
z
M 1875 1084 
L 2244 741 
Q 1481 84 569 -541 
Q 425 -353 250 -159 
Q 1113 372 1875 1084 
z
" transform="scale(0.015625)"/>
      <path id="MicrosoftYaHei-58f0" d="M 956 2666 
L 5581 2666 
L 5581 628 
L 5094 628 
L 5094 916 
L 1400 916 
Q 1275 -84 438 -853 
Q 275 -653 100 -428 
Q 956 234 956 1603 
L 956 2666 
z
M 756 3609 
L 3025 3609 
L 3025 4228 
L 231 4228 
L 231 4659 
L 3025 4659 
L 3025 5316 
L 3531 5316 
L 3531 4659 
L 6294 4659 
L 6294 4228 
L 3531 4228 
L 3531 3609 
L 5788 3609 
L 5788 3178 
L 756 3178 
L 756 3609 
z
M 5094 2247 
L 3513 2247 
L 3513 1334 
L 5094 1334 
L 5094 2247 
z
M 1450 2247 
L 1450 1334 
L 3025 1334 
L 3025 2247 
L 1450 2247 
z
" transform="scale(0.015625)"/>
      <path id="MicrosoftYaHei-6d41" d="M 5013 3741 
Q 5500 3178 6094 2372 
Q 5863 2228 5644 2078 
Q 5488 2306 5341 2516 
Q 3806 2447 2519 2378 
Q 2319 2372 2019 2303 
L 1806 2772 
Q 2038 2891 2244 3059 
Q 2728 3472 3206 4078 
L 1819 4078 
L 1819 4522 
L 3803 4522 
Q 3566 4891 3350 5166 
L 3763 5422 
Q 3994 5128 4288 4734 
L 3963 4522 
L 6088 4522 
L 6088 4078 
L 3325 4078 
L 3738 3903 
Q 3156 3278 2650 2853 
Q 3659 2884 5041 2934 
Q 4822 3228 4625 3478 
L 5013 3741 
z
M 4681 2109 
L 5150 2109 
L 5150 16 
Q 5150 -272 5375 -272 
L 5594 -272 
Q 5788 -272 5838 47 
Q 5881 384 5894 834 
Q 6113 734 6363 653 
Q 6319 128 6269 -153 
Q 6194 -709 5675 -709 
L 5288 -709 
Q 4681 -709 4681 22 
L 4681 2109 
z
M 2306 2084 
L 2781 2084 
Q 2781 716 2525 166 
Q 2269 -441 1488 -866 
Q 1344 -634 1169 -453 
Q 1881 -78 2075 409 
Q 2306 884 2306 2084 
z
M 275 -616 
Q 650 484 925 1809 
Q 1200 1691 1431 1616 
Q 1150 534 825 -784 
L 275 -616 
z
M 3538 2084 
L 4006 2084 
L 4006 -703 
L 3538 -703 
L 3538 2084 
z
M 81 3247 
L 394 3609 
Q 900 3259 1456 2803 
Q 1231 2541 1094 2397 
Q 444 2978 81 3247 
z
M 325 4878 
L 644 5209 
Q 1100 4847 1663 4347 
L 1294 3978 
Q 775 4503 325 4878 
z
" transform="scale(0.015625)"/>
      <path id="MicrosoftYaHei-89e3" d="M 75 3559 
Q 756 4316 1188 5322 
L 1625 5203 
Q 1497 4941 1366 4697 
L 2544 4697 
L 2544 4309 
L 2084 3641 
L 2881 3641 
L 2881 -128 
Q 2881 -753 2263 -759 
Q 1994 -766 1706 -747 
Q 1688 -591 1638 -328 
Q 1938 -359 2175 -359 
Q 2475 -359 2475 -66 
L 2475 953 
L 1913 953 
L 1913 -203 
L 1506 -203 
L 1506 953 
L 950 953 
Q 897 -225 438 -847 
Q 294 -684 88 -528 
Q 550 153 550 1303 
L 550 3428 
Q 463 3319 375 3216 
Q 269 3359 75 3559 
z
M 3075 897 
L 4550 897 
L 4550 1797 
L 3794 1797 
Q 3659 1438 3513 1122 
Q 3331 1228 3106 1309 
Q 3456 2059 3663 2828 
L 4094 2709 
Q 4019 2456 3941 2222 
L 4550 2222 
L 4550 2897 
L 5013 2897 
L 5013 2222 
L 6131 2222 
L 6131 1797 
L 5013 1797 
L 5013 897 
L 6281 897 
L 6281 472 
L 5013 472 
L 5013 -841 
L 4550 -841 
L 4550 472 
L 3075 472 
L 3075 897 
z
M 3138 4997 
L 5950 4997 
Q 5931 4384 5888 3847 
Q 5844 3084 5081 3084 
Q 4819 3084 4438 3103 
Q 4400 3366 4350 3603 
Q 4800 3547 5056 3547 
Q 5394 3547 5425 3909 
Q 5456 4191 5469 4572 
L 4284 4572 
Q 4263 3950 4063 3584 
Q 3844 3159 3219 2759 
Q 3119 2916 2919 3159 
Q 3438 3441 3638 3778 
Q 3806 4050 3828 4572 
L 3138 4572 
L 3138 4997 
z
M 709 3641 
L 1581 3641 
L 2038 4316 
L 1150 4316 
Q 934 3950 709 3641 
z
M 1913 1322 
L 2475 1322 
L 2475 2116 
L 1913 2116 
L 1913 1322 
z
M 2475 3272 
L 1913 3272 
L 1913 2484 
L 2475 2484 
L 2475 3272 
z
M 956 1322 
L 1506 1322 
L 1506 2116 
L 956 2116 
L 956 1322 
z
M 956 2484 
L 1506 2484 
L 1506 3272 
L 956 3272 
L 956 2484 
z
" transform="scale(0.015625)"/>
      <path id="MicrosoftYaHei-91ca" d="M 2806 4559 
L 2806 4984 
L 5944 4984 
L 5944 4572 
Q 5575 3828 4863 3284 
Q 5475 2984 6319 2884 
Q 6244 2741 6081 2391 
Q 5119 2597 4444 3003 
Q 3756 2584 2825 2316 
Q 2769 2453 2594 2766 
Q 3419 2978 4031 3284 
Q 3394 3803 3100 4559 
L 2806 4559 
z
M 88 534 
Q 744 1403 1113 2472 
L 144 2472 
L 144 2878 
L 1213 2878 
L 1213 4516 
Q 719 4478 244 4447 
Q 213 4659 156 4878 
Q 1513 4953 2431 5084 
L 2613 4634 
Q 2125 4591 1656 4553 
L 1656 2878 
L 2544 2878 
L 2544 2472 
L 1656 2472 
L 1656 1922 
L 1925 2116 
Q 2388 1659 2638 1366 
L 2288 1053 
Q 2050 1366 1656 1797 
L 1656 -828 
L 1213 -828 
L 1213 1753 
Q 838 791 281 34 
Q 200 291 88 534 
z
M 2556 697 
L 4200 697 
L 4200 1434 
L 2844 1434 
L 2844 1872 
L 4200 1872 
L 4200 2597 
L 4669 2597 
L 4669 1872 
L 6050 1872 
L 6050 1434 
L 4669 1434 
L 4669 697 
L 6319 697 
L 6319 259 
L 4669 259 
L 4669 -809 
L 4200 -809 
L 4200 259 
L 2556 259 
L 2556 697 
z
M 5450 4559 
L 3550 4559 
Q 3863 3922 4444 3522 
Q 5119 3966 5450 4559 
z
M 1800 3197 
Q 2113 3759 2294 4228 
L 2700 4059 
Q 2450 3503 2156 3016 
L 1800 3197 
z
M 188 4072 
L 550 4234 
Q 875 3609 1013 3247 
L 600 3047 
Q 394 3634 188 4072 
z
" transform="scale(0.015625)"/>
      <path id="MicrosoftYaHei-8fde" d="M 1850 1391 
L 3950 1391 
L 3950 2259 
L 2131 2259 
L 2131 2703 
Q 2513 3369 2825 4116 
L 1925 4116 
L 1925 4553 
L 3000 4553 
Q 3150 4947 3281 5359 
L 3806 5247 
Q 3672 4894 3531 4553 
L 6088 4553 
L 6088 4116 
L 3350 4116 
Q 3031 3372 2694 2697 
L 3950 2697 
L 3950 3778 
L 4450 3778 
L 4450 2697 
L 6050 2697 
L 6050 2259 
L 4450 2259 
L 4450 1391 
L 6225 1391 
L 6225 953 
L 4450 953 
L 4450 -78 
L 3950 -78 
L 3950 953 
L 1850 953 
L 1850 1391 
z
M 2650 -216 
L 3931 -247 
L 6319 -191 
Q 6213 -441 6113 -672 
L 3944 -697 
L 2594 -666 
Q 1588 -653 1088 47 
Q 906 -97 356 -753 
L 88 -222 
Q 478 131 863 459 
L 863 2641 
L 150 2641 
L 150 3097 
L 1350 3097 
L 1350 369 
Q 1806 -188 2650 -216 
z
M 856 5203 
Q 1288 4659 1688 4084 
L 1244 3772 
Q 875 4359 456 4934 
L 856 5203 
z
" transform="scale(0.015625)"/>
      <path id="MicrosoftYaHei-63a5" d="M 1800 -366 
Q 3019 -188 3784 222 
Q 3200 484 2531 772 
Q 2800 1119 3028 1466 
L 2000 1466 
L 2000 1884 
L 3291 1884 
Q 3491 2222 3656 2559 
L 4119 2366 
Q 3969 2116 3822 1884 
L 6225 1884 
L 6225 1466 
L 5403 1466 
Q 5156 778 4672 306 
Q 5469 -25 6219 -353 
L 5944 -816 
Q 5241 -444 4288 -3 
Q 3450 -572 2038 -841 
Q 1950 -634 1800 -366 
z
M 100 1966 
Q 544 2088 963 2213 
L 963 3641 
L 175 3641 
L 175 4091 
L 963 4091 
L 963 5259 
L 1425 5259 
L 1425 4091 
L 2144 4091 
L 2144 3641 
L 1425 3641 
L 1425 2356 
Q 1722 2450 2006 2547 
Q 2013 2266 2044 2059 
Q 1722 1956 1425 1856 
L 1425 -72 
Q 1425 -747 819 -753 
Q 588 -759 231 -747 
Q 206 -491 156 -228 
Q 531 -266 688 -266 
Q 963 -266 963 66 
L 963 1703 
Q 534 1559 163 1428 
L 100 1966 
z
M 2019 3072 
L 4453 3072 
Q 4850 3622 5156 4103 
L 5625 3847 
Q 5300 3456 4966 3072 
L 6269 3072 
L 6269 2653 
L 2019 2653 
L 2019 3072 
z
M 2263 4591 
L 4028 4591 
Q 3881 4875 3719 5153 
L 4138 5347 
Q 4338 5009 4519 4666 
L 4359 4591 
L 6119 4591 
L 6119 4172 
L 2263 4172 
L 2263 4591 
z
M 3181 909 
Q 3703 703 4203 497 
Q 4694 894 4900 1466 
L 3553 1466 
Q 3363 1175 3181 909 
z
M 2825 3853 
L 3188 4097 
Q 3481 3753 3756 3372 
L 3356 3103 
Q 3119 3491 2825 3853 
z
" transform="scale(0.015625)"/>
      <path id="MicrosoftYaHei-76f8" d="M 2738 4891 
L 6025 4891 
L 6025 -822 
L 5550 -822 
L 5550 -397 
L 3213 -397 
L 3213 -822 
L 2738 -822 
L 2738 4891 
z
M 94 1409 
Q 784 2372 1128 3622 
L 169 3622 
L 169 4041 
L 1138 4041 
L 1138 5284 
L 1594 5284 
L 1594 4041 
L 2506 4041 
L 2506 3622 
L 1594 3622 
L 1594 2534 
L 1844 2791 
Q 2275 2372 2638 1984 
L 2300 1653 
Q 1956 2059 1594 2444 
L 1594 -809 
L 1138 -809 
L 1138 2444 
Q 800 1516 319 866 
Q 225 1134 94 1409 
z
M 3213 28 
L 5550 28 
L 5550 1241 
L 3213 1241 
L 3213 28 
z
M 5550 4466 
L 3213 4466 
L 3213 3266 
L 5550 3266 
L 5550 4466 
z
M 3213 1653 
L 5550 1653 
L 5550 2853 
L 3213 2853 
L 3213 1653 
z
" transform="scale(0.015625)"/>
      <path id="MicrosoftYaHei-90bb" d="M 5400 2766 
Q 6238 2034 6244 1153 
Q 6238 172 5369 34 
Q 5025 -3 4575 66 
Q 4550 291 4481 641 
Q 4844 547 5156 547 
Q 5763 547 5719 1278 
Q 5694 1916 4813 2684 
Q 5275 3653 5588 4459 
L 4356 4459 
L 4356 -872 
L 3869 -872 
L 3869 4909 
L 6113 4909 
L 6113 4441 
Q 5756 3578 5400 2766 
z
M 1156 1172 
Q 1538 753 1894 359 
L 2763 1753 
L 475 1753 
L 475 2216 
L 3338 2216 
L 3338 1747 
L 2225 -16 
Q 2425 -234 2619 -453 
L 2219 -816 
Q 1594 -34 800 853 
L 1156 1172 
z
M 2406 5178 
L 2306 5016 
Q 3056 4166 3713 3303 
L 3300 2953 
Q 2581 3953 2025 4578 
Q 1388 3572 450 2741 
Q 250 2984 81 3128 
Q 1300 4134 1769 5178 
L 2406 5178 
z
M 1494 3447 
L 1900 3684 
Q 2238 3153 2519 2678 
L 2069 2403 
Q 1794 2959 1494 3447 
z
" transform="scale(0.015625)"/>
      <path id="MicrosoftYaHei-97f3" d="M 906 2297 
L 5450 2297 
L 5450 -791 
L 4975 -791 
L 4975 -447 
L 1381 -447 
L 1381 -803 
L 906 -803 
L 906 2297 
z
M 131 3303 
L 1978 3303 
Q 1800 3613 1588 3878 
L 1981 4134 
Q 2231 3816 2469 3459 
L 2222 3303 
L 3866 3303 
Q 4163 3713 4400 4147 
L 4888 3859 
Q 4694 3622 4419 3303 
L 6244 3303 
L 6244 2853 
L 131 2853 
L 131 3303 
z
M 450 4609 
L 3081 4609 
Q 2934 4903 2775 5141 
L 3250 5366 
Q 3431 5097 3638 4759 
L 3334 4609 
L 5944 4609 
L 5944 4159 
L 450 4159 
L 450 4609 
z
M 1381 -3 
L 4975 -3 
L 4975 722 
L 1381 722 
L 1381 -3 
z
M 4975 1853 
L 1381 1853 
L 1381 1153 
L 4975 1153 
L 4975 1853 
z
" transform="scale(0.015625)"/>
      <path id="MicrosoftYaHei-ff0c" d="M 1931 775 
L 1403 -891 
L 966 -891 
L 1350 775 
L 1931 775 
z
" transform="scale(0.015625)"/>
      <path id="MicrosoftYaHei-5f62" d="M 175 2647 
L 1019 2647 
L 1019 4422 
L 350 4422 
L 350 4872 
L 3775 4872 
L 3775 4422 
L 3006 4422 
L 3006 2647 
L 3975 2647 
L 3975 2197 
L 3006 2197 
L 3006 -791 
L 2525 -791 
L 2525 2197 
L 1497 2197 
Q 1500 128 406 -841 
Q 256 -622 75 -428 
Q 1025 366 1016 2197 
L 175 2197 
L 175 2647 
z
M 1500 2647 
L 2525 2647 
L 2525 4422 
L 1500 4422 
L 1500 2647 
z
M 6319 1353 
Q 5331 166 3738 -834 
Q 3631 -666 3388 -422 
Q 4925 397 5956 1672 
L 6319 1353 
z
M 6138 3172 
Q 5250 2159 4019 1347 
Q 3888 1528 3694 1722 
Q 4856 2441 5775 3484 
L 6138 3172 
z
M 6038 4934 
Q 5194 4009 3988 3266 
Q 3875 3428 3675 3666 
Q 4838 4322 5675 5253 
L 6038 4934 
z
" transform="scale(0.015625)"/>
      <path id="MicrosoftYaHei-6210" d="M 2750 -347 
Q 3472 138 4038 781 
Q 3675 1703 3609 3759 
L 1250 3759 
L 1250 2809 
L 3050 2809 
Q 3013 1616 2950 803 
Q 2875 -59 2113 -59 
Q 1856 -59 1431 -34 
Q 1394 197 1331 484 
Q 1769 422 2063 422 
Q 2425 422 2469 922 
Q 2519 1497 2544 2347 
L 1247 2347 
Q 1197 175 369 -866 
Q 213 -653 44 -434 
Q 750 503 750 2528 
L 750 4222 
L 3591 4222 
Q 3569 4716 3550 5291 
L 4069 5291 
Q 4066 4850 4084 4222 
L 6238 4222 
L 6238 3759 
L 4100 3759 
Q 4163 2078 4409 1247 
Q 5016 2069 5406 3109 
L 5900 2903 
Q 5363 1631 4609 691 
Q 5069 -244 5506 -244 
Q 5666 -244 5750 47 
Q 5838 503 5888 984 
Q 6156 878 6363 809 
Q 6269 141 6156 -284 
Q 6038 -741 5631 -778 
Q 5250 -803 4900 -522 
Q 4522 -231 4256 278 
Q 3728 -291 3106 -722 
Q 2944 -534 2750 -347 
z
M 4544 4984 
L 4806 5309 
Q 5331 5009 5788 4684 
L 5488 4309 
Q 5038 4666 4544 4984 
z
" transform="scale(0.015625)"/>
      <path id="MicrosoftYaHei-6574" d="M 138 -234 
L 1263 -234 
L 1263 891 
L 1713 891 
L 1713 -234 
L 3025 -234 
L 3025 1178 
L 550 1178 
L 550 1578 
L 5800 1578 
L 5800 1178 
L 3475 1178 
L 3475 697 
L 5525 697 
L 5525 297 
L 3475 297 
L 3475 -234 
L 6256 -234 
L 6256 -634 
L 138 -634 
L 138 -234 
z
M 25 2003 
Q 825 2334 1481 2916 
L 913 2916 
L 913 2759 
L 506 2759 
L 506 4109 
L 1650 4109 
L 1650 4491 
L 250 4491 
L 250 4866 
L 1650 4866 
L 1650 5291 
L 2069 5291 
L 2069 4866 
L 3425 4866 
L 3425 4491 
L 2069 4491 
L 2069 4109 
L 3213 4109 
L 3213 2759 
L 2806 2759 
L 2806 2916 
L 2069 2916 
L 2069 2541 
L 2225 2747 
Q 2781 2484 3288 2216 
L 3075 1872 
Q 2550 2184 2069 2397 
L 2069 1722 
L 1650 1722 
L 1650 2647 
Q 1075 2078 288 1647 
Q 175 1803 25 2003 
z
M 3363 2078 
Q 4050 2341 4519 2716 
Q 4144 3134 3938 3716 
Q 3788 3447 3631 3197 
L 3256 3459 
Q 3850 4253 4163 5322 
L 4600 5191 
Q 4481 4872 4356 4572 
L 6263 4572 
L 6263 4172 
L 5850 4172 
Q 5644 3316 5181 2741 
Q 5638 2428 6325 2247 
Q 6169 2047 6013 1778 
Q 5319 2034 4844 2403 
Q 4363 1984 3650 1678 
Q 3525 1859 3363 2078 
z
M 5400 4172 
L 4219 4172 
Q 4394 3484 4838 3022 
Q 5244 3503 5400 4172 
z
M 2806 3266 
L 2806 3759 
L 2069 3759 
L 2069 3266 
L 2806 3266 
z
M 913 3266 
L 1650 3266 
L 1650 3759 
L 913 3759 
L 913 3266 
z
" transform="scale(0.015625)"/>
      <path id="MicrosoftYaHei-4f53" d="M 6350 778 
Q 6138 522 5981 316 
Q 4731 1278 4144 3572 
L 4144 934 
L 5063 934 
L 5063 484 
L 4144 484 
L 4144 -822 
L 3681 -822 
L 3681 484 
L 2763 484 
L 2763 934 
L 3681 934 
L 3681 3572 
L 3666 3572 
Q 3084 1413 1750 216 
Q 1606 397 1419 609 
Q 2625 1713 3225 3572 
L 1756 3572 
L 1756 4022 
L 3681 4022 
L 3681 5297 
L 4144 5297 
L 4144 4022 
L 6138 4022 
L 6138 3572 
L 4547 3572 
Q 5144 1628 6350 778 
z
M 56 2297 
Q 963 3622 1406 5316 
L 1881 5178 
Q 1638 4381 1331 3681 
L 1331 -816 
L 869 -816 
L 869 2741 
Q 588 2231 269 1784 
Q 175 2041 56 2297 
z
" transform="scale(0.015625)"/>
      <path id="MicrosoftYaHei-8282" d="M 438 2928 
L 5600 2928 
Q 5538 1622 5475 922 
Q 5406 3 4400 3 
Q 3806 3 3425 41 
Q 3388 341 3325 584 
Q 3869 497 4338 497 
Q 4944 497 4981 1084 
Q 5038 1553 5075 2472 
L 2569 2472 
L 2569 -834 
L 2050 -834 
L 2050 2472 
L 438 2472 
L 438 2928 
z
M 125 4478 
L 1856 4478 
L 1856 5303 
L 2356 5303 
L 2356 4478 
L 4031 4478 
L 4031 5303 
L 4531 5303 
L 4531 4478 
L 6263 4478 
L 6263 4022 
L 4531 4022 
L 4531 3322 
L 4031 3322 
L 4031 4022 
L 2356 4022 
L 2356 3328 
L 1856 3328 
L 1856 4022 
L 125 4022 
L 125 4478 
z
" transform="scale(0.015625)"/>
      <path id="MicrosoftYaHei-594f" d="M 863 909 
L 2888 909 
Q 2925 1147 2944 1472 
L 1756 1472 
L 1756 1816 
Q 1181 1316 394 872 
Q 275 1016 63 1253 
Q 1094 1791 1731 2434 
L 200 2434 
L 200 2853 
L 2094 2853 
Q 2275 3084 2400 3334 
L 675 3334 
L 675 3741 
L 2588 3741 
Q 2675 3959 2744 4216 
L 450 4216 
L 450 4634 
L 2844 4634 
Q 2906 4953 2950 5322 
L 3438 5322 
Q 3388 4953 3325 4634 
L 5975 4634 
L 5975 4216 
L 3231 4216 
Q 3163 3959 3088 3741 
L 5750 3741 
L 5750 3334 
L 2925 3334 
Q 2813 3084 2663 2853 
L 6200 2853 
L 6200 2434 
L 4494 2434 
Q 5156 1697 6325 1384 
Q 6131 1134 6006 953 
Q 5163 1253 4550 1784 
L 4550 1472 
L 3406 1472 
Q 3394 1184 3363 909 
L 5513 909 
L 5513 491 
L 3275 491 
Q 3256 441 3219 366 
Q 4375 22 5631 -416 
L 5419 -859 
Q 4156 -341 2969 16 
Q 2350 -609 788 -909 
Q 675 -697 519 -472 
Q 2313 -191 2744 491 
L 863 491 
L 863 909 
z
M 3956 2434 
L 2356 2434 
Q 2119 2147 1819 1878 
L 4450 1878 
Q 4175 2128 3956 2434 
z
" transform="scale(0.015625)"/>
     </defs>
     <use xlink:href="#MicrosoftYaHei-42"/>
     <use xlink:href="#MicrosoftYaHei-20" x="62.744141"/>
     <use xlink:href="#MicrosoftYaHei-20" x="92.333984"/>
     <use xlink:href="#MicrosoftYaHei-4e00" x="121.923828"/>
     <use xlink:href="#MicrosoftYaHei-6761" x="221.923828"/>
     <use xlink:href="#MicrosoftYaHei-58f0" x="321.923828"/>
     <use xlink:href="#MicrosoftYaHei-6d41" x="421.923828"/>
     <use xlink:href="#MicrosoftYaHei-7684" x="521.923828"/>
     <use xlink:href="#MicrosoftYaHei-89e3" x="621.923828"/>
     <use xlink:href="#MicrosoftYaHei-91ca" x="721.923828"/>
     <use xlink:href="#MicrosoftYaHei-ff1a" x="821.923828"/>
     <use xlink:href="#MicrosoftYaHei-8fde" x="921.923828"/>
     <use xlink:href="#MicrosoftYaHei-63a5" x="1021.923828"/>
     <use xlink:href="#MicrosoftYaHei-76f8" x="1121.923828"/>
     <use xlink:href="#MicrosoftYaHei-90bb" x="1221.923828"/>
     <use xlink:href="#MicrosoftYaHei-97f3" x="1321.923828"/>
     <use xlink:href="#MicrosoftYaHei-ff0c" x="1421.923828"/>
     <use xlink:href="#MicrosoftYaHei-5f62" x="1521.923828"/>
     <use xlink:href="#MicrosoftYaHei-6210" x="1621.923828"/>
     <use xlink:href="#MicrosoftYaHei-6574" x="1721.923828"/>
     <use xlink:href="#MicrosoftYaHei-4f53" x="1821.923828"/>
     <use xlink:href="#MicrosoftYaHei-8282" x="1921.923828"/>
     <use xlink:href="#MicrosoftYaHei-594f" x="2021.923828"/>
    </g>
   </g>
  </g>
  <g id="axes_3">
   <g id="patch_8">
    <path d="M 49.079063 399.144207 
L 721.19952 399.144207 
L 721.19952 291.381542 
L 49.079063 291.381542 
z
" style="fill: #ffffff"/>
   </g>
   <g id="line2d_54">
    <path d="M 74.255481 372.203541 
L 128.204949 372.203541 
L 182.154417 372.203541 
L 236.103885 372.203541 
L 290.053354 372.203541 
L 344.002822 372.203541 
L 397.95229 372.203541 
L 451.901758 372.203541 
L 505.851226 372.203541 
L 559.800694 372.203541 
L 613.750163 372.203541 
L 667.699631 372.203541 
" clip-path="url(#p28cc315b0f)" style="fill: none; stroke-dasharray: 3.7,1.6; stroke-dashoffset: 0; stroke: #235f83"/>
   </g>
   <g id="line2d_55">
    <path d="M 101.230215 318.322208 
L 209.129151 318.322208 
L 317.028088 318.322208 
L 424.927024 318.322208 
L 532.82596 318.322208 
L 640.724897 318.322208 
" clip-path="url(#p28cc315b0f)" style="fill: none; stroke-dasharray: 3.7,1.6; stroke-dashoffset: 0; stroke: #b34c42"/>
   </g>
   <g id="matplotlib.axis_5">
    <g id="xtick_13">
     <g id="line2d_56">
      <g>
       <use xlink:href="#mb628035b87" x="64.814324" y="399.144207" style="stroke: #000000; stroke-width: 0.8"/>
      </g>
     </g>
     <g id="text_9">
      <!-- 0.0 -->
      <g transform="translate(57.039558 414.937332) scale(0.11 -0.11)">
       <defs>
        <path id="MicrosoftYaHei-2e" d="M 372 322 
Q 372 491 487 606 
Q 603 722 775 722 
Q 950 722 1065 605 
Q 1181 488 1181 322 
Q 1181 159 1065 42 
Q 950 -75 772 -75 
Q 600 -75 486 42 
Q 372 159 372 322 
z
" transform="scale(0.015625)"/>
       </defs>
       <use xlink:href="#MicrosoftYaHei-30"/>
       <use xlink:href="#MicrosoftYaHei-2e" x="58.642578"/>
       <use xlink:href="#MicrosoftYaHei-30" x="82.714844"/>
      </g>
     </g>
    </g>
    <g id="xtick_14">
     <g id="line2d_57">
      <g>
       <use xlink:href="#mb628035b87" x="177.209049" y="399.144207" style="stroke: #000000; stroke-width: 0.8"/>
      </g>
     </g>
     <g id="text_10">
      <!-- 0.5 -->
      <g transform="translate(169.434284 414.937332) scale(0.11 -0.11)">
       <defs>
        <path id="MicrosoftYaHei-35" d="M 3294 1494 
Q 3294 784 2823 350 
Q 2353 -84 1559 -84 
Q 878 -84 544 119 
L 544 744 
Q 1034 425 1544 425 
Q 2050 425 2361 704 
Q 2672 984 2672 1447 
Q 2672 1909 2348 2167 
Q 2025 2425 1434 2425 
Q 978 2425 613 2384 
L 791 4841 
L 3053 4841 
L 3053 4303 
L 1306 4303 
L 1206 2931 
L 1647 2950 
Q 2416 2950 2855 2567 
Q 3294 2184 3294 1494 
z
" transform="scale(0.015625)"/>
       </defs>
       <use xlink:href="#MicrosoftYaHei-30"/>
       <use xlink:href="#MicrosoftYaHei-2e" x="58.642578"/>
       <use xlink:href="#MicrosoftYaHei-35" x="82.714844"/>
      </g>
     </g>
    </g>
    <g id="xtick_15">
     <g id="line2d_58">
      <g>
       <use xlink:href="#mb628035b87" x="289.603775" y="399.144207" style="stroke: #000000; stroke-width: 0.8"/>
      </g>
     </g>
     <g id="text_11">
      <!-- 1.0 -->
      <g transform="translate(281.829009 414.937332) scale(0.11 -0.11)">
       <defs>
        <path id="MicrosoftYaHei-31" d="M 1781 0 
L 1781 4141 
Q 1638 3997 1295 3819 
Q 953 3641 663 3569 
L 663 4169 
Q 1047 4275 1484 4508 
Q 1922 4741 2156 4947 
L 2388 4947 
L 2388 0 
L 1781 0 
z
" transform="scale(0.015625)"/>
       </defs>
       <use xlink:href="#MicrosoftYaHei-31"/>
       <use xlink:href="#MicrosoftYaHei-2e" x="58.642578"/>
       <use xlink:href="#MicrosoftYaHei-30" x="82.714844"/>
      </g>
     </g>
    </g>
    <g id="xtick_16">
     <g id="line2d_59">
      <g>
       <use xlink:href="#mb628035b87" x="401.9985" y="399.144207" style="stroke: #000000; stroke-width: 0.8"/>
      </g>
     </g>
     <g id="text_12">
      <!-- 1.5 -->
      <g transform="translate(394.223734 414.937332) scale(0.11 -0.11)">
       <use xlink:href="#MicrosoftYaHei-31"/>
       <use xlink:href="#MicrosoftYaHei-2e" x="58.642578"/>
       <use xlink:href="#MicrosoftYaHei-35" x="82.714844"/>
      </g>
     </g>
    </g>
    <g id="xtick_17">
     <g id="line2d_60">
      <g>
       <use xlink:href="#mb628035b87" x="514.393225" y="399.144207" style="stroke: #000000; stroke-width: 0.8"/>
      </g>
     </g>
     <g id="text_13">
      <!-- 2.0 -->
      <g transform="translate(506.61846 414.937332) scale(0.11 -0.11)">
       <defs>
        <path id="MicrosoftYaHei-32" d="M 2666 3572 
Q 2666 3963 2419 4186 
Q 2172 4409 1747 4409 
Q 1447 4409 1140 4256 
Q 834 4103 569 3819 
L 569 4413 
Q 806 4659 1107 4790 
Q 1409 4922 1816 4922 
Q 2472 4922 2872 4570 
Q 3272 4219 3272 3619 
Q 3272 3084 3026 2693 
Q 2781 2303 2188 1894 
Q 1581 1475 1376 1294 
Q 1172 1113 1090 947 
Q 1009 781 1009 544 
L 3416 544 
L 3416 0 
L 372 0 
L 372 241 
Q 372 659 486 951 
Q 600 1244 862 1520 
Q 1125 1797 1681 2184 
Q 2250 2584 2458 2886 
Q 2666 3188 2666 3572 
z
" transform="scale(0.015625)"/>
       </defs>
       <use xlink:href="#MicrosoftYaHei-32"/>
       <use xlink:href="#MicrosoftYaHei-2e" x="58.642578"/>
       <use xlink:href="#MicrosoftYaHei-30" x="82.714844"/>
      </g>
     </g>
    </g>
    <g id="xtick_18">
     <g id="line2d_61">
      <g>
       <use xlink:href="#mb628035b87" x="626.787951" y="399.144207" style="stroke: #000000; stroke-width: 0.8"/>
      </g>
     </g>
     <g id="text_14">
      <!-- 2.5 -->
      <g transform="translate(619.013185 414.937332) scale(0.11 -0.11)">
       <use xlink:href="#MicrosoftYaHei-32"/>
       <use xlink:href="#MicrosoftYaHei-2e" x="58.642578"/>
       <use xlink:href="#MicrosoftYaHei-35" x="82.714844"/>
      </g>
     </g>
    </g>
    <g id="text_15">
     <!-- 时间（s） -->
     <g transform="translate(360.592963 430.464989) scale(0.11 -0.11)">
      <defs>
       <path id="MicrosoftYaHei-65f6" d="M 344 4728 
L 2500 4728 
L 2500 -366 
L 2006 -366 
L 2006 153 
L 838 153 
L 838 -441 
L 344 -441 
L 344 4728 
z
M 2706 3941 
L 4925 3941 
L 4925 5322 
L 5425 5322 
L 5425 3941 
L 6313 3941 
L 6313 3478 
L 5425 3478 
L 5425 116 
Q 5425 -722 4625 -722 
Q 4263 -722 3563 -703 
Q 3531 -478 3463 -178 
Q 4119 -228 4488 -228 
Q 4925 -228 4925 216 
L 4925 3478 
L 2706 3478 
L 2706 3941 
z
M 838 616 
L 2006 616 
L 2006 2234 
L 838 2234 
L 838 616 
z
M 2006 4266 
L 838 4266 
L 838 2684 
L 2006 2684 
L 2006 4266 
z
M 3406 2878 
Q 3906 1966 4163 1422 
Q 4000 1347 3663 1172 
Q 3419 1766 2963 2653 
L 3406 2878 
z
" transform="scale(0.015625)"/>
       <path id="MicrosoftYaHei-95f4" d="M 1863 3647 
L 4513 3647 
L 4513 553 
L 2313 553 
L 2313 166 
L 1863 166 
L 1863 3647 
z
M 2388 4453 
L 2388 4922 
L 6013 4922 
L 6013 -28 
Q 6013 -816 5119 -816 
Q 4756 -816 4169 -803 
Q 4144 -616 4069 -297 
Q 4588 -334 5056 -334 
Q 5525 -334 5525 122 
L 5525 4453 
L 2388 4453 
z
M 419 4084 
L 906 4084 
L 906 -816 
L 419 -816 
L 419 4084 
z
M 2313 997 
L 4063 997 
L 4063 1884 
L 2313 1884 
L 2313 997 
z
M 4063 3203 
L 2313 3203 
L 2313 2328 
L 4063 2328 
L 4063 3203 
z
M 744 5003 
L 1100 5322 
Q 1575 4872 1981 4447 
L 1575 4091 
Q 1194 4541 744 5003 
z
" transform="scale(0.015625)"/>
       <path id="MicrosoftYaHei-73" d="M 353 747 
Q 816 413 1350 413 
Q 2066 413 2066 881 
Q 2066 1081 1909 1211 
Q 1753 1341 1275 1519 
Q 700 1750 528 1976 
Q 356 2203 356 2525 
Q 356 2984 745 3261 
Q 1134 3538 1703 3538 
Q 2144 3538 2522 3384 
L 2522 2794 
Q 2134 3044 1644 3044 
Q 1350 3044 1165 2916 
Q 981 2788 981 2578 
Q 981 2372 1114 2256 
Q 1247 2141 1703 1959 
Q 2281 1744 2484 1512 
Q 2688 1281 2688 941 
Q 2688 466 2298 192 
Q 1909 -81 1291 -81 
Q 753 -81 353 122 
L 353 747 
z
" transform="scale(0.015625)"/>
      </defs>
      <use xlink:href="#MicrosoftYaHei-65f6"/>
      <use xlink:href="#MicrosoftYaHei-95f4" x="100"/>
      <use xlink:href="#MicrosoftYaHei-ff08" x="200"/>
      <use xlink:href="#MicrosoftYaHei-73" x="300"/>
      <use xlink:href="#MicrosoftYaHei-ff09" x="346.289062"/>
     </g>
    </g>
   </g>
   <g id="matplotlib.axis_6">
    <g id="ytick_5">
     <g id="line2d_62">
      <g>
       <use xlink:href="#mc1af9b989f" x="49.079063" y="372.203541" style="stroke: #000000; stroke-width: 0.8"/>
      </g>
     </g>
     <g id="text_16">
      <!-- 600 -->
      <g transform="translate(22.727656 376.600104) scale(0.11 -0.11)">
       <use xlink:href="#MicrosoftYaHei-36"/>
       <use xlink:href="#MicrosoftYaHei-30" x="58.642578"/>
       <use xlink:href="#MicrosoftYaHei-30" x="117.285156"/>
      </g>
     </g>
    </g>
    <g id="ytick_6">
     <g id="line2d_63">
      <g>
       <use xlink:href="#mc1af9b989f" x="49.079063" y="318.322208" style="stroke: #000000; stroke-width: 0.8"/>
      </g>
     </g>
     <g id="text_17">
      <!-- 900 -->
      <g transform="translate(22.727656 322.718771) scale(0.11 -0.11)">
       <use xlink:href="#MicrosoftYaHei-39"/>
       <use xlink:href="#MicrosoftYaHei-30" x="58.642578"/>
       <use xlink:href="#MicrosoftYaHei-30" x="117.285156"/>
      </g>
     </g>
    </g>
    <g id="text_18">
     <!-- 频率（Hz） -->
     <g transform="translate(15.993125 374.221234) rotate(-90) scale(0.11 -0.11)">
      <use xlink:href="#MicrosoftYaHei-9891"/>
      <use xlink:href="#MicrosoftYaHei-7387" x="100"/>
      <use xlink:href="#MicrosoftYaHei-ff08" x="200"/>
      <use xlink:href="#MicrosoftYaHei-48" x="300"/>
      <use xlink:href="#MicrosoftYaHei-7a" x="377.34375"/>
      <use xlink:href="#MicrosoftYaHei-ff09" x="426.513672"/>
     </g>
    </g>
   </g>
   <g id="line2d_64">
    <path d="M 64.814324 372.203541 
L 83.921427 372.203541 
" clip-path="url(#p28cc315b0f)" style="fill: none; stroke: #235f83; stroke-width: 6"/>
   </g>
   <g id="line2d_65">
    <path d="M 91.789058 318.322208 
L 110.896161 318.322208 
" clip-path="url(#p28cc315b0f)" style="fill: none; stroke: #b34c42; stroke-width: 6"/>
   </g>
   <g id="line2d_66">
    <path d="M 118.763792 372.203541 
L 137.870896 372.203541 
" clip-path="url(#p28cc315b0f)" style="fill: none; stroke: #235f83; stroke-width: 6"/>
   </g>
   <g id="line2d_67">
    <path d="M 172.71326 372.203541 
L 191.820364 372.203541 
" clip-path="url(#p28cc315b0f)" style="fill: none; stroke: #235f83; stroke-width: 6"/>
   </g>
   <g id="line2d_68">
    <path d="M 199.687994 318.322208 
L 218.795098 318.322208 
" clip-path="url(#p28cc315b0f)" style="fill: none; stroke: #b34c42; stroke-width: 6"/>
   </g>
   <g id="line2d_69">
    <path d="M 226.662729 372.203541 
L 245.769832 372.203541 
" clip-path="url(#p28cc315b0f)" style="fill: none; stroke: #235f83; stroke-width: 6"/>
   </g>
   <g id="line2d_70">
    <path d="M 280.612197 372.203541 
L 299.7193 372.203541 
" clip-path="url(#p28cc315b0f)" style="fill: none; stroke: #235f83; stroke-width: 6"/>
   </g>
   <g id="line2d_71">
    <path d="M 307.586931 318.322208 
L 326.694034 318.322208 
" clip-path="url(#p28cc315b0f)" style="fill: none; stroke: #b34c42; stroke-width: 6"/>
   </g>
   <g id="line2d_72">
    <path d="M 334.561665 372.203541 
L 353.668768 372.203541 
" clip-path="url(#p28cc315b0f)" style="fill: none; stroke: #235f83; stroke-width: 6"/>
   </g>
   <g id="line2d_73">
    <path d="M 388.511133 372.203541 
L 407.618236 372.203541 
" clip-path="url(#p28cc315b0f)" style="fill: none; stroke: #235f83; stroke-width: 6"/>
   </g>
   <g id="line2d_74">
    <path d="M 415.485867 318.322208 
L 434.59297 318.322208 
" clip-path="url(#p28cc315b0f)" style="fill: none; stroke: #b34c42; stroke-width: 6"/>
   </g>
   <g id="line2d_75">
    <path d="M 442.460601 372.203541 
L 461.567704 372.203541 
" clip-path="url(#p28cc315b0f)" style="fill: none; stroke: #235f83; stroke-width: 6"/>
   </g>
   <g id="line2d_76">
    <path d="M 496.410069 372.203541 
L 515.517173 372.203541 
" clip-path="url(#p28cc315b0f)" style="fill: none; stroke: #235f83; stroke-width: 6"/>
   </g>
   <g id="line2d_77">
    <path d="M 523.384803 318.322208 
L 542.491907 318.322208 
" clip-path="url(#p28cc315b0f)" style="fill: none; stroke: #b34c42; stroke-width: 6"/>
   </g>
   <g id="line2d_78">
    <path d="M 550.359537 372.203541 
L 569.466641 372.203541 
" clip-path="url(#p28cc315b0f)" style="fill: none; stroke: #235f83; stroke-width: 6"/>
   </g>
   <g id="line2d_79">
    <path d="M 604.309006 372.203541 
L 623.416109 372.203541 
" clip-path="url(#p28cc315b0f)" style="fill: none; stroke: #235f83; stroke-width: 6"/>
   </g>
   <g id="line2d_80">
    <path d="M 631.28374 318.322208 
L 650.390843 318.322208 
" clip-path="url(#p28cc315b0f)" style="fill: none; stroke: #b34c42; stroke-width: 6"/>
   </g>
   <g id="line2d_81">
    <path d="M 658.258474 372.203541 
L 677.365577 372.203541 
" clip-path="url(#p28cc315b0f)" style="fill: none; stroke: #235f83; stroke-width: 6"/>
   </g>
   <g id="patch_9">
    <path d="M 49.079063 399.144207 
L 49.079063 291.381542 
" style="fill: none; stroke: #000000; stroke-width: 0.8; stroke-linejoin: miter; stroke-linecap: square"/>
   </g>
   <g id="patch_10">
    <path d="M 49.079063 399.144207 
L 721.19952 399.144207 
" style="fill: none; stroke: #000000; stroke-width: 0.8; stroke-linejoin: miter; stroke-linecap: square"/>
   </g>
   <g id="text_19">
    <!-- C  两条声流的解释：分别连接同类音 -->
    <g transform="translate(49.079063 285.381542) scale(0.132 -0.132)">
     <defs>
      <path id="MicrosoftYaHei-43" d="M 3938 200 
Q 3403 -81 2597 -81 
Q 1556 -81 934 580 
Q 313 1241 313 2328 
Q 313 3497 1013 4209 
Q 1713 4922 2791 4922 
Q 3484 4922 3938 4725 
L 3938 4072 
Q 3419 4359 2797 4359 
Q 1988 4359 1478 3820 
Q 969 3281 969 2366 
Q 969 1497 1444 986 
Q 1919 475 2688 475 
Q 3406 475 3938 800 
L 3938 200 
z
" transform="scale(0.015625)"/>
      <path id="MicrosoftYaHei-4e24" d="M 163 4991 
L 6238 4991 
L 6238 4534 
L 4325 4534 
Q 4328 4084 4316 3697 
L 5856 3697 
L 5856 3 
Q 5856 -716 5138 -716 
Q 4800 -716 4181 -703 
Q 4150 -484 4094 -216 
Q 4688 -259 4994 -259 
Q 5388 -259 5388 122 
L 5388 3247 
L 4297 3247 
Q 4269 2634 4172 2138 
Q 4859 1500 5325 966 
L 5000 616 
Q 4519 1194 4038 1678 
Q 3734 834 3050 147 
Q 2913 303 2663 484 
Q 3844 1559 3844 3247 
L 2538 3247 
Q 2506 2591 2444 2316 
Q 2956 1897 3288 1603 
L 3013 1191 
Q 2675 1541 2325 1869 
Q 2044 1025 1381 334 
Q 1231 503 1019 691 
Q 2056 1653 2084 3247 
L 1000 3247 
L 1000 -747 
L 531 -747 
L 531 3697 
L 2103 3697 
Q 2116 4091 2113 4534 
L 163 4534 
L 163 4991 
z
M 2556 3697 
L 3863 3697 
Q 3875 4094 3872 4534 
L 2569 4534 
Q 2569 4084 2556 3697 
z
" transform="scale(0.015625)"/>
      <path id="MicrosoftYaHei-5206" d="M 900 2559 
L 5056 2559 
Q 5025 1497 4963 484 
Q 4888 -684 3856 -678 
Q 3350 -684 2788 -647 
Q 2750 -384 2700 -116 
Q 3181 -184 3775 -191 
Q 4400 -203 4463 541 
Q 4513 1216 4538 2097 
L 2616 2097 
Q 2541 1053 2181 416 
Q 1706 -422 588 -878 
Q 425 -666 231 -459 
Q 1269 -72 1725 666 
Q 2053 1225 2103 2097 
L 900 2097 
L 900 2559 
z
M 3488 5159 
L 3938 5353 
Q 4625 3678 6350 2847 
Q 6069 2553 5944 2372 
Q 4225 3366 3488 5159 
z
M 50 2766 
Q 1338 3678 2250 5253 
L 2694 5009 
Q 1744 3347 413 2341 
Q 281 2534 50 2766 
z
" transform="scale(0.015625)"/>
      <path id="MicrosoftYaHei-522b" d="M 538 4959 
L 3375 4959 
L 3375 2772 
L 2888 2772 
L 2888 3028 
L 1025 3028 
L 1025 2772 
L 538 2772 
L 538 4959 
z
M 300 2116 
L 1316 2116 
Q 1331 2431 1338 2822 
L 1825 2822 
Q 1816 2431 1797 2116 
L 3431 2116 
Q 3413 1028 3363 328 
Q 3319 -684 2431 -678 
Q 2006 -678 1563 -641 
Q 1531 -347 1469 -122 
Q 1963 -203 2350 -203 
Q 2850 -209 2875 378 
Q 2925 891 2938 1666 
L 1769 1666 
Q 1688 53 431 -859 
Q 300 -666 88 -441 
Q 1238 366 1288 1666 
L 300 1666 
L 300 2116 
z
M 5425 5278 
L 5944 5278 
L 5944 53 
Q 5944 -747 5163 -747 
Q 4756 -747 4175 -741 
Q 4138 -484 4081 -178 
Q 4725 -228 4994 -228 
Q 5425 -228 5425 191 
L 5425 5278 
z
M 4138 4647 
L 4644 4647 
L 4644 666 
L 4138 666 
L 4138 4647 
z
M 2888 4509 
L 1025 4509 
L 1025 3478 
L 2888 3478 
L 2888 4509 
z
" transform="scale(0.015625)"/>
      <path id="MicrosoftYaHei-540c" d="M 1013 -772 
L 531 -772 
L 531 4959 
L 5856 4959 
L 5856 -47 
Q 5856 -741 5125 -741 
Q 4669 -741 4088 -716 
Q 4056 -497 4000 -216 
Q 4619 -272 5025 -272 
Q 5375 -272 5375 78 
L 5375 4497 
L 1013 4497 
L 1013 -772 
z
M 1875 2566 
L 4506 2566 
L 4506 597 
L 2338 597 
L 2338 272 
L 1875 272 
L 1875 2566 
z
M 4044 2116 
L 2338 2116 
L 2338 1047 
L 4044 1047 
L 4044 2116 
z
M 1363 3734 
L 5025 3734 
L 5025 3284 
L 1363 3284 
L 1363 3734 
z
" transform="scale(0.015625)"/>
      <path id="MicrosoftYaHei-7c7b" d="M 6338 -359 
Q 6213 -503 6006 -853 
Q 3975 -459 3200 884 
Q 2644 -497 400 -897 
Q 288 -684 131 -434 
Q 2244 -147 2744 1047 
L 275 1047 
L 275 1484 
L 2875 1484 
Q 2925 1691 2956 1978 
L 3456 1978 
Q 3413 1697 3369 1484 
L 6125 1484 
L 6125 1047 
L 3619 1047 
Q 4450 -159 6338 -359 
z
M 325 3741 
L 2975 3741 
L 2975 5303 
L 3450 5303 
L 3450 3741 
L 6075 3741 
L 6075 3322 
L 3450 3322 
L 3450 2953 
L 3625 3191 
Q 5325 2528 6231 2128 
L 6013 1722 
Q 4956 2266 3450 2847 
L 3450 2197 
L 2975 2197 
L 2975 3241 
Q 1863 2191 450 1741 
Q 319 1934 144 2153 
Q 1569 2553 2538 3322 
L 325 3322 
L 325 3741 
z
M 5550 4784 
Q 5163 4459 4394 3891 
L 4069 4222 
Q 4569 4578 5194 5122 
L 5550 4784 
z
M 900 4791 
L 1206 5122 
Q 1875 4647 2306 4266 
L 1969 3897 
Q 1581 4284 900 4791 
z
" transform="scale(0.015625)"/>
     </defs>
     <use xlink:href="#MicrosoftYaHei-43"/>
     <use xlink:href="#MicrosoftYaHei-20" x="66.894531"/>
     <use xlink:href="#MicrosoftYaHei-20" x="96.484375"/>
     <use xlink:href="#MicrosoftYaHei-4e24" x="126.074219"/>
     <use xlink:href="#MicrosoftYaHei-6761" x="226.074219"/>
     <use xlink:href="#MicrosoftYaHei-58f0" x="326.074219"/>
     <use xlink:href="#MicrosoftYaHei-6d41" x="426.074219"/>
     <use xlink:href="#MicrosoftYaHei-7684" x="526.074219"/>
     <use xlink:href="#MicrosoftYaHei-89e3" x="626.074219"/>
     <use xlink:href="#MicrosoftYaHei-91ca" x="726.074219"/>
     <use xlink:href="#MicrosoftYaHei-ff1a" x="826.074219"/>
     <use xlink:href="#MicrosoftYaHei-5206" x="926.074219"/>
     <use xlink:href="#MicrosoftYaHei-522b" x="1026.074219"/>
     <use xlink:href="#MicrosoftYaHei-8fde" x="1126.074219"/>
     <use xlink:href="#MicrosoftYaHei-63a5" x="1226.074219"/>
     <use xlink:href="#MicrosoftYaHei-540c" x="1326.074219"/>
     <use xlink:href="#MicrosoftYaHei-7c7b" x="1426.074219"/>
     <use xlink:href="#MicrosoftYaHei-97f3" x="1526.074219"/>
    </g>
   </g>
  </g>
 </g>
 <defs>
  <clipPath id="p1349008efe">
   <rect x="49.079063" y="23.75175" width="672.120457" height="107.762666"/>
  </clipPath>
  <clipPath id="pc0db5caad2">
   <rect x="49.079063" y="157.566646" width="672.120457" height="107.762666"/>
  </clipPath>
  <clipPath id="p28cc315b0f">
   <rect x="49.079063" y="291.381542" width="672.120457" height="107.762666"/>
  </clipPath>
 </defs>
</svg>
